<?xml version="1.0" encoding="utf-8"?>
<!-- Generator: Adobe Illustrator 18.1.1, SVG Export Plug-In . SVG Version: 6.00 Build 0)  -->
<svg version="1.1" id="Layer_1" xmlns="http://www.w3.org/2000/svg" xmlns:xlink="http://www.w3.org/1999/xlink" x="0px" y="0px"
	 viewBox="0 0 409.5 152" enable-background="new 0 0 409.5 152" xml:space="preserve">
<g>
	<g>
		<g>
		</g>
	</g>
</g>
<g>
	<g>
		<g>
			<path fill="#FFFFFF" d="M188.6,92.8V20.7h17.9v56.6h22.1l2.4,15.5H188.6z"/>
			<path fill="#FFFFFF" d="M239.6,92.8V20.7h17.9v72.1H239.6z"/>
			<path fill="#FFFFFF" d="M300.2,94c-17.7,0-30-9.5-30-29.7V20.7h18v43.5c0,9.3,4.2,14.7,12.2,14.7c8.1,0,12.2-5.3,12.2-14.5V20.7
				h18v43.5C330.6,84.3,317.7,94,300.2,94z"/>
			<path fill="#FFFFFF" d="M338.6,23l19-3c0,0,13.1,22.7,13.1,22.8l12.4-22h18.4l-21,34.1c0-0.1,22.7,35.7,22.7,35.7l-19.1,3
				l-14.8-25.4L355,92.8h-18.3l22.8-36.7L338.6,23z"/>
		</g>
		<path fill="#FFFFFF" d="M191,108.6h-1.2v3.8h-0.6v-8.6h2c1.7,0,2.8,0.9,2.8,2.4C194,107.8,192.7,108.6,191,108.6z M191.2,104.3
			h-1.4v3.8h1.2c1.4,0,2.3-0.7,2.3-1.9C193.4,104.9,192.6,104.3,191.2,104.3z"/>
		<path fill="#FFFFFF" d="M198.9,112.6c-2.2,0-3.8-1.9-3.8-4.5c0-2.6,1.6-4.5,3.9-4.5c2.2,0,3.8,1.9,3.8,4.5
			C202.8,110.7,201.2,112.6,198.9,112.6z M198.9,104.1c-1.9,0-3.2,1.6-3.2,3.9c0,2.3,1.3,4,3.2,4c1.9,0,3.2-1.6,3.2-3.9
			C202.2,105.8,200.9,104.1,198.9,104.1z"/>
		<path fill="#FFFFFF" d="M212.7,112.4h-0.6l-2.6-7.8l-2.6,7.8h-0.5l-2.6-8.6l0.6-0.1l2.3,7.8l2.5-7.7h0.6l2.6,7.7l2.3-7.7h0.6
			L212.7,112.4z"/>
		<path fill="#FFFFFF" d="M216.9,112.4v-8.6h4.4v0.5h-3.8v3.3h3l0.1,0.5h-3.1v3.7h3.9v0.5H216.9z"/>
		<path fill="#FFFFFF" d="M228.4,112.3l-0.6,0.1l-2.9-4.1h-1.3v4h-0.6v-8.6h2.1c1.6,0,2.7,0.8,2.7,2.3c0,1.4-1,2.1-2.2,2.3
			C225.5,108.4,228.4,112.3,228.4,112.3z M224.9,104.3h-1.4v3.6h1.3c1.4,0,2.3-0.6,2.3-1.8C227,104.9,226.3,104.3,224.9,104.3z"/>
		<path fill="#FFFFFF" d="M229.6,112.4v-8.6h4.4v0.5h-3.8v3.3h3l0.1,0.5h-3.1v3.7h3.9v0.5H229.6z"/>
		<path fill="#FFFFFF" d="M237.8,112.4h-2.2v-8.6h2.2c2.8,0,4.5,1.7,4.5,4.3C242.3,110.8,240.5,112.4,237.8,112.4z M237.9,104.3
			h-1.6v7.6h1.7c2.3,0,3.8-1.3,3.8-3.8C241.7,105.6,240.2,104.3,237.9,104.3z"/>
		<path fill="#FFFFFF" d="M248.6,112.4h-1.9v-8.6h1.9c1.7,0,2.6,0.8,2.6,2.1c0,1-0.6,1.6-1.4,2c1.1,0.3,1.8,1,1.8,2.1
			C251.5,111.5,250.3,112.4,248.6,112.4z M248.6,104.3h-1.3v3.3h1.3c1.3,0,2-0.8,2-1.7C250.5,104.9,249.8,104.3,248.6,104.3z
			 M248.6,108.1h-1.3v3.7h1.4c1.4,0,2.3-0.7,2.3-1.9C250.9,108.7,250,108.1,248.6,108.1z"/>
		<path fill="#FFFFFF" d="M255.8,108.7v3.7h-0.6v-3.7l-3.1-4.9l0.6-0.1l2.8,4.5l2.7-4.4h0.7L255.8,108.7z"/>
		<path fill="#FFFFFF" d="M189,130.6v-12.5h1.7V129h4.5l0.2,1.6H189z"/>
		<path fill="#FFFFFF" d="M205.5,130.6l-6.9-9.7v9.7H197v-12.5h1.5l6.6,9.4v-9.4h1.6v12.5H205.5z"/>
		<path fill="#FFFFFF" d="M212.3,125.5H211v5.1h-1.7v-12.5h3.3c2.6,0,4.2,1.3,4.2,3.6C216.9,124.2,215.1,125.5,212.3,125.5z
			 M212.5,119.6H211v4.4h1.4c1.7,0,2.7-0.7,2.7-2.3C215.2,120.3,214.2,119.6,212.5,119.6z"/>
		<path fill="#FFFFFF" d="M221.5,130.7c-1.4,0-2.6-0.3-3.5-0.8l0.3-1.7c0.9,0.6,2,1.1,3.3,1.1c1.3,0,2.2-0.7,2.2-1.9
			c0-1.1-0.5-1.6-2.4-2.5c-2.4-1.1-3.2-1.8-3.2-3.6c0-2,1.5-3.3,3.8-3.3c1.2,0,2.1,0.3,2.8,0.7l-0.3,1.7c-0.7-0.5-1.6-0.9-2.6-0.9
			c-1.4,0-2.1,0.8-2.1,1.7c0,1,0.5,1.4,2.4,2.3c2.4,1.1,3.3,1.9,3.3,3.8C225.5,129.4,223.9,130.7,221.5,130.7z"/>
		<path fill="#FFFFFF" d="M239,130.6v-5.8h-6.3v5.8h-1.7v-12.5h1.7v5.2h6.3v-5.2h1.7v12.5H239z"/>
		<path fill="#FFFFFF" d="M248.5,130.8c-3.5,0-5.7-2.6-5.7-6.5c0-3.9,2.3-6.5,5.8-6.5c3.5,0,5.7,2.6,5.7,6.5
			C254.2,128.2,252,130.8,248.5,130.8z M248.5,119.4c-2.5,0-4,1.9-4,4.9c0,3,1.5,4.9,4,4.9c2.5,0,4-1.9,4-4.9
			C252.5,121.3,250.9,119.4,248.5,119.4z"/>
		<path fill="#FFFFFF" d="M264.7,130.6l-6.9-9.7v9.7h-1.6v-12.5h1.5l6.6,9.4v-9.4h1.6v12.5H264.7z"/>
		<path fill="#FFFFFF" d="M272.1,130.6h-3.6v-12.5h3.6c4.3,0,6.6,2.6,6.6,6.2C278.8,128,276.4,130.6,272.1,130.6z M272.2,119.6h-2
			v9.4h1.9c3,0,4.8-1.5,4.8-4.7C277,121.2,275.1,119.6,272.2,119.6z"/>
		<path fill="#FFFFFF" d="M285.6,130.8c-3,0-4.8-1.9-4.8-5v-7.8h1.7v7.6c0,2.2,1,3.6,3.1,3.6c2.1,0,3.2-1.3,3.2-3.6v-7.6h1.7v7.7
			C290.4,128.9,288.6,130.8,285.6,130.8z"/>
		<path fill="#FFFFFF" d="M301.4,130.3l-1.7,0.4l-3.8-5.4h-1.3v5.3h-1.7v-12.5h3.4c2.6,0,4.1,1.3,4.1,3.6c0,1.9-1.1,3-2.7,3.5
			L301.4,130.3z M296.2,119.6h-1.6v4.3h1.4c1.6,0,2.7-0.7,2.7-2.2C298.7,120.4,297.9,119.6,296.2,119.6z"/>
		<path fill="#FFFFFF" d="M311.5,130.7l-1.5-3.9h-5.2l-1.4,3.8h-1.7l4.9-12.6h1.7l4.8,12.3L311.5,130.7z M307.5,120.1l-2,5.3h4
			L307.5,120.1z"/>
		<path fill="#FFFFFF" d="M317.7,130.7c-1.4,0-2.6-0.3-3.5-0.8l0.3-1.7c0.9,0.6,2,1.1,3.3,1.1c1.3,0,2.2-0.7,2.2-1.9
			c0-1.1-0.5-1.6-2.4-2.5c-2.4-1.1-3.2-1.8-3.2-3.6c0-2,1.5-3.3,3.8-3.3c1.2,0,2.1,0.3,2.8,0.7l-0.3,1.7c-0.7-0.5-1.6-0.9-2.6-0.9
			c-1.4,0-2.1,0.8-2.1,1.7c0,1,0.5,1.4,2.4,2.3c2.4,1.1,3.3,1.9,3.3,3.8C321.7,129.4,320.1,130.7,317.7,130.7z"/>
		<path fill="#FFFFFF" d="M331.5,130.8c-3.1,0-5.3-1.5-5.3-5.2v-7.5h3.7v7.5c0,1.4,0.6,2.1,1.7,2.1c1.1,0,1.7-0.8,1.7-2.1v-7.6h3.7
			v7.5C336.9,129.2,334.5,130.8,331.5,130.8z"/>
		<path fill="#FFFFFF" d="M338,118.6l4-0.6l1.9,3.5l1.8-3.4h3.8l-3.5,5.9l3.8,6.2l-4,0.6l-2.2-3.9c0,0-2.1,3.8-2.1,3.8h-3.7
			c0,0,3.8-6.3,3.8-6.3L338,118.6z"/>
		<path fill="#FFFFFF" d="M360.8,121.2v9.4h-3.7v-9.4h-3.2v-3.1h10.1l0.5,3.1H360.8z"/>
		<path fill="#FFFFFF" d="M365.5,130.6v-12.5h8.2v2.9h-4.6v1.7h3.5l0.5,3h-4v2h4.8v2.9H365.5z"/>
		<path fill="#FFFFFF" d="M383.5,130.7l-0.7-2.2h-3.9l-0.6,2.1h-3.6l4.3-12.6h4.1l4.1,12.1L383.5,130.7z M380.8,121.7l-1.2,3.9h2.3
			L380.8,121.7z"/>
		<path fill="#FFFFFF" d="M399,130.6l-0.5-7.6l-1.7,7.6h-3.6l-1.7-7.6l-0.4,7.6h-3.2l0.9-12.5h4.8l1.8,7.9l1.8-7.9h4.7l0.9,12.5H399
			z"/>
	</g>
	<rect x="152" y="4.8" fill="#FFFFFF" width="1.5" height="141.2"/>
	<path fill="#FFFFFF" d="M53.7,74.1c-3.8-2.7-7.6-5.5-11.4-8.2c-4.3-3.1-8.6-6.2-12.9-9.2c-1.7-1.2-2.2-2.5-1.7-4.1
		c0.6-1.6,1.8-2.3,3.7-2.4c19.4-0.4,38.8-0.8,58.2-1.2c0.9,0,1.7-0.1,2.6,0c2.7,0.4,3.9,2.7,2.6,5.2c-4.6,8.5-9.2,17-13.8,25.5
		c-0.3,0.5-0.6,1.1-0.9,1.8c3.2,1.4,6.2,2.7,9.3,3.9c1.7,0.7,2.7,1.7,2.8,3.5c0.1,1.8-1.1,2.5-2.5,3.2c-15.5,7.6-31,15.2-46.5,22.8
		c-2.2,1.1-4.5,2.2-6.9,2.7c-5.3,1.1-9.7-0.9-13.3-4.8C-0.4,87.3,4.3,48.7,33,29.6c24.5-16.3,58.8-9.3,75.2,15.3
		c17.1,25.7,10.1,59.7-15.9,76.5c-12.6,8.2-26.5,10.5-41.3,7.4c-2.3-0.5-3.4-2-3-4c0.3-1.9,2-3,4.3-2.6c10.4,2.1,20.6,1.4,30.2-3.2
		c16.2-7.7,25.8-20.5,27.8-38.4c2.8-25.3-13.8-47.5-38.7-52.4c-26.2-5.1-51.9,12.8-56.1,39.5c-2.4,15.4,1.8,28.8,12.2,40.4
		c2.6,2.9,3.9,2.8,6-0.5C40.3,96.8,46.8,85.9,53.3,75C53.5,74.7,53.5,74.5,53.7,74.1z M80.9,89c-2.3-0.9-4-1.7-5.8-2.4
		c-3-1.2-3.7-3-2.2-5.9c4.2-7.7,8.4-15.5,12.7-23.2c0.3-0.5,0.5-1,0.9-1.7c-15.2,0.3-30,0.6-44.9,0.9c0.4,0.7,0.8,1,1.3,1.4
		C48.4,62,54,66,59.7,70c1.9,1.3,2.4,3.4,1.3,5.2c-6.3,10.5-12.6,21-18.9,31.4c-0.4,0.6-0.7,1.2-1,1.8c0.1,0.1,0.2,0.1,0.2,0.2
		C54.3,102.2,67.4,95.7,80.9,89z"/>
</g>
</svg>
