<?xml version="1.0" standalone="no"?><!-- Generator: Adobe Fireworks CS6, Export SVG Extension by Aaron Beall (http://fireworks.abeall.com) . Version: 0.6.1  --><!DOCTYPE svg PUBLIC "-//W3C//DTD SVG 1.1//EN" "http://www.w3.org/Graphics/SVG/1.1/DTD/svg11.dtd"><svg id="Raichu-Icons.fw-icon-star" viewBox="0 0 400 400" style="background-color:#ffffff00" version="1.1"	xmlns="http://www.w3.org/2000/svg" xmlns:xlink="http://www.w3.org/1999/xlink" xml:space="preserve"	x="0px" y="0px" width="400px" height="400px">	<g id="Master%20Page%20Layer29">		<g id="Layer%20158">		</g>	</g>	<g id="Layer%20159">		<path d="M 360.219 172.1533 C 360.2412 172.04 360.2688 171.9282 360.2871 171.8145 C 361.2449 166.6743 358.0681 161.606 352.9282 160.2998 L 256.9927 132.4839 L 209.543 55.6943 C 208.7202 53.9761 207.4014 52.4722 205.6416 51.4253 C 204.189 50.561 202.606 50.1118 201.0278 50.0342 L 201.0273 50.0342 C 200.853 50.0259 200.6792 50.0288 200.5049 50.0293 C 198.749 50.02 196.9688 50.4619 195.3496 51.4253 C 193.5874 52.4736 192.2671 53.9795 191.4443 55.7002 L 143.9731 132.5234 L 48.1738 160.2998 C 43.0332 161.606 39.8569 166.6743 40.8149 171.8149 C 40.833 171.9277 40.8604 172.0386 40.8823 172.1504 C 40.9048 172.252 40.9175 172.3535 40.9434 172.4551 C 40.9473 172.4712 40.9536 172.4863 40.958 172.5024 C 41.3472 174.1714 42.1611 175.7642 43.4248 177.0986 L 114.1753 246.9878 L 100.7163 337.7153 C 100.7007 337.7856 100.6943 337.8555 100.6797 337.9258 C 100.252 339.8706 100.3916 341.9604 101.2207 343.9365 C 103.3574 349.0283 109.2188 351.4243 114.3115 349.2866 L 200.5513 310.7637 L 286.7905 349.2866 C 291.8838 351.4243 297.7446 349.0283 299.8813 343.9365 C 302.0186 338.8433 299.623 332.9824 294.5303 330.8447 L 204.5054 290.6309 C 203.2119 290.0879 201.8696 289.8403 200.5513 289.8521 C 199.2324 289.8403 197.8896 290.0879 196.5967 290.6309 L 122.9868 323.5117 L 134.5664 245.4517 C 135.4829 241.3804 133.7715 237.333 130.5576 235.0728 L 69.6328 174.8901 L 152.4839 150.8682 C 153.6836 150.5635 154.769 150.0444 155.7285 149.377 C 157.1226 148.5518 158.3359 147.377 159.2227 145.8867 L 200.4951 79.0952 L 241.7676 145.8867 C 242.7583 147.5518 244.1611 148.8149 245.7646 149.6436 C 246.625 150.1841 247.5806 150.6045 248.6182 150.8682 L 331.4692 174.8901 L 270.5444 235.0728 C 267.3301 237.333 265.6191 241.3804 266.5356 245.4517 L 273.3271 291.2344 L 273.5327 292.6201 C 274.5288 297.0933 278.5137 300.4395 283.2871 300.4395 C 288.8096 300.4395 293.2871 295.9624 293.2871 290.4395 C 293.2871 290.1436 293.2676 289.8525 293.2427 289.5635 L 293.0596 288.3311 L 286.9268 246.9883 L 357.677 177.0986 C 358.9404 175.7637 359.7544 174.1709 360.144 172.502 C 360.1482 172.4858 360.1543 172.4707 360.1584 172.4551 C 360.1841 172.3545 360.1968 172.2539 360.219 172.1533 Z" fill="#333333"/>	</g></svg>