<?xml version="1.0" standalone="no"?><!-- Generator: Adobe Fireworks CS6, Export SVG Extension by Aaron Beall (http://fireworks.abeall.com) . Version: 0.6.1  --><!DOCTYPE svg PUBLIC "-//W3C//DTD SVG 1.1//EN" "http://www.w3.org/Graphics/SVG/1.1/DTD/svg11.dtd"><svg id="Raichu-Icons.fw-icon-business" viewBox="0 0 400 400" style="background-color:#ffffff00" version="1.1"	xmlns="http://www.w3.org/2000/svg" xmlns:xlink="http://www.w3.org/1999/xlink" xml:space="preserve"	x="0px" y="0px" width="400px" height="400px">	<g id="Master%20Page%20Layer14">		<g id="Layer%20128">		</g>	</g>	<g id="Layer%20129">		<path d="M 202.2979 204.8721 C 245.7725 204.1597 280.8027 168.7183 280.8027 125.0718 C 280.8027 80.9805 245.0586 45.2383 200.9688 45.2383 C 156.877 45.2383 121.1348 80.9805 121.1348 125.0718 C 121.1348 168.5918 155.9629 203.9521 199.2637 204.8623 C 122.4648 205.4766 60.3945 267.9121 60.3945 344.8589 L 60.4512 344.8589 C 60.4512 350.3823 64.9297 354.8589 70.4512 354.8589 C 75.9746 354.8589 80.4512 350.3823 80.4512 344.8589 C 80.4512 344.5503 80.4336 344.2476 80.4063 343.9468 C 80.792 292.0991 114.0527 248.0825 160.375 231.6953 C 160.834 233.2378 161.6709 234.6914 162.8887 235.9092 L 169.9082 242.9277 L 146.625 266.2109 C 144.9111 267.9248 143.9512 270.1064 143.7412 272.3457 C 143.3359 275.334 144.2715 278.4692 146.5684 280.7661 L 192.873 322.0723 C 194.8311 324.0293 197.3984 325.0049 199.9639 325 C 202.5293 325.0049 205.0957 324.0293 207.0527 322.0723 L 253.3594 280.7661 C 256.1035 278.022 256.9102 274.082 255.7969 270.625 C 255.3535 269.0088 254.5039 267.4805 253.2344 266.2109 L 229.9512 242.9277 L 236.9707 235.9092 C 238.2676 234.6113 239.125 233.0435 239.5596 231.3877 C 286.6133 247.6216 320.416 292.2896 320.416 344.8589 C 320.416 350.3823 324.8926 354.8589 330.416 354.8589 C 335.9375 354.8589 340.416 350.3823 340.416 344.8589 C 340.416 268.1636 278.75 205.8867 202.2979 204.8721 ZM 141.0879 125.0718 C 141.0879 92.0005 167.8984 65.1914 200.9688 65.1914 C 234.0391 65.1914 260.8496 92.0005 260.8496 125.0718 C 260.8496 158.144 234.0391 184.9526 200.9688 184.9526 C 167.8984 184.9526 141.0879 158.144 141.0879 125.0718 ZM 208.8066 235.7881 C 206.8379 237.7583 205.8633 240.3457 205.8818 242.9277 C 205.8633 245.5103 206.8379 248.0977 208.8066 250.0684 L 231.8945 273.1563 L 199.9639 301.6396 L 167.9971 273.124 L 191.0527 250.0684 C 193.0215 248.0977 193.9961 245.5103 193.9775 242.9277 C 193.9961 240.3457 193.0215 237.7583 191.0527 235.7881 L 181.5859 226.3213 C 187.7168 225.3555 194.002 224.8481 200.4043 224.8481 C 206.5225 224.8481 212.5313 225.3091 218.4023 226.1919 L 208.8066 235.7881 Z" fill="#333333"/>	</g></svg>