<?xml version="1.0" standalone="no"?><!-- Generator: Adobe Fireworks CS6, Export SVG Extension by Aaron Beall (http://fireworks.abeall.com) . Version: 0.6.1  --><!DOCTYPE svg PUBLIC "-//W3C//DTD SVG 1.1//EN" "http://www.w3.org/Graphics/SVG/1.1/DTD/svg11.dtd"><svg id="Raichu-Icons.fw-icon-email" viewBox="0 0 400 400" style="background-color:#ffffff00" version="1.1"	xmlns="http://www.w3.org/2000/svg" xmlns:xlink="http://www.w3.org/1999/xlink" xml:space="preserve"	x="0px" y="0px" width="400px" height="400px">	<g id="Master%20Page%20Layer2">		<g id="Layer%2014">		</g>	</g>	<g id="Layer%2015">		<path d="M 360.1045 160.0786 C 360.1045 154.5557 355.6279 150.0786 350.1045 150.0786 C 344.582 150.0786 340.1045 154.5557 340.1045 160.0786 L 340.1045 309.9141 L 60.417 309.9141 L 60.417 90.0786 L 326.2432 90.0786 L 200.3701 215.9526 L 107.4248 123.0088 C 103.4844 119.0679 97.0967 119.0679 93.1582 123.0088 C 89.2183 126.9492 89.2163 133.335 93.1582 137.2764 L 193.0313 237.1489 C 193.3105 237.4282 193.6045 237.6821 193.9072 237.9219 C 197.8242 241.1748 203.5488 241.0576 207.1064 237.5005 L 356.2139 88.3916 C 358.8926 86.5972 360.6572 83.5444 360.6572 80.0786 C 360.6572 75.1528 357.0928 71.0684 352.4053 70.2407 C 351.3535 70.0132 350.2803 69.9629 349.2246 70.0786 L 50.6572 70.0786 C 50.6167 70.0786 50.5776 70.084 50.5371 70.0845 C 50.4966 70.084 50.4575 70.0786 50.417 70.0786 C 44.894 70.0786 40.417 74.5557 40.417 80.0786 L 40.417 320.0786 C 40.417 325.6016 44.894 330.0786 50.417 330.0786 C 51.0181 330.0786 51.604 330.0161 52.1758 329.9141 L 348.3457 329.9141 C 348.917 330.0161 349.5029 330.0786 350.1045 330.0786 C 351.2158 330.0786 352.2822 329.8896 353.2813 329.5547 C 357.5283 328.4009 360.6572 324.5278 360.6572 319.9141 C 360.6572 318.7729 360.457 317.6807 360.1045 316.6592 L 360.1045 160.0786 Z" fill="#333333"/>	</g></svg>