<?xml version="1.0" standalone="no"?><!-- Generator: Adobe Fireworks CS6, Export SVG Extension by Aaron Beall (http://fireworks.abeall.com) . Version: 0.6.1  --><!DOCTYPE svg PUBLIC "-//W3C//DTD SVG 1.1//EN" "http://www.w3.org/Graphics/SVG/1.1/DTD/svg11.dtd"><svg id="Raichu-Icons.fw-icon-google" viewBox="0 0 400 400" style="background-color:#ffffff00" version="1.1"	xmlns="http://www.w3.org/2000/svg" xmlns:xlink="http://www.w3.org/1999/xlink" xml:space="preserve"	x="0px" y="0px" width="400px" height="400px">	<g id="Master%20Page%20Layer32">		<g id="Layer%20164">		</g>	</g>	<g id="Layer%20165">		<path d="M 352.7627 152.2412 C 326.3594 67.9116 236.5938 20.9551 152.2656 47.3594 C 67.9355 73.7617 20.9775 163.5264 47.3809 247.8569 C 48.3735 251.0264 49.4712 254.1328 50.6416 257.1943 C 50.6421 257.1968 50.6426 257.1987 50.6436 257.2012 C 50.707 257.4019 50.7861 257.5928 50.8594 257.7871 C 50.9141 257.9287 50.9688 258.0713 51.0234 258.2129 C 53.0371 262.8374 58.251 265.2969 63.1738 263.7559 C 68.4468 262.106 71.3799 256.4956 69.7295 251.2241 C 69.625 250.8882 69.5029 250.562 69.3662 250.2451 C 68.3164 247.5068 67.3467 244.7207 66.457 241.8838 C 43.3525 168.0903 84.4438 89.5391 158.2363 66.4346 C 232.0298 43.3301 310.5811 84.4199 333.6865 158.2144 C 356.792 232.0093 315.6992 310.5596 241.9063 333.6636 C 190.8262 349.6567 137.4707 334.8853 101.7998 299.8037 C 101.54 299.5479 101.2813 299.29 101.0234 299.0322 C 98.4844 296.7681 94.8599 295.8477 91.3779 296.938 C 86.1074 298.5884 83.1729 304.1987 84.8218 309.4688 C 85.377 311.2417 86.3877 312.7417 87.6748 313.9014 C 87.6738 313.8994 87.6729 313.8984 87.6709 313.8975 C 87.6641 313.9033 87.6592 313.9102 87.6528 313.917 C 128.416 354.0977 189.4463 371.0361 247.8789 352.7397 C 332.209 326.3369 379.166 236.5718 352.7627 152.2412 Z" fill="#333333"/>		<path d="M 207.0249 215.0659 C 201.6636 211.2764 191.4307 202.0601 191.4307 196.6392 C 191.4307 190.2915 193.2417 187.1597 202.7988 179.6943 C 212.5894 172.0381 219.5283 159.4927 219.5283 146.9648 C 219.5283 132.0708 212.8823 122.9321 200.4263 110.9785 L 219.2178 110.9785 L 232.4746 105.0015 C 232.4746 105.0015 188.042 105.0015 173.2256 105.0015 C 146.6582 105.0015 121.6689 125.0957 121.6689 148.3994 C 121.6689 172.2236 139.7729 191.439 166.8003 191.439 C 168.6772 191.439 170.5 191.3911 172.2935 191.2715 C 170.5361 194.6187 169.2866 198.3965 169.2866 202.3232 C 169.2866 208.9453 172.8491 214.3125 177.3438 218.6997 C 173.9546 218.6997 170.6616 218.7954 167.0815 218.7954 C 134.1665 218.7891 108.8545 239.7383 108.8545 261.4702 C 108.8545 282.8613 136.6172 296.2617 169.5078 296.2617 C 207.019 296.2617 227.7285 274.9717 227.7285 253.5747 C 227.7349 236.415 222.6665 226.147 207.0249 215.0659 ZM 175.3711 185.3784 C 160.1001 184.9243 145.6006 168.3027 142.9648 148.2681 C 140.335 128.2158 150.5674 112.873 165.8203 113.3271 C 181.0854 113.7935 195.5908 129.8711 198.2329 149.918 C 200.8687 169.9702 190.6245 185.833 175.3711 185.3784 ZM 169.3882 286.7881 C 146.6465 286.7881 130.2217 272.4019 130.2217 255.105 C 130.2217 238.1665 150.5908 224.0547 173.3389 224.2998 C 178.6465 224.3599 183.5894 225.2085 188.0718 226.6606 C 200.4204 235.2559 209.2778 240.1089 211.7886 249.8809 C 212.2427 251.8652 212.5117 253.9155 212.5117 255.9956 C 212.5117 273.2803 201.3647 286.7881 169.3882 286.7881 Z" fill="#333333"/>		<path d="M 270.2305 188.6777 L 270.2305 158.7935 L 258.2764 158.7935 L 258.2764 188.6777 L 228.3921 188.6777 L 228.3921 200.6313 L 258.2764 200.6313 L 258.2764 230.5161 L 270.2305 230.5161 L 270.2305 200.6313 L 300.1147 200.6313 L 300.1147 188.6777 L 270.2305 188.6777 Z" fill="#333333"/>	</g></svg>