<?xml version="1.0" standalone="no"?><!-- Generator: Adobe Fireworks CS6, Export SVG Extension by Aaron Beall (http://fireworks.abeall.com) . Version: 0.6.1  --><!DOCTYPE svg PUBLIC "-//W3C//DTD SVG 1.1//EN" "http://www.w3.org/Graphics/SVG/1.1/DTD/svg11.dtd"><svg id="Raichu-Icons.fw-icon-comment" viewBox="0 0 400 400" style="background-color:#ffffff00" version="1.1"	xmlns="http://www.w3.org/2000/svg" xmlns:xlink="http://www.w3.org/1999/xlink" xml:space="preserve"	x="0px" y="0px" width="400px" height="400px">	<g id="Master%20Page%20Layer">		<g id="Layer%2012">		</g>	</g>	<g id="Layer%2013">		<path d="M 109.959 165.02 C 109.959 170.543 114.4355 175.02 119.959 175.02 C 125.4814 175.02 129.959 170.543 129.959 165.02 C 129.959 159.4971 125.4814 155.02 119.959 155.02 C 114.4355 155.02 109.959 159.4971 109.959 165.02 Z" fill="#333333"/>		<path d="M 289.8965 165.02 C 289.8965 159.4971 285.4189 155.02 279.8965 155.02 C 274.373 155.02 269.8965 159.4971 269.8965 165.02 C 269.8965 170.543 274.373 175.02 279.8965 175.02 C 285.4189 175.02 289.8965 170.543 289.8965 165.02 Z" fill="#333333"/>		<path d="M 210 165.02 C 210 159.4971 205.5225 155.02 200 155.02 C 194.4766 155.02 190 159.4971 190 165.02 C 190 170.543 194.4766 175.02 200 175.02 C 205.5225 175.02 210 170.543 210 165.02 Z" fill="#333333"/>		<path d="M 359.834 57.9658 C 360.1099 57.0508 360.2617 56.082 360.2617 55.0771 C 360.2617 49.8721 356.2842 45.6001 351.2036 45.1245 C 350.7549 45.063 350.2998 45.02 349.834 45.02 C 349.4766 45.02 349.124 45.0405 348.7759 45.0771 L 51.2612 45.0771 C 50.9131 45.0405 50.5605 45.02 50.2031 45.02 C 44.6802 45.02 40.2031 49.4971 40.2031 55.02 L 40.2031 275.02 C 40.2031 280.543 44.6802 285.02 50.2031 285.02 C 50.6743 285.02 51.1343 284.9761 51.5884 284.9131 L 170.2031 284.9131 C 175.7261 284.9131 180.2031 280.436 180.2031 274.9131 C 180.2031 269.3901 175.7261 264.9131 170.2031 264.9131 L 60.2031 264.9131 L 60.2031 65.0771 L 339.834 65.0771 L 339.834 264.9131 L 229.9434 264.9131 C 226.8794 264.9131 224.1406 266.2944 222.3062 268.4644 C 222.209 268.5547 222.1069 268.6357 222.0122 268.7305 L 157.7368 338.0059 C 153.8315 341.9111 153.8315 348.2427 157.7368 352.1479 C 161.6421 356.0532 167.9736 356.0532 171.8789 352.1479 L 234.1138 284.9131 L 348.4487 284.9131 C 348.9028 284.9761 349.3628 285.02 349.834 285.02 C 352.6167 285.02 355.1318 283.8818 356.9448 282.0474 C 358.7935 280.2329 359.9434 277.7085 359.9434 274.9131 C 359.9434 274.4365 359.8984 273.9712 359.834 273.5122 L 359.834 57.9658 Z" fill="#333333"/>	</g></svg>