<?xml version="1.0" standalone="no"?><!-- Generator: Adobe Fireworks CS6, Export SVG Extension by Aaron Beall (http://fireworks.abeall.com) . Version: 0.6.1  --><!DOCTYPE svg PUBLIC "-//W3C//DTD SVG 1.1//EN" "http://www.w3.org/Graphics/SVG/1.1/DTD/svg11.dtd"><svg id="Raichu-Icons.fw-icon-people" viewBox="0 0 400 400" style="background-color:#ffffff00" version="1.1"	xmlns="http://www.w3.org/2000/svg" xmlns:xlink="http://www.w3.org/1999/xlink" xml:space="preserve"	x="0px" y="0px" width="400px" height="400px">	<g id="Master%20Page%20Layer23">		<g id="Layer%20146">		</g>	</g>	<g id="Layer%20147">		<path d="M 201.2178 209.2393 C 224.5762 195.3105 240.2305 169.8047 240.2305 140.6318 C 240.2305 96.5405 204.4863 60.7983 160.3965 60.7983 C 116.3052 60.7983 80.5635 96.5405 80.5635 140.6318 C 80.5635 169.6616 96.0596 195.0664 119.228 209.0396 C 83.7544 224.7085 58.9946 260.1924 58.9946 301.4673 C 58.9946 312.2085 60.6885 322.5493 63.7954 332.2588 C 63.9663 333.1782 64.2651 334.0503 64.6689 334.8628 C 66.3052 338.1553 69.6934 340.4233 73.6196 340.4233 C 79.1426 340.4233 83.6196 335.9463 83.6196 330.4233 C 83.6196 330.0552 83.5967 329.6924 83.5581 329.3345 C 83.4004 327.8818 82.9253 326.5273 82.2139 325.3296 C 79.8999 317.7837 78.6499 309.7725 78.6499 301.4673 C 78.6499 258.1641 112.4873 222.7793 155.1606 220.2764 C 156.8931 220.3887 158.6353 220.4658 160.3965 220.4658 C 162.021 220.4658 163.6299 220.4023 165.2305 220.3071 C 207.7134 223.0083 241.3394 258.3003 241.3394 301.4673 C 241.3394 310.2705 239.938 318.7451 237.3496 326.6836 C 237.2368 327.0298 237.1177 327.3726 237.0005 327.7168 C 236.7583 328.5786 236.6196 329.4839 236.6196 330.4233 C 236.6196 335.9463 241.0967 340.4233 246.6196 340.4233 C 250.0688 340.4233 253.1104 338.6768 254.9077 336.02 C 255.8892 334.5693 256.4873 332.8442 256.5913 330.9873 C 259.4434 321.6479 260.9946 311.7407 260.9946 301.4673 C 260.9946 260.3691 236.4478 225.0098 201.2178 209.2393 ZM 100.5166 140.6318 C 100.5166 107.5605 127.3262 80.7515 160.3965 80.7515 C 193.4668 80.7515 220.2773 107.5605 220.2773 140.6318 C 220.2773 173.3438 194.0444 199.9092 161.4722 200.4858 C 160.98 200.4785 160.4888 200.4668 159.9946 200.4668 C 159.6797 200.4668 159.3667 200.4761 159.0527 200.479 C 126.605 199.7617 100.5166 173.2534 100.5166 140.6318 Z" fill="#333333"/>		<path d="M 280.5308 208.1147 C 303.8892 194.1851 319.543 168.6797 319.543 139.5073 C 319.543 95.5757 284.0552 59.9443 240.187 59.6855 C 240.1069 59.6836 240.0288 59.6733 239.9478 59.6733 C 239.9209 59.6733 239.895 59.6772 239.8682 59.6772 C 239.8149 59.6772 239.7622 59.6733 239.709 59.6733 C 239.5742 59.6733 239.4419 59.6831 239.3071 59.6831 L 239.3071 59.7056 C 234.0845 60.0381 229.9478 64.3672 229.9478 69.6733 C 229.9478 75.1963 234.4248 79.6733 239.9478 79.6733 C 240.1294 79.6733 240.3071 79.6558 240.4868 79.6465 C 273.1968 80.0645 299.5898 106.6958 299.5898 139.5073 C 299.5898 172.2183 273.3569 198.7847 240.7847 199.3608 C 240.2925 199.353 239.8013 199.3413 239.3071 199.3413 L 239.3071 199.3672 C 239.2651 199.3672 239.2241 199.3608 239.1821 199.3608 C 233.6592 199.3608 229.1821 203.8379 229.1821 209.3608 C 229.1821 214.8838 233.6592 219.3608 239.1821 219.3608 C 239.3257 219.3608 239.4653 219.3452 239.6079 219.3394 C 239.6416 219.3398 239.6753 219.3413 239.709 219.3413 C 241.3354 219.3413 242.9468 219.2778 244.5493 219.1821 C 287.0288 221.8862 320.6519 257.1772 320.6519 300.3423 C 320.6519 309.146 319.2505 317.6206 316.6621 325.5581 C 316.5493 325.9048 316.4302 326.2476 316.313 326.5913 C 316.0708 327.4536 315.9321 328.3589 315.9321 329.2983 C 315.9321 334.8218 320.4092 339.2983 325.9321 339.2983 C 329.3813 339.2983 332.4229 337.5522 334.2202 334.895 C 334.8242 333.2368 335.3853 331.5591 335.9038 329.8628 C 338.7559 320.5229 340.3071 310.6157 340.3071 300.3423 C 340.3071 259.2446 315.7603 223.8843 280.5308 208.1147 Z" fill="#333333"/>	</g></svg>