<?xml version="1.0" standalone="no"?><!-- Generator: Adobe Fireworks CS6, Export SVG Extension by Aaron Beall (http://fireworks.abeall.com) . Version: 0.6.1  --><!DOCTYPE svg PUBLIC "-//W3C//DTD SVG 1.1//EN" "http://www.w3.org/Graphics/SVG/1.1/DTD/svg11.dtd"><svg id="Raichu-Icons.fw-icon-languages" viewBox="0 0 400 400" style="background-color:#ffffff00" version="1.1"	xmlns="http://www.w3.org/2000/svg" xmlns:xlink="http://www.w3.org/1999/xlink" xml:space="preserve"	x="0px" y="0px" width="400px" height="400px">	<g id="Master%20Page%20Layer49">		<g id="Layer%20198">		</g>	</g>	<g id="Layer%20199">		<path d="M 147.1081 200.0847 L 126.3278 147.3602 L 142.0408 147.3602 L 151.8745 177.2009 C 152.7165 179.8046 153.2893 182.8661 153.5994 186.4052 L 153.8804 186.4052 C 154.2222 183.151 154.8842 180.0891 155.888 177.2009 L 165.5299 147.3602 L 180.9118 147.3602 L 158.7668 207.4482 C 156.74 213.0012 153.8404 217.1816 150.0778 219.9785 C 146.3052 222.7654 141.9107 224.1684 136.8843 224.1684 C 134.4148 224.1684 131.987 223.8943 129.6193 223.3551 L 129.6193 211.8316 C 131.3251 212.2386 133.2009 212.4517 135.2277 212.4517 C 137.7572 212.4517 139.964 211.6485 141.8499 210.042 C 143.7366 208.4346 145.2022 206.0036 146.2652 202.7594 L 147.1081 200.0847 ZM 222.8727 200.461 C 220.0031 201.0711 216.5015 201.3863 212.3779 201.3863 C 203.869 201.3863 197.2169 199.0472 192.4205 194.3584 C 187.6241 189.6801 185.2363 183.0388 185.2363 174.4447 C 185.2363 165.6167 187.4432 158.782 191.8786 153.9507 C 196.3039 149.13 202.4242 146.7094 210.2403 146.7094 C 217.7054 146.7094 223.5155 148.8554 227.6799 153.1375 C 231.8335 157.4292 233.9203 163.3486 233.9203 170.9052 L 233.9203 177.9535 L 199.7747 177.9535 C 199.9364 181.8385 201.1503 184.8796 203.4272 187.056 C 205.6957 189.2328 208.8863 190.3209 212.9999 190.3209 C 216.1905 190.3209 219.2002 190.0161 222.0498 189.3852 C 224.8895 188.7547 227.8591 187.7579 230.9606 186.3748 L 230.9606 197.6234 C 228.4319 198.8947 225.7432 199.8404 222.8727 200.461 ZM 361 176.2373 C 361 111.9436 289.1672 60 200.4992 60 C 111.8303 60 40 112.1251 40 176.2373 C 40 213.1063 63.645 245.9793 100.5452 267.2292 C 92.1263 297.5596 79.2288 308.4572 67.9436 321.3521 C 65.2574 324.6212 62.2118 327.3454 63.1072 331.8859 L 63.1072 332.0678 C 64.0035 336.4267 67.7652 339.3324 71.7053 338.9695 C 78.6918 338.0611 85.6775 336.7898 92.1263 334.9735 C 123.1155 326.982 151.0591 312.0893 174.5257 291.0213 C 182.9445 291.9297 191.7218 292.4742 200.4992 292.4742 C 289.1672 292.4742 361 240.531 361 176.2373 ZM 281.1694 178.2484 C 282.0923 180.1198 282.5542 182.3369 282.5542 184.9203 C 282.5542 190.2902 280.6674 194.3688 276.8949 197.1761 C 273.1223 199.9829 267.4731 201.3863 259.9572 201.3863 C 256.1054 201.3863 252.8139 201.1218 250.1052 200.6138 C 247.3856 200.105 244.8469 199.3524 242.4792 198.3556 L 242.4792 186.4969 C 245.1679 187.7683 248.2084 188.8357 251.58 189.69 C 254.9515 190.5444 257.9304 190.9718 260.4999 190.9718 C 265.7573 190.9718 268.396 189.477 268.396 186.4866 C 268.396 185.3676 268.045 184.4626 267.3522 183.7611 C 266.6502 183.0592 265.4464 182.2655 263.7405 181.3709 C 262.0248 180.4858 259.7371 179.4487 256.8875 178.2583 C 252.7939 176.5804 249.7933 175.0245 247.8766 173.5904 C 245.9608 172.1666 244.566 170.5185 243.6931 168.6678 C 242.8202 166.8167 242.3891 164.5281 242.3891 161.8127 C 242.3891 157.0122 244.205 153.29 247.8575 150.6555 C 251.4991 148.0318 256.6665 146.7094 263.3696 146.7094 C 269.7408 146.7094 275.942 148.1539 281.9822 151.0218 L 277.6069 161.6905 C 274.9382 160.5513 272.4503 159.6056 270.1418 158.8734 C 267.8341 158.1411 265.4763 157.7752 263.0686 157.7752 C 258.7841 157.7752 256.6465 158.914 256.6465 161.1922 C 256.6465 162.4739 257.3293 163.5725 258.7141 164.5078 C 260.0881 165.4435 263.1086 166.837 267.774 168.6678 C 271.9185 170.3154 274.959 171.8613 276.8949 173.2955 C 278.8216 174.7296 280.2465 176.3768 281.1694 178.2484 ZM 217.6653 160.0126 C 215.8595 158.09 213.4109 157.1239 210.3412 157.1239 C 207.2606 157.1239 204.852 158.09 203.1062 160.0126 C 201.3604 161.9348 200.3574 164.6602 200.1065 168.1897 L 220.475 168.1897 C 220.4141 164.6602 219.472 161.9348 217.6653 160.0126 Z" fill="#ffffff"/>	</g></svg>