<?xml version="1.0" standalone="no"?><!-- Generator: Adobe Fireworks CS6, Export SVG Extension by Aaron Beall (http://fireworks.abeall.com) . Version: 0.6.1  --><!DOCTYPE svg PUBLIC "-//W3C//DTD SVG 1.1//EN" "http://www.w3.org/Graphics/SVG/1.1/DTD/svg11.dtd"><svg id="Raichu-Icons.fw-icon-resource" viewBox="0 0 400 400" style="background-color:#ffffff00" version="1.1"	xmlns="http://www.w3.org/2000/svg" xmlns:xlink="http://www.w3.org/1999/xlink" xml:space="preserve"	x="0px" y="0px" width="400px" height="400px">	<g id="Master%20Page%20Layer6">		<g id="Layer%20112">		</g>	</g>	<g id="Layer%20113">		<path d="M 281.4482 59.8979 C 281.4453 59.8965 281.4414 59.8945 281.4375 59.8931 C 281.5576 59.9546 281.667 60.0298 281.7832 60.0952 C 281.6699 60.0313 281.5635 59.96 281.4482 59.8979 Z" fill="#333333"/>		<path d="M 339.9883 349.6934 L 339.9883 130.04 C 339.9883 130.0366 339.9883 130.0332 339.9883 130.0298 L 339.9883 129.9917 C 339.9883 129.7676 339.9688 129.5488 339.9551 129.3286 C 339.9492 129.2422 339.9502 129.1553 339.9414 129.0688 C 339.7012 126.4497 338.4492 124.1284 336.582 122.4868 L 257.291 43.1953 C 255.4668 41.2544 252.8838 40.0356 250.0098 40.0356 C 244.4863 40.0356 240.0098 44.5122 240.0098 50.0356 L 240.0098 128.6289 C 239.9492 129.0757 239.9063 129.5283 239.9063 129.9917 C 239.9063 134.1533 242.4492 137.7188 246.0645 139.2246 C 247.2754 139.7451 248.6084 140.0356 250.0098 140.0356 C 250.3027 140.0356 250.5918 140.0166 250.8789 139.9917 L 319.9883 139.9917 L 319.9883 340.1191 L 79.9688 340.1191 L 79.9688 60.0356 L 209.9063 60.0356 C 215.4297 60.0356 219.9063 55.5591 219.9063 50.0356 C 219.9063 44.5122 215.4297 40.0356 209.9063 40.0356 L 71.0303 40.0356 C 70.6816 39.9985 70.3271 39.978 69.9688 39.978 C 64.4453 39.978 59.9688 44.4551 59.9688 49.978 L 59.9688 349.978 C 59.9688 351.0293 60.1328 352.0415 60.4336 352.9932 C 61.6689 357.1147 65.4863 360.1191 70.0098 360.1191 L 330.0098 360.1191 C 335.5322 360.1191 340.0098 355.6426 340.0098 350.1191 C 340.0098 349.9756 339.9941 349.8359 339.9883 349.6934 ZM 260.0098 74.9868 L 305.5859 119.9917 L 260.0098 119.9917 L 260.0098 74.9868 Z" fill="#333333"/>		<path d="M 109.9688 219.9785 C 109.9688 225.5015 114.4453 229.9785 119.9688 229.9785 C 125.4912 229.9785 129.9688 225.5015 129.9688 219.9785 C 129.9688 214.4556 125.4912 209.9785 119.9688 209.9785 C 114.4453 209.9785 109.9688 214.4556 109.9688 219.9785 Z" fill="#333333"/>		<path d="M 289.9063 219.9785 C 289.9063 214.4556 285.4287 209.9785 279.9063 209.9785 C 274.3828 209.9785 269.9063 214.4556 269.9063 219.9785 C 269.9063 225.5015 274.3828 229.9785 279.9063 229.9785 C 285.4287 229.9785 289.9063 225.5015 289.9063 219.9785 Z" fill="#333333"/>		<path d="M 200.0098 209.9785 C 194.4863 209.9785 190.0098 214.4556 190.0098 219.9785 C 190.0098 225.5015 194.4863 229.9785 200.0098 229.9785 C 205.5322 229.9785 210.0098 225.5015 210.0098 219.9785 C 210.0098 214.4556 205.5322 209.9785 200.0098 209.9785 Z" fill="#333333"/>	</g></svg>