<?xml version="1.0" standalone="no"?><!-- Generator: Adobe Fireworks CS6, Export SVG Extension by Aaron Beall (http://fireworks.abeall.com) . Version: 0.6.1  --><!DOCTYPE svg PUBLIC "-//W3C//DTD SVG 1.1//EN" "http://www.w3.org/Graphics/SVG/1.1/DTD/svg11.dtd"><svg id="Raichu-Icons.fw-icon-folder" viewBox="0 0 400 400" style="background-color:#ffffff00" version="1.1"	xmlns="http://www.w3.org/2000/svg" xmlns:xlink="http://www.w3.org/1999/xlink" xml:space="preserve"	x="0px" y="0px" width="400px" height="400px">	<g id="Master%20Page%20Layer18">		<g id="Layer%20136">		</g>	</g>	<g id="Layer%20137">		<path d="M 260.1377 49.6904 C 260.1357 49.689 260.1299 49.687 260.127 49.6855 C 260.2471 49.7471 260.3564 49.8223 260.4727 49.8877 C 260.3594 49.8237 260.2529 49.7524 260.1377 49.6904 Z" fill="#333333"/>		<path d="M 360 160.4116 C 360 154.8882 355.5225 150.4116 350 150.4116 L 90 150.4116 C 84.4756 150.4116 80 154.8882 80 160.4116 C 80 165.9351 84.4756 170.4116 90 170.4116 L 339.9277 170.4116 L 339.9277 330.4116 L 59.6582 330.4116 L 59.6582 130.8286 L 249.9297 130.8286 C 255.1299 130.8286 259.4014 126.8579 259.8809 121.7822 C 259.9229 121.4141 259.9482 121.0405 259.9482 120.6611 L 259.9482 90.5371 L 339.6982 90.5371 L 339.6982 120.4946 C 339.6982 126.0171 344.1748 130.4946 349.6982 130.4946 C 355.2217 130.4946 359.6982 126.0171 359.6982 120.4946 L 359.6982 80.4946 C 359.6982 74.9712 355.2217 70.4946 349.6982 70.4946 C 349.4131 70.4946 349.1338 70.5137 348.8555 70.5371 L 250.6592 70.5371 C 249.915 70.5371 249.1924 70.6245 248.4961 70.7783 C 243.665 71.4834 239.9482 75.6323 239.9482 80.6611 L 239.9482 110.8286 L 50.7217 110.8286 C 50.3721 110.7915 50.0176 110.7705 49.6582 110.7705 C 44.1357 110.7705 39.6582 115.2476 39.6582 120.7705 L 39.6582 338.3701 C 39.5215 339.0293 39.4482 339.7119 39.4482 340.4116 C 39.4482 345.9351 43.9268 350.4116 49.4482 350.4116 L 349.4492 350.4116 C 349.8623 350.4116 350.2666 350.3789 350.666 350.3301 C 355.8428 349.9512 359.9277 345.6421 359.9277 340.3677 L 359.9277 162.3677 C 359.9277 162.165 359.9092 161.9673 359.8975 161.7676 C 359.958 161.3232 360 160.873 360 160.4116 Z" fill="#333333"/>	</g></svg>