<?xml version="1.0" standalone="no"?><!-- Generator: Adobe Fireworks CS6, Export SVG Extension by Aaron Beall (http://fireworks.abeall.com) . Version: 0.6.1  --><!DOCTYPE svg PUBLIC "-//W3C//DTD SVG 1.1//EN" "http://www.w3.org/Graphics/SVG/1.1/DTD/svg11.dtd"><svg id="Raichu-Icons.fw-icon-favorite" viewBox="0 0 400 400" style="background-color:#ffffff00" version="1.1"	xmlns="http://www.w3.org/2000/svg" xmlns:xlink="http://www.w3.org/1999/xlink" xml:space="preserve"	x="0px" y="0px" width="400px" height="400px">	<g id="Master%20Page%20Layer26">		<g id="Layer%20152">		</g>	</g>	<g id="Layer%20153">		<path d="M 360.2224 172.0439 C 360.2432 171.937 360.2695 171.8311 360.2869 171.7231 C 361.2458 166.582 358.0688 161.5117 352.9282 160.2056 L 256.9932 132.3901 L 209.5439 55.6025 C 208.7217 53.8833 207.4021 52.3789 205.6414 51.3311 C 204.0281 50.3716 202.2549 49.9297 200.5049 49.9355 C 198.749 49.9263 196.9685 50.3682 195.3494 51.3311 C 193.5874 52.3794 192.2668 53.8853 191.4443 55.6064 L 143.9731 132.4297 L 48.1738 160.2056 C 43.0332 161.5117 39.8562 166.582 40.8152 171.7231 C 40.8325 171.8311 40.8589 171.937 40.8794 172.0439 C 40.9028 172.1494 40.9165 172.2554 40.9434 172.3608 C 40.9478 172.3779 40.9541 172.3936 40.9585 172.4102 C 41.3481 174.0786 42.1621 175.6709 43.425 177.0049 L 114.1753 246.894 L 100.7163 337.6211 C 100.7004 337.6919 100.6941 337.7627 100.6797 337.8335 C 100.252 339.7778 100.3916 341.8667 101.2207 343.8423 C 103.3574 348.9346 109.2185 351.3301 114.3115 349.1924 L 199.8403 310.9873 L 256.7905 348.1924 C 261.8835 350.3301 267.7444 347.9346 269.8813 342.8423 C 272.0188 337.749 269.623 331.8882 264.5303 329.7505 L 206.8604 292.0752 C 206.27 291.585 205.6284 291.167 204.948 290.8257 L 204.5054 290.5366 C 203.2122 289.9941 201.8694 289.7461 200.551 289.7578 C 199.2324 289.7461 197.8899 289.9941 196.5967 290.5366 L 122.9871 323.418 L 134.5664 245.3574 C 135.4829 241.2866 133.772 237.2393 130.5574 234.9795 L 69.6328 174.7964 L 152.4839 150.7739 C 153.6829 150.4692 154.7681 149.9512 155.7271 149.2837 C 157.1218 148.459 158.3359 147.2832 159.2229 145.793 L 200.4951 79.001 L 241.7678 145.793 C 242.7581 147.4575 244.1604 148.7202 245.7632 149.5493 C 246.6243 150.0898 247.5801 150.5103 248.6182 150.7739 L 331.4692 174.7964 L 270.5439 234.9795 C 267.3301 237.2397 265.6191 241.2866 266.5354 245.3574 L 273.3271 291.1401 L 273.5327 292.5264 C 274.5288 296.999 278.5139 300.3452 283.2869 300.3452 C 288.8098 300.3452 293.2869 295.8682 293.2869 290.3452 C 293.2869 290.0493 293.2678 289.7583 293.2427 289.4692 L 293.0598 288.2368 L 286.9268 246.894 L 357.677 177.0049 C 358.9399 175.6709 359.7539 174.0786 360.1436 172.4102 C 360.1479 172.3936 360.1543 172.3779 360.1587 172.3608 C 360.1855 172.2554 360.1992 172.1494 360.2224 172.0439 Z" fill="#333333"/>		<path d="M 352.8752 240.8818 C 347.782 238.7446 341.9211 241.1401 339.7834 246.2329 L 304.6646 324.8516 L 275.6045 303.2993 C 270.9377 300.3472 264.7607 301.7378 261.8081 306.4053 C 258.856 311.0732 260.2468 317.2505 264.9141 320.2026 L 302.0898 347.7734 L 303.2151 348.6079 C 305.4255 350.0137 308.0654 350.4639 310.5527 349.9648 C 313.7754 349.3843 316.6501 347.2412 318.012 343.9966 L 358.2253 253.9727 C 360.363 248.8794 357.9675 243.0186 352.8752 240.8818 Z" fill="#333333"/>	</g></svg>