<?xml version="1.0" standalone="no"?><!-- Generator: Adobe Fireworks CS6, Export SVG Extension by Aaron Beall (http://fireworks.abeall.com) . Version: 0.6.1  --><!DOCTYPE svg PUBLIC "-//W3C//DTD SVG 1.1//EN" "http://www.w3.org/Graphics/SVG/1.1/DTD/svg11.dtd"><svg id="Raichu-Icons.fw-icon-play-bold" viewBox="0 0 400 400" style="background-color:#ffffff00" version="1.1"	xmlns="http://www.w3.org/2000/svg" xmlns:xlink="http://www.w3.org/1999/xlink" xml:space="preserve"	x="0px" y="0px" width="400px" height="400px">	<g id="Master%20Page%20Layer38">		<g id="Layer%20176">		</g>	</g>	<g id="Layer%20177">		<path d="M 289.3926 181.9014 L 169.4546 122.6104 C 169.3442 122.5547 169.23 122.5166 169.1187 122.4634 C 168.6904 122.2588 168.2568 122.0664 167.812 121.8921 C 167.6099 121.8125 167.4067 121.7417 167.2036 121.6694 C 166.7993 121.5264 166.3916 121.3926 165.9771 121.2749 C 165.7192 121.2012 165.4609 121.1377 165.2017 121.0757 C 164.8408 120.9893 164.479 120.9087 164.1104 120.8418 C 163.792 120.7842 163.4736 120.7383 163.1548 120.6963 C 162.8359 120.6543 162.5166 120.6152 162.1934 120.5884 C 161.8311 120.5581 161.4707 120.5439 161.1089 120.5337 C 160.9146 120.5278 160.7246 120.5044 160.5288 120.5044 C 160.416 120.5044 160.3066 120.5195 160.1948 120.521 C 159.853 120.5273 159.5137 120.5493 159.1743 120.5728 C 158.832 120.5957 158.4902 120.6182 158.1528 120.6582 C 157.894 120.6895 157.6387 120.7344 157.3828 120.7754 C 156.9712 120.8408 156.5615 120.9082 156.1587 120.998 C 155.9902 121.0356 155.8252 121.0845 155.6577 121.127 C 155.1846 121.2456 154.7153 121.3711 154.2559 121.5225 C 154.146 121.5591 154.0391 121.6035 153.9297 121.6416 C 153.4302 121.8164 152.936 122.002 152.4556 122.2148 C 152.3516 122.2607 152.2515 122.3154 152.1479 122.3628 C 151.6753 122.582 151.2085 122.8096 150.7563 123.0635 C 150.6133 123.1436 150.4766 123.2354 150.3354 123.3193 C 149.9336 123.5576 149.5356 123.7993 149.1538 124.064 C 148.9648 124.1943 148.7861 124.3398 148.6016 124.4766 C 148.2769 124.7188 147.9517 124.9595 147.6426 125.2202 C 147.4399 125.3911 147.249 125.5771 147.0527 125.7563 C 146.7729 126.0122 146.4922 126.2656 146.2275 126.5371 C 146.0483 126.7207 145.8809 126.917 145.708 127.1084 C 145.4375 127.4077 145.1685 127.707 144.916 128.022 C 144.7832 128.189 144.6597 128.3652 144.5313 128.5371 C 144.2539 128.9067 143.9839 129.2813 143.7324 129.6704 C 143.6445 129.8066 143.5635 129.9492 143.4785 130.0884 C 143.2065 130.5327 142.9482 130.9854 142.7109 131.4517 C 142.6875 131.498 142.6582 131.5391 142.6353 131.5859 C 142.5952 131.6665 142.5674 131.7495 142.5283 131.8301 C 142.3003 132.3027 142.0879 132.7827 141.897 133.2749 C 141.834 133.4365 141.7773 133.5986 141.7188 133.7607 C 141.5605 134.2021 141.4146 134.6484 141.2866 135.103 C 141.2236 135.3286 141.1685 135.5537 141.1133 135.7798 C 141.019 136.1685 140.9326 136.5591 140.8613 136.9561 C 140.8076 137.2529 140.7646 137.5493 140.7256 137.8462 C 140.6807 138.1816 140.6396 138.5176 140.6118 138.8579 C 140.5825 139.2114 140.5688 139.564 140.5576 139.917 C 140.5527 140.1133 140.5288 140.3047 140.5288 140.502 L 140.5288 260.1074 C 140.5288 260.3047 140.5527 260.4956 140.5576 260.6914 C 140.5684 261.0483 140.5825 261.4038 140.6123 261.7607 C 140.6396 262.0928 140.6797 262.4194 140.7227 262.7466 C 140.7637 263.0562 140.8076 263.3643 140.8643 263.6733 C 140.9326 264.0532 141.0156 264.4268 141.105 264.7988 C 141.1646 265.0449 141.2246 265.2905 141.2944 265.5356 C 141.4155 265.9653 141.5537 266.3867 141.7017 266.8042 C 141.77 266.9937 141.8359 267.1826 141.9097 267.3711 C 142.0894 267.8306 142.2876 268.2788 142.5 268.7207 C 142.5483 268.8228 142.5835 268.9272 142.6343 269.0288 C 142.6636 269.0869 142.6997 269.1396 142.7295 269.1973 C 142.9497 269.6279 143.189 270.0454 143.439 270.457 C 143.5435 270.6299 143.644 270.8057 143.7529 270.9741 C 143.9824 271.3276 144.229 271.6675 144.4795 272.0054 C 144.6313 272.21 144.7783 272.4185 144.9365 272.6162 C 145.1626 272.8979 145.4048 273.1655 145.646 273.4346 C 145.8447 273.6567 146.0386 273.8833 146.2461 274.0947 C 146.4829 274.3369 146.7349 274.5625 146.9834 274.792 C 147.2075 274.9985 147.4268 275.2109 147.6587 275.4058 C 147.9424 275.645 148.2412 275.8643 148.5376 276.0874 C 148.7476 276.2441 148.9512 276.4087 149.166 276.5571 C 149.5293 276.8086 149.9087 277.0371 150.2891 277.2646 C 150.4487 277.3594 150.603 277.4634 150.7646 277.5537 C 151.2065 277.8018 151.6626 278.0234 152.124 278.2378 C 152.2373 278.29 152.3467 278.3496 152.4604 278.3999 C 152.938 278.6108 153.4282 278.7944 153.9243 278.9683 C 154.0356 279.0073 154.1445 279.0532 154.2568 279.0903 C 154.7173 279.2422 155.1875 279.3682 155.6616 279.4868 C 155.8276 279.5283 155.9907 279.5767 156.1577 279.6143 C 156.564 279.7051 156.9771 279.7729 157.3916 279.8384 C 157.644 279.8789 157.8945 279.9229 158.1479 279.9536 C 158.4907 279.9946 158.8379 280.0176 159.1855 280.0405 C 159.52 280.0635 159.854 280.085 160.1899 280.0913 C 160.3042 280.0933 160.4146 280.1084 160.5288 280.1084 C 160.7275 280.1084 160.9204 280.0845 161.1177 280.0786 C 161.4756 280.0684 161.8325 280.0542 162.1904 280.0244 C 162.5156 279.9976 162.8364 279.958 163.1572 279.916 C 163.4766 279.874 163.7949 279.8281 164.1138 279.77 C 164.479 279.7041 164.8384 279.624 165.1963 279.5381 C 165.46 279.4746 165.7227 279.4102 165.9854 279.3354 C 166.3916 279.2202 166.7905 279.0894 167.186 278.9497 C 167.4009 278.8735 167.6157 278.7979 167.8286 278.7139 C 168.2563 278.5459 168.6733 278.3604 169.0859 278.1646 C 169.209 278.1064 169.335 278.0635 169.4575 278.0024 L 289.396 218.7119 C 296.5708 215.1338 300.6323 207.8242 300.4458 200.3057 C 300.6304 192.7871 296.5679 185.479 289.3926 181.9014 ZM 180.5288 172.7041 L 236.3662 200.3071 L 180.5288 227.9102 L 180.5288 172.7041 Z" fill="#333333"/>		<path d="M 200.4116 40.0479 C 112.0464 40.0479 40.4116 111.6826 40.4116 200.0483 C 40.4116 224.2432 45.7925 247.1777 55.4058 267.7373 C 55.6245 268.2041 55.8374 268.6738 56.0601 269.1382 C 59.3569 275.6543 66.0977 280.1318 73.8999 280.1318 C 84.9458 280.1318 93.8999 271.1777 93.8999 260.1318 C 93.8999 256.9268 93.1274 253.9087 91.7866 251.2231 L 91.7876 251.2246 C 91.7993 251.2231 91.8086 251.2183 91.8218 251.2178 C 84.4937 235.6938 80.3823 218.3535 80.3823 200.0483 C 80.3823 133.7583 134.1216 80.0195 200.4116 80.0195 C 266.7017 80.0195 320.4409 133.7583 320.4409 200.0483 C 320.4409 266.3384 266.7017 320.0771 200.4116 320.0771 C 182.0874 320.0771 164.7271 315.9644 149.1909 308.6226 C 148.9136 308.4912 148.6323 308.3652 148.356 308.2319 C 145.9897 307.2466 143.396 306.6978 140.6733 306.6978 C 129.6284 306.6978 120.6733 315.6523 120.6733 326.6978 C 120.6733 335.0029 125.7368 342.1226 132.9438 345.146 C 132.9419 345.1494 132.9399 345.1519 132.939 345.1548 C 153.4419 354.7051 176.3013 360.0483 200.4116 360.0483 C 288.7769 360.0483 360.4116 288.4141 360.4116 200.0483 C 360.4116 111.6826 288.7769 40.0479 200.4116 40.0479 Z" fill="#333333"/>		<path opacity="0.098" d="M 149.1909 308.6221 C 148.9126 308.4912 148.6396 308.3506 148.356 308.2319 C 148.6323 308.3652 148.9136 308.4912 149.1909 308.6221 Z" fill="#ed1c24"/>		<path opacity="0.098" d="M 56.0601 269.1382 C 55.8374 268.6738 55.6245 268.2041 55.4058 267.7373 C 55.603 268.2158 55.8276 268.6792 56.0601 269.1382 Z" fill="#ed1c24"/>	</g></svg>