<?xml version="1.0" standalone="no"?><!-- Generator: Adobe Fireworks CS6, Export SVG Extension by Aaron Beall (http://fireworks.abeall.com) . Version: 0.6.1  --><!DOCTYPE svg PUBLIC "-//W3C//DTD SVG 1.1//EN" "http://www.w3.org/Graphics/SVG/1.1/DTD/svg11.dtd"><svg id="Raichu-Icons.fw-icon-feedback" viewBox="0 0 400 400" style="background-color:#ffffff00" version="1.1"	xmlns="http://www.w3.org/2000/svg" xmlns:xlink="http://www.w3.org/1999/xlink" xml:space="preserve"	x="0px" y="0px" width="400px" height="400px">	<g id="Master%20Page%20Layer19">		<g id="Layer%20138">		</g>	</g>	<g id="Layer%20139">		<path d="M 170.2114 60.5464 C 170.105 60.5464 170.002 60.5591 169.8965 60.5625 C 169.7788 60.5581 169.6631 60.5444 169.5444 60.5444 L 50.5444 60.5444 C 50.5103 60.5444 50.4771 60.5493 50.4424 60.5498 C 50.4209 60.5498 50.3999 60.5464 50.3779 60.5464 C 44.855 60.5464 40.3779 65.0234 40.3779 70.5464 L 40.3779 190.5464 C 40.3779 190.5552 40.3794 190.5635 40.3794 190.5718 C 40.3789 190.5835 40.3774 190.5947 40.3774 190.6064 C 40.3774 196.1294 44.8545 200.6064 50.3774 200.6064 L 110.3774 200.6064 C 115.9004 200.6064 120.3774 196.1294 120.3774 190.6064 C 120.3774 185.0835 115.9004 180.6064 110.3774 180.6064 L 60.3779 180.6064 L 60.3779 80.5444 L 160.2114 80.5444 L 160.2114 189.5464 C 160.2114 189.8555 160.2305 190.1602 160.2578 190.4619 C 159.0874 247.6714 122.6675 300.3765 65.9482 319.9199 C 65.521 320.0669 65.0957 320.2158 64.666 320.3594 C 61.1011 321.8877 58.6025 325.4272 58.6025 329.5522 C 58.6025 335.0752 63.0796 339.5522 68.6025 339.5522 C 69.8169 339.5522 70.9756 339.3247 72.0522 338.9282 C 72.0513 338.9287 72.0503 338.9292 72.0493 338.9297 C 72.0503 338.9395 72.0518 338.9492 72.0522 338.9595 C 137.146 316.7231 178.8643 256.2041 180.1504 190.6318 C 180.189 190.2749 180.2114 189.9136 180.2114 189.5464 L 180.2114 70.5464 C 180.2114 65.0234 175.7344 60.5464 170.2114 60.5464 Z" fill="#333333"/>		<path d="M 359.2114 70.5464 C 359.2114 65.0234 354.7344 60.5464 349.2114 60.5464 C 349.105 60.5464 349.002 60.5591 348.8965 60.5625 C 348.7788 60.5581 348.6631 60.5444 348.5444 60.5444 L 229.5444 60.5444 C 229.5103 60.5444 229.4771 60.5493 229.4424 60.5498 C 229.4209 60.5498 229.3999 60.5464 229.3779 60.5464 C 223.855 60.5464 219.3779 65.0234 219.3779 70.5464 L 219.3779 190.5464 C 219.3779 190.5552 219.3794 190.5635 219.3794 190.5718 C 219.3789 190.5835 219.3774 190.5947 219.3774 190.6064 C 219.3774 196.1294 223.8545 200.6064 229.3774 200.6064 L 289.3774 200.6064 C 294.9004 200.6064 299.3774 196.1294 299.3774 190.6064 C 299.3774 185.0835 294.9004 180.6064 289.3774 180.6064 L 239.3779 180.6064 L 239.3779 80.5444 L 339.2114 80.5444 L 339.2114 189.5464 C 339.2114 189.8555 339.2305 190.1602 339.2578 190.4619 C 338.0874 247.6714 301.6675 300.3765 244.9482 319.9199 C 244.521 320.0669 244.0957 320.2158 243.666 320.3594 C 240.1011 321.8877 237.6025 325.4272 237.6025 329.5522 C 237.6025 335.0752 242.0796 339.5522 247.6025 339.5522 C 248.8169 339.5522 249.9756 339.3247 251.0522 338.9282 C 251.0513 338.9287 251.0503 338.9292 251.0493 338.9297 C 251.0503 338.9395 251.0518 338.9492 251.0522 338.9595 C 316.146 316.7231 357.8643 256.2041 359.1504 190.6318 C 359.189 190.2749 359.2114 189.9136 359.2114 189.5464 L 359.2114 70.5464 Z" fill="#333333"/>	</g></svg>