<?xml version="1.0" standalone="no"?><!-- Generator: Adobe Fireworks CS6, Export SVG Extension by Aaron Beall (http://fireworks.abeall.com) . Version: 0.6.1  --><!DOCTYPE svg PUBLIC "-//W3C//DTD SVG 1.1//EN" "http://www.w3.org/Graphics/SVG/1.1/DTD/svg11.dtd"><svg id="Raichu-Icons.fw-icon-harvard" viewBox="0 0 400 400" style="background-color:#ffffff00" version="1.1"	xmlns="http://www.w3.org/2000/svg" xmlns:xlink="http://www.w3.org/1999/xlink" xml:space="preserve"	x="0px" y="0px" width="400px" height="400px">	<g id="Master%20Page%20Layer53">		<g id="Layer%201106">		</g>	</g>	<g id="Layer%201107">		<path d="M 206.0449 41.5562 C 204.3809 40.4722 202.4233 39.9092 200.4365 39.9355 C 202.0059 39.9561 203.5928 40.3418 205.0674 41.1426 L 206.0449 41.5562 Z" fill="#333333"/>		<path d="M 200.4365 39.9355 C 198.4497 39.9092 196.4922 40.4722 194.8281 41.5562 L 195.8057 41.1426 C 197.2803 40.3418 198.8672 39.9561 200.4365 39.9355 Z" fill="#333333"/>		<path d="M 329.3091 96.3574 C 329.1709 96.0732 329.019 95.7964 328.854 95.5259 C 328.8525 95.5229 328.8506 95.52 328.8491 95.5171 C 328.6836 95.2466 328.5049 94.9844 328.3135 94.7295 C 328.3125 94.728 328.3115 94.7266 328.3105 94.7251 C 327.9253 94.2129 327.4878 93.7354 327 93.2988 C 326.9995 93.2983 326.999 93.2979 326.9985 93.2974 C 326.4292 92.7881 325.8008 92.3291 325.1001 91.9487 L 206.0454 41.5566 L 206.0449 41.5562 L 206.0439 41.5557 C 204.3804 40.4722 202.4233 39.9092 200.4365 39.9355 C 198.4497 39.9092 196.4927 40.4722 194.8291 41.5557 L 194.8281 41.5562 L 194.8276 41.5566 L 75.7729 91.9487 C 74.9434 92.3989 74.2109 92.9561 73.5669 93.5835 C 73.2065 93.9346 72.877 94.3086 72.5781 94.7041 C 72.5703 94.7144 72.563 94.7251 72.5552 94.7354 C 72.2603 95.1284 71.9941 95.5391 71.7617 95.9673 C 52.0562 122.561 40.3936 155.4727 40.3936 191.1147 C 40.3936 245.1318 67.1641 292.8916 108.1577 321.8633 C 108.1787 321.8242 108.2026 321.7866 108.2285 321.75 C 110.021 323.4502 112.4365 324.5 115.1025 324.5 C 120.6255 324.5 125.1025 320.0229 125.1025 314.5 C 125.1025 311.2397 123.5352 308.3525 121.1206 306.5273 C 120.8867 306.3662 120.6543 306.2046 120.4214 306.0425 C 84.1328 280.7437 60.3828 238.7065 60.3828 191.1147 C 60.3828 160.3174 70.333 131.8491 87.1846 108.7339 L 200.4365 60.7979 L 313.5557 108.6777 C 330.4346 131.8032 340.4053 160.291 340.4053 191.1147 C 340.4053 268.2285 278.0635 330.7725 201.0332 331.1177 C 200.8076 331.1025 200.5825 331.0835 200.3525 331.0835 C 200.1279 331.0835 199.9087 331.1025 199.688 331.1172 C 194.4766 331.4604 190.3525 335.7847 190.3525 341.0835 C 190.3525 346.6064 194.8296 351.0835 200.3525 351.0835 C 200.4966 351.0835 200.6372 351.0679 200.7798 351.062 C 200.7773 351.0781 200.7734 351.0938 200.769 351.1094 C 288.9609 350.9063 360.3936 279.356 360.3936 191.1147 C 360.3936 155.646 348.8418 122.8823 329.3091 96.3574 Z" fill="#333333"/>		<path d="M 170.5605 249.5 C 170.5605 255.0229 166.0835 259.5 160.5605 259.5 L 160.5605 259.5 C 155.0376 259.5 150.5605 255.0229 150.5605 249.5 L 150.5605 150.5 C 150.5605 144.9771 155.0376 140.5 160.5605 140.5 L 160.5605 140.5 C 166.0835 140.5 170.5605 144.9771 170.5605 150.5 L 170.5605 249.5 Z" fill="#333333"/>		<path d="M 251.0605 249.5 C 251.0605 255.0229 246.5835 259.5 241.0605 259.5 L 241.0605 259.5 C 235.5376 259.5 231.0605 255.0229 231.0605 249.5 L 231.0605 150.5 C 231.0605 144.9771 235.5376 140.5 241.0605 140.5 L 241.0605 140.5 C 246.5835 140.5 251.0605 144.9771 251.0605 150.5 L 251.0605 249.5 Z" fill="#333333"/>		<path d="M 160.7275 209.8335 C 155.2046 209.8335 150.7275 205.3564 150.7275 199.8335 L 150.7275 199.8335 C 150.7275 194.3105 155.2046 189.8335 160.7275 189.8335 L 211.7275 189.8335 C 217.2505 189.8335 221.7275 194.3105 221.7275 199.8335 L 221.7275 199.8335 C 221.7275 205.3564 217.2505 209.8335 211.7275 209.8335 L 160.7275 209.8335 Z" fill="#333333"/>	</g></svg>