<?xml version="1.0" standalone="no"?><!-- Generator: Adobe Fireworks CS6, Export SVG Extension by Aaron Beall (http://fireworks.abeall.com) . Version: 0.6.1  --><!DOCTYPE svg PUBLIC "-//W3C//DTD SVG 1.1//EN" "http://www.w3.org/Graphics/SVG/1.1/DTD/svg11.dtd"><svg id="Raichu-Icons.fw-icon-message" viewBox="0 0 400 400" style="background-color:#ffffff00" version="1.1"	xmlns="http://www.w3.org/2000/svg" xmlns:xlink="http://www.w3.org/1999/xlink" xml:space="preserve"	x="0px" y="0px" width="400px" height="400px">	<g id="Master%20Page%20Layer20">		<g id="Layer%20140">		</g>	</g>	<g id="Layer%20141">		<path d="M 310.2695 80.6875 L 310.2373 80.6875 C 310.2339 80.6875 310.2305 80.687 310.2275 80.687 C 310.2246 80.687 310.2212 80.6875 310.2178 80.6875 L 50.2695 80.6875 C 50.2207 80.6875 50.1738 80.6938 50.1255 80.6948 C 50.0737 80.6938 50.0234 80.687 49.9717 80.687 C 44.4487 80.687 39.9717 85.1641 39.9717 90.687 L 39.9717 290.687 C 39.9717 296.21 44.4487 300.687 49.9717 300.687 C 50.4429 300.687 50.9028 300.6431 51.3569 300.5796 L 127.9717 300.5796 C 133.4946 300.5796 137.9717 296.103 137.9717 290.5796 C 137.9717 285.0571 133.4946 280.5796 127.9717 280.5796 L 59.9717 280.5796 L 59.9717 100.6875 L 300.2275 100.6875 L 300.2275 280.5796 L 189.7119 280.5796 C 185.8291 280.5796 182.4702 282.7974 180.814 286.0313 L 123.8389 343.0059 C 119.9336 346.9116 119.9336 353.2432 123.8389 357.1484 C 127.7441 361.0537 134.0757 361.0537 137.981 357.1484 L 194.5493 300.5796 L 308.8423 300.5796 C 309.2964 300.6431 309.7563 300.687 310.2275 300.687 C 315.7505 300.687 320.2275 296.21 320.2275 290.687 L 320.2275 91.5186 C 320.25 91.2441 320.2695 90.9678 320.2695 90.6875 C 320.2695 85.1641 315.7925 80.6875 310.2695 80.6875 Z" fill="#333333"/>		<path d="M 350.269 40.02 C 350.2534 40.02 350.2383 40.022 350.2227 40.022 C 350.2104 40.022 350.1982 40.0205 350.186 40.0205 L 89.186 40.0205 C 83.6631 40.0205 79.186 44.4971 79.186 50.0205 C 79.186 55.543 83.6631 60.0205 89.186 60.0205 L 340.269 60.0205 L 340.269 250.02 C 340.269 255.543 344.7461 260.02 350.269 260.02 C 355.792 260.02 360.269 255.543 360.269 250.02 L 360.269 50.02 C 360.269 44.4971 355.792 40.02 350.269 40.02 Z" fill="#333333"/>	</g></svg>