<?xml version="1.0" standalone="no"?><!-- Generator: Adobe Fireworks CS6, Export SVG Extension by Aaron Beall (http://fireworks.abeall.com) . Version: 0.6.1  --><!DOCTYPE svg PUBLIC "-//W3C//DTD SVG 1.1//EN" "http://www.w3.org/Graphics/SVG/1.1/DTD/svg11.dtd"><svg id="Raichu-Icons.fw-icon-file" viewBox="0 0 400 400" style="background-color:#ffffff00" version="1.1"	xmlns="http://www.w3.org/2000/svg" xmlns:xlink="http://www.w3.org/1999/xlink" xml:space="preserve"	x="0px" y="0px" width="400px" height="400px">	<g id="Master%20Page%20Layer16">		<g id="Layer%20132">		</g>	</g>	<g id="Layer%20133">		<path d="M 281.1582 59.8979 C 281.1563 59.8965 281.1504 59.8945 281.1465 59.8931 C 281.2676 59.9546 281.377 60.0298 281.4922 60.0952 C 281.3799 60.0313 281.2734 59.96 281.1582 59.8979 Z" fill="#333333"/>		<path d="M 339.6982 349.6934 L 339.6982 129.9917 C 339.6982 126.998 338.376 124.3193 336.292 122.4863 L 257.0098 43.2061 C 255.1855 41.2588 252.5977 40.0356 249.7197 40.0356 C 244.1973 40.0356 239.7197 44.5122 239.7197 50.0356 L 239.7197 128.623 C 239.6582 129.0718 239.6152 129.5264 239.6152 129.9917 C 239.6152 134.1548 242.1602 137.7207 245.7793 139.2261 C 246.9883 139.7456 248.3203 140.0356 249.7197 140.0356 C 250.0127 140.0356 250.3018 140.0166 250.5889 139.9917 L 319.6982 139.9917 L 319.6982 340.1191 L 79.6777 340.1191 L 79.6777 60.0356 L 209.6152 60.0356 C 215.1387 60.0356 219.6152 55.5591 219.6152 50.0356 C 219.6152 44.5122 215.1387 40.0356 209.6152 40.0356 L 70.7393 40.0356 C 70.3906 39.9985 70.0371 39.978 69.6777 39.978 C 64.1563 39.978 59.6777 44.4551 59.6777 49.978 L 59.6777 349.978 C 59.6777 351.0327 59.8438 352.0479 60.1455 353.0024 C 61.3848 357.1191 65.1992 360.1191 69.7197 360.1191 L 329.7197 360.1191 C 335.2422 360.1191 339.7197 355.6426 339.7197 350.1191 C 339.7197 349.9756 339.7041 349.8359 339.6982 349.6934 ZM 259.7197 74.9868 L 305.2959 119.9917 L 259.7197 119.9917 L 259.7197 74.9868 Z" fill="#333333"/>	</g></svg>