<?xml version="1.0" standalone="no"?><!-- Generator: Adobe Fireworks CS6, Export SVG Extension by Aaron Beall (http://fireworks.abeall.com) . Version: 0.6.1  --><!DOCTYPE svg PUBLIC "-//W3C//DTD SVG 1.1//EN" "http://www.w3.org/Graphics/SVG/1.1/DTD/svg11.dtd"><svg id="Raichu-Icons.fw-icon-briefcase" viewBox="0 0 400 400" style="background-color:#ffffff00" version="1.1"	xmlns="http://www.w3.org/2000/svg" xmlns:xlink="http://www.w3.org/1999/xlink" xml:space="preserve"	x="0px" y="0px" width="400px" height="400px">	<g id="Master%20Page%20Layer43">		<g id="Layer%20186">		</g>	</g>	<g id="Layer%20187">		<path d="M 347.5972 100.0376 L 341.1699 100.0376 C 337.9111 99.4341 334.4116 99.2725 330.666 99.4702 C 314.1382 100.3428 297.5298 99.687 279.5166 99.687 C 279.5166 92.6187 279.77 86.5073 279.4639 80.4243 C 278.8301 67.8262 271.5137 59.8955 259.1084 59.7979 C 219.5503 59.4863 179.9868 59.5044 140.4277 59.7764 C 127.2134 59.8677 119.9912 67.6768 119.499 81.0459 C 119.2881 86.7822 119.4639 92.5332 119.4639 99.6875 C 100.7407 99.6875 82.9658 99.6304 65.1914 99.7031 C 62.8936 99.7129 60.7769 99.8223 58.8257 100.0376 L 51.3911 100.0376 C 44.791 100.0376 39.3911 105.4375 39.3911 112.0376 L 39.3911 328.0376 C 39.3911 334.6377 44.791 340.0376 51.3911 340.0376 L 347.5972 340.0376 C 354.1978 340.0376 359.5972 334.6377 359.5972 328.0376 L 359.5972 112.0376 C 359.5972 105.4375 354.1978 100.0376 347.5972 100.0376 ZM 140.0239 80.5273 C 179.354 80.5273 218.6558 80.5273 259.0059 80.5273 C 259.0059 87.0337 259.0059 92.7153 259.0059 99.0386 C 219.1743 99.0386 179.8745 99.0386 140.0239 99.0386 C 140.0239 92.7485 140.0239 87.0664 140.0239 80.5273 ZM 332.2295 120.6064 C 335.311 121.8403 337.7661 124.3159 338.9766 127.4092 C 338.9766 158.2671 338.9766 188.4707 338.9766 219.4722 C 299.3604 219.4722 260.3354 219.4722 220.0947 219.4722 C 218.7915 229.9785 221.0361 243.3916 216.1431 251.5933 C 212.9771 255.1646 208.7139 257.7383 203.8804 258.7876 C 202.1948 258.9985 200.3486 259.0908 198.2778 259.0156 C 195.3652 258.9097 192.9082 258.4873 190.8247 257.8057 C 188.9663 257.0952 187.2256 256.1499 185.6357 255.0059 C 177.021 247.8071 180.2778 232.3359 178.9375 219.9146 C 139.3765 219.9146 100.0771 219.9146 60.1875 219.9146 L 60.1875 131.7461 C 60.1875 126.708 63.3379 122.3784 67.7627 120.6064 C 155.6284 120.6064 243.5264 120.6064 332.2295 120.6064 ZM 60.2744 309.7134 C 60.2744 286.9604 60.2744 263.979 60.2744 240.4624 C 92.5835 240.4624 126.5474 240.7417 155.6436 240.7456 C 157.8203 262.7666 176.3882 279.9692 198.979 279.98 C 200.144 280.0366 201.2881 280.0596 202.3906 280.0474 C 211.1895 279.9468 218.6289 277.042 224.6357 271.6333 C 234.5186 264.4282 241.25 253.1709 242.3906 240.3008 C 274.8643 240.3008 306.5576 240.3008 338.8989 240.3008 C 338.8989 264.5439 338.8989 288.3599 338.8989 312.8765 C 337.0972 317.2378 332.7964 320.3291 327.8047 320.3291 L 72.1875 320.3291 C 66.0562 320.3291 60.9673 315.667 60.2744 309.7134 Z" fill="#000000"/>	</g></svg>