<?xml version="1.0" standalone="no"?><!-- Generator: Adobe Fireworks CS6, Export SVG Extension by Aaron Beall (http://fireworks.abeall.com) . Version: 0.6.1  --><!DOCTYPE svg PUBLIC "-//W3C//DTD SVG 1.1//EN" "http://www.w3.org/Graphics/SVG/1.1/DTD/svg11.dtd"><svg id="Raichu-Icons.fw-icon-international-class" viewBox="0 0 400 400" style="background-color:#ffffff00" version="1.1"	xmlns="http://www.w3.org/2000/svg" xmlns:xlink="http://www.w3.org/1999/xlink" xml:space="preserve"	x="0px" y="0px" width="400px" height="400px">	<g id="Master%20Page%20Layer45">		<g id="Layer%20190">		</g>	</g>	<g id="Layer%20191">		<path d="M 318.5581 308.0308 L 321.3508 284.8081 L 291.0374 256.9282 L 318.5581 308.0308 Z" fill="none"/>		<path d="M 109.5339 272.6479 C 109.3374 272.4502 109.1284 272.2344 108.9263 272.0278 L 74.6658 272.0278 C 63.9207 272.0278 55.1777 263.2847 55.1777 252.5391 L 55.1777 111.2617 C 55.1777 100.5186 63.9207 91.77 74.6658 91.77 L 109.022 91.77 C 111.8164 88.9658 114.8679 86.0952 117.585 83.9395 C 120.3074 81.7744 122.2603 80.2388 123.9895 78.9502 L 70.7754 78.9502 C 54.1392 78.9502 40.645 92.4409 40.645 109.0815 L 40.645 254.7178 C 40.645 271.3633 54.1392 284.853 70.7754 284.853 L 123.9895 284.853 C 121.4709 282.959 118.3704 280.5571 116.1033 278.6338 C 114.0596 276.9219 111.3911 274.521 109.5339 272.6479 Z" fill="#000000"/>		<path d="M 287.5022 238.626 C 287.3308 238.5898 287.1582 238.5679 286.9851 238.5386 C 287.1582 238.5679 287.3293 238.5898 287.5022 238.626 Z" fill="#000000"/>		<path d="M 290.2881 239.4697 C 290.0588 239.3799 289.8298 239.3003 289.6025 239.2217 C 289.8298 239.3013 290.0571 239.3789 290.2881 239.4697 Z" fill="#000000"/>		<path d="M 280.1714 134.0547 L 279.2874 134.2339 C 279.2937 134.2388 279.3005 134.2437 279.3066 134.249 L 280.1714 134.0547 Z" fill="#000000"/>		<path d="M 293.4536 240.8662 C 293.1001 240.6943 292.7529 240.5264 292.4119 240.3711 C 292.7529 240.5278 293.0991 240.6924 293.4536 240.8662 Z" fill="#000000"/>		<path d="M 269.4934 271.519 C 269.8889 271.2051 270.2681 270.9048 270.6228 270.6284 C 272.4124 269.27 274.7734 267.2231 276.6519 265.4043 C 277.1775 264.8906 277.7175 264.3594 278.2617 263.8242 C 278.0354 263.3906 277.8127 262.9619 277.5994 262.5518 C 277.1648 261.7139 276.7388 260.8853 276.3257 260.0601 C 276.2424 259.896 276.1619 259.7324 276.082 259.5698 C 275.9634 259.332 275.8469 259.0938 275.7324 258.8564 C 275.4265 258.2227 275.1357 257.5918 274.8667 256.9644 C 273.7014 254.2446 272.9456 251.584 273.1453 248.9878 C 271.2771 251.0234 268.8872 253.3916 267.0322 255.2349 L 266.835 255.4111 C 265.3159 256.8701 263.4541 258.4829 262.1528 259.478 C 261.6934 259.8315 261.2 260.2275 260.6787 260.6226 C 259.551 261.5161 258.2722 262.5342 257.4556 263.0688 L 255.5864 264.3057 C 252.8633 266.1147 249.47 268.3652 247.114 269.6001 C 242.7947 271.8076 239.4155 273.4224 237.0083 274.4004 C 232.5271 276.2515 228.2644 277.5845 227.1301 277.8965 C 224.21 278.7109 221.1865 279.5503 218.4382 280.0586 C 212.8862 281.0596 212.092 281.1812 206.2942 281.6875 C 205.3074 281.7832 203.9836 281.8618 203.0911 281.8789 C 201.7185 281.9023 200.0701 281.9131 198.4783 281.9131 C 197.5073 281.9131 196.5593 281.9102 195.6948 281.9023 C 194.9673 281.8428 194.1841 281.8022 193.3733 281.7412 C 191.5918 281.6426 189.6724 281.5181 188.177 281.3809 C 185.7705 281.1294 185.2478 281.043 181.1504 280.3501 L 180.3169 280.2056 C 179.5679 280.082 178.676 279.8779 177.832 279.6978 C 177.2358 279.561 176.6584 279.4312 176.239 279.3442 C 173.907 278.8467 172.2002 278.3228 168.8071 277.2856 L 167.4243 276.8652 C 166.3364 276.5195 164.5134 275.8584 162.5273 275.0762 C 161.5298 274.6831 160.364 274.1675 159.2373 273.6816 C 159.0969 273.6221 158.958 273.5649 158.8088 273.5044 C 158.2717 273.2607 157.196 272.749 156.0173 272.1934 C 154.4541 271.4351 150.9329 269.5918 150.1174 269.1294 C 150.0393 269.0835 149.967 269.0352 149.8892 268.9922 C 147.4302 267.5649 143.2998 265.1538 140.8679 263.3501 C 138.7834 261.7964 135.8384 259.5244 133.7534 257.7593 C 132.1948 256.457 130.1467 254.5967 128.8455 253.2969 C 124.2285 248.6104 121.936 245.856 120.8281 244.3701 C 120.7778 244.293 120.6711 244.1631 120.6218 244.0981 C 119.2456 242.3433 117.3733 239.9375 116.2969 238.3096 C 114.4807 235.5444 112.0005 231.7764 110.6997 229.1431 C 110.2917 228.2632 109.812 227.2842 109.3108 226.2656 C 108.5518 224.7422 107.7744 223.1626 107.2644 221.938 C 105.9553 218.8652 104.436 214.6338 103.4761 211.7969 C 102.312 208.2349 101.0063 202.4854 99.9829 196.4165 C 99.9753 196.3208 99.9504 196.2266 99.9404 196.126 C 99.7097 194.7397 98.8901 188.2866 98.9395 181.4346 C 98.9707 176.0303 100.0354 167.709 100.3799 165.002 C 100.7317 162.3774 101.5503 158.5762 102.3892 155.73 C 102.6316 154.9717 102.8774 154.1504 103.136 153.291 C 103.6758 151.5176 104.2864 149.5112 104.8132 148.1089 C 106.1113 144.6387 107.688 140.8687 108.7935 138.5391 C 109.8193 136.4126 111.2495 133.7275 112.2476 132.0483 C 113.7114 129.5889 116.0435 126.0254 118.1804 122.9521 C 118.2297 122.8765 118.2739 122.811 118.3208 122.7466 C 119.6914 120.6875 122.2734 117.5317 125.01 114.5469 C 125.7429 113.7583 126.4771 112.9912 127.2043 112.2441 C 127.4331 112.5781 127.8894 112.7939 128.7053 112.7939 C 131.1067 112.7939 132.0964 109.5376 131.5994 107.938 C 131.7175 107.8291 131.8262 107.7314 131.9404 107.626 C 132.1765 108.2598 132.6145 108.9268 133.4036 109.5156 C 131.1194 116.9536 132.8054 120.3213 134.7373 124.1865 C 135.7141 126.1382 136.7229 128.1548 137.458 131.0708 C 137.7463 132.2158 141.6201 140.5586 145.6099 140.5586 C 146.0447 140.5586 146.625 140.4678 147.2014 140.0991 C 151.2573 146.001 159.7954 149.1445 166.791 149.1445 C 167.1465 149.1445 167.4963 149.1357 167.7542 149.1245 C 168.8254 149.1245 169.5403 149.4458 170.0732 150.1675 C 171.5823 152.2114 172.3374 158.0171 167.3804 174.0645 L 167.0483 175.1484 C 164.981 182.1699 170.7402 188.0439 176.3103 193.7251 C 180.3 197.7959 184.4265 202.002 184.4561 205.8037 C 184.4976 211.1738 183.8413 217.1436 183.1448 223.4639 C 181.8079 235.6221 180.4238 248.1924 183.8276 258.4004 C 186.1479 265.3608 193.6384 269.2183 197.9277 269.2183 C 200.6938 269.2183 201.5864 267.6704 201.8438 267.0083 C 202.6462 264.9253 201.2788 262.2402 197.6655 258.8135 C 198.0918 257.3721 199.4419 254.0483 200.5569 251.3013 C 203.3625 244.3838 205.2825 239.4966 205.7451 236.5688 C 214.2102 235.0396 217.843 225.0845 220.7944 216.9937 C 221.8562 214.0796 222.8604 211.3325 223.9314 209.4214 C 225.3604 206.877 227.3274 205.5493 229.4104 204.145 C 233.0925 201.6602 236.8965 199.0938 236.1821 190.5088 C 236.2966 189.9614 237.0496 188.2866 237.6602 186.9312 C 240.5815 180.4453 242.8245 174.7993 240.6538 171.4429 C 240.0046 170.4395 238.6648 169.2437 235.9639 169.2437 C 230.502 169.2437 221.9033 164.8652 219.2439 163.436 C 218.1431 162.6523 217.7073 161.7905 216.8547 160.1104 L 216.3545 159.1279 C 213.9929 154.605 209.7654 153.6836 206.0374 152.8677 C 203.1968 152.25 200.5144 151.6631 198.7332 149.6108 C 196.5173 147.0664 192.729 145.7793 187.4683 145.7793 C 183.8345 145.7793 180.1094 146.374 177.3801 146.8799 C 177.1594 145.5791 177.25 144.3721 177.333 143.271 C 177.4546 141.6396 177.5691 140.0981 176.478 138.9194 C 175.6379 138.0156 174.3989 137.6479 172.4285 137.7827 C 173.4651 134.3403 173.2458 132.8838 172.563 131.897 C 172.0559 131.1646 171.2615 130.7627 170.3264 130.7627 C 168.6709 130.7627 166.8066 132.021 164.1526 133.9419 C 163.4104 134.48 162.3618 135.2383 161.7529 135.5762 C 159.9534 134.4033 160.0188 133.3379 160.0425 132.9697 C 160.2678 129.3105 167.666 124.2021 170.0842 122.9155 C 170.6003 123.4272 171.3818 124.7114 171.8806 125.5303 C 173.3164 127.8931 174.802 130.3389 177.1802 130.3389 C 177.9692 130.3389 178.7188 130.0547 179.4106 129.4961 C 181.5405 127.7632 181.9402 125.0444 182.3247 122.4131 C 182.7009 119.8486 183.0908 117.2002 184.9902 115.1699 C 185.2639 114.8789 185.4988 114.4702 186.2737 113.1045 C 189.7222 107.0254 191.3845 105.1079 192.0977 104.6582 C 192.8054 105.2354 193.781 105.5254 195.0068 105.5254 C 197.7229 105.5254 202.1863 103.9316 204.1729 101.7583 C 204.873 101.8594 205.5247 101.9111 206.1204 101.9111 C 209.6433 101.9111 210.864 100.1191 211.2795 99.0498 C 212.5315 95.8291 209.8262 91.3965 206.5879 88.4312 C 204.7905 86.7852 203.781 85.7651 203.2148 85.1328 C 203.5078 84.9351 203.8018 84.6714 204.0352 84.3071 C 204.5093 84.938 205.1001 85.6919 205.9724 86.3726 C 208.7085 88.5039 210.9656 89.499 213.0742 89.499 C 214.8323 89.499 216.175 88.8374 217.4727 88.2017 C 218.9563 87.4741 220.4094 86.814 222.5574 86.9966 C 222.9841 87.0547 224.5996 87.6704 225.8999 88.1655 C 229.3345 89.4761 233.6113 91.105 236.4988 91.105 C 237.7065 91.105 238.5842 90.8022 239.2151 90.3364 C 240.8992 91.0879 242.8018 92.0054 245.3457 93.2925 C 245.3333 93.3237 245.3071 93.3467 245.2937 93.3804 C 244.2852 96.0439 248.2322 102.4927 251.1887 106.3633 C 250.4351 106.7998 249.8823 107.4814 249.5854 108.377 C 248.5171 111.6367 251.5313 117.564 253.656 120.3633 C 250.8975 124.3677 245.9016 134.1528 245.7561 134.79 C 244.3115 141.0347 245.5835 146.1787 246.8154 151.1538 C 247.3682 153.3921 247.9419 155.7041 248.28 158.1387 C 249.5854 167.5625 254.9436 168.3203 259.6694 168.9893 C 261.8621 169.2998 264.127 169.6196 266.2063 170.7363 C 267.1338 171.2339 267.7593 172.0879 268.1201 173.3457 C 270.4756 181.5513 261.1052 202.3462 251.5518 219.0718 C 248.2026 224.9287 247.2778 228.3003 248.4644 230.3433 C 248.9116 231.1133 249.8511 232.0342 251.7888 232.0342 C 254.6003 232.0342 258.7595 230.0566 263.1604 227.9673 C 264.0369 227.5488 264.8936 227.1445 265.7131 226.7651 C 265.6716 227.458 265.8062 228.0459 266.1157 228.5586 C 266.4065 229.0439 267.1179 229.8608 268.6113 229.8608 C 272.052 229.8608 278.8342 224.8486 279.7952 223.8745 C 281.8696 221.7705 285.7505 213.1108 284.5894 210.3354 C 284.5313 210.1958 284.4617 210.0654 284.3833 209.9438 C 291.7573 199.7715 298.7715 187.8232 297.6301 180.3848 C 298.0652 180.1772 298.4834 179.897 298.8845 179.5645 C 298.9229 180.5957 298.9482 181.582 298.9482 182.4624 C 298.9482 182.5547 298.9482 182.6626 298.9482 182.7559 C 298.9819 184.1211 298.8452 186.249 298.7234 188.1313 C 298.6572 189.1099 298.6003 190.0635 298.551 191.0391 C 298.4397 193.7871 297.7996 198.1123 296.9692 201.7979 C 296.9512 201.8687 296.9414 201.9375 296.9243 202.0103 C 295.7971 207.375 294.1362 213.1919 292.7034 216.7959 C 292.6604 216.8789 292.6355 216.96 292.5967 217.0449 C 291.6245 219.6514 289.9712 223.4639 288.4189 226.6729 C 287.7356 228.1279 286.4917 230.4028 284.9131 233.0894 C 283.8513 234.9004 282.4258 237.0547 281.0698 239.0054 C 282.2688 238.5654 283.5305 238.335 284.8547 238.335 C 285.1785 238.335 285.4978 238.3662 285.8169 238.3906 C 285.9287 238.3999 286.0422 238.3989 286.1541 238.4111 C 286.4321 238.4395 286.709 238.4907 286.9851 238.5386 C 287.1582 238.5679 287.3308 238.5898 287.5022 238.626 C 287.7578 238.6807 288.0161 238.7495 288.2734 238.8184 C 288.4729 238.8696 288.6704 238.9204 288.8713 238.981 C 289.1135 239.0537 289.3574 239.1377 289.6025 239.2217 C 289.8298 239.3003 290.0588 239.3799 290.2881 239.4697 C 290.5168 239.5547 290.7463 239.6484 290.9778 239.7432 C 291.2461 239.8555 291.5173 239.9688 291.7944 240.0918 C 291.998 240.1812 292.2043 240.2749 292.4119 240.3711 C 292.7529 240.5264 293.1001 240.6943 293.4536 240.8662 C 293.6072 240.9404 293.76 241.0137 293.9158 241.0918 C 294.5388 241.4009 295.178 241.7246 295.856 242.0752 C 296.2568 241.4414 296.6465 240.8135 297.0022 240.2134 C 298.9004 236.9399 300.2417 234.4609 301.1333 232.5864 C 302.6528 229.4546 304.4934 225.2036 305.7039 222.0288 C 307.8228 216.6797 309.6333 209.7026 310.627 204.9321 C 311.4551 201.2227 312.3945 195.7388 312.5557 191.4224 C 312.5913 190.6978 312.6484 189.8369 312.7065 188.9473 C 312.8472 186.8291 313.0039 184.4302 312.9543 182.375 C 312.9509 179.0693 312.6912 174.9019 312.481 171.5493 L 312.4272 170.6846 C 312.2832 168.3677 311.8633 165.271 311.1777 161.4824 L 311.165 161.4141 L 311.1514 161.3462 C 310.489 158.166 309.489 154.1421 308.687 150.9092 L 308.4868 150.1089 C 307.6558 146.6377 306.0176 142.4873 304.7009 139.1509 L 304.3921 138.3711 C 302.8472 134.4546 300.2451 129.2817 296.6587 122.9927 L 296.6406 122.9604 L 296.6221 122.9277 C 294.8164 119.8652 292.2112 116.2769 290.1152 113.3931 L 289.3647 112.3589 C 286.7605 108.8413 282.6875 104.2578 279.1958 100.9067 C 277.3711 99.1396 275.2524 97.1196 273.4946 95.6294 C 270.9919 93.4507 267.761 90.915 265.2412 89.1523 C 263.6553 88.0088 261.2583 86.3594 259.238 85.125 C 257.1865 83.8794 254.2139 82.0977 251.8936 80.8979 C 243.9492 76.8965 241.093 75.8862 234.8364 73.6729 C 231.4329 72.4678 224.9321 70.7002 219.8945 69.8057 C 214.2583 68.8164 209.873 68.2275 202.8303 67.9492 C 201.6387 67.8936 199.9194 67.873 198.7192 67.873 C 197.4587 67.873 195.804 67.9092 194.5034 67.9663 C 192.0281 68.0732 188.7515 68.3252 186.1365 68.6094 C 184.7319 68.7329 178.8027 69.4556 171.9194 71.1216 C 171.1062 71.3247 168.4084 72.0078 166.2664 72.667 C 165.3694 72.9419 164.3005 73.2959 163.2463 73.646 C 162.5159 73.8901 161.791 74.1313 161.1433 74.3379 L 161.0913 74.3545 L 161.0393 74.3711 C 159.8176 74.7876 158.3777 75.3584 157.1077 75.8608 C 156.5938 76.0654 156.0952 76.2627 155.6406 76.4385 L 155.5981 76.4551 L 155.5552 76.4722 C 153.6121 77.2603 151.1985 78.3931 149.0925 79.3945 C 147.9675 79.9277 145.1035 81.3164 142.918 82.6201 C 134.5579 87.5786 133.4629 88.3296 126.1853 94.1157 C 121.9482 97.4785 117.2224 102.3657 114.7817 104.9771 C 113.1809 106.7163 109.2385 111.1152 106.5928 115.0742 C 104.7739 117.7129 102.1646 121.6377 100.2634 124.7842 C 98.9312 127.0474 97.2988 130.124 96.1685 132.4893 C 94.3757 136.2139 92.4609 141.1807 91.7219 143.1416 C 90.9883 145.0513 90.2705 147.4365 89.6355 149.5396 C 89.428 150.2324 89.2275 150.8955 89.0378 151.502 C 87.9741 155.0449 86.9519 159.7612 86.4775 163.29 C 85.7224 169.2759 84.9507 176.0728 84.9338 181.3945 C 84.8809 189.7866 85.9116 197.2246 86.1816 198.7822 L 86.1804 198.7822 C 86.7065 201.9629 88.1475 210.0254 90.1855 216.2266 C 91.2092 219.2793 92.832 223.7813 94.3562 227.3555 C 95.0205 228.9697 95.894 230.7383 96.7375 232.4521 C 97.1853 233.3574 97.6179 234.2363 97.9824 235.0186 L 98.0071 235.0708 L 98.0334 235.124 C 99.696 238.5112 102.2556 242.4399 104.3118 245.5972 L 104.5459 245.9551 C 105.9697 248.1045 107.8801 250.5674 109.5676 252.7168 C 111.6165 255.4565 114.6497 258.8525 118.8352 263.0967 C 120.4163 264.6929 122.7598 266.8301 124.8154 268.5513 C 127.4509 270.7856 131.0254 273.4834 132.4392 274.5391 C 135.3875 276.7393 139.3025 279.0479 142.7505 281.043 C 144.2061 281.9297 148.6372 284.1899 149.958 284.8271 C 150.6165 285.1431 152.6699 286.1289 153.657 286.5317 C 155.2771 287.2578 156.45 287.7559 157.4478 288.1426 C 159.1487 288.7915 161.4316 289.6587 163.2041 290.2368 L 163.2593 290.2568 L 163.3159 290.2729 L 165.1023 290.8145 C 168.3308 291.7969 170.4656 292.4468 173.3552 293.0679 L 173.3916 293.0747 L 173.4294 293.083 C 173.9158 293.1802 174.4587 293.2979 175.0164 293.4199 C 176.0388 293.6431 177.0945 293.8721 178.0642 294.0366 C 182.8538 294.8491 183.7085 294.9922 186.7151 295.3105 L 186.7473 295.3145 L 186.7803 295.3174 C 188.3967 295.4678 190.2351 295.5879 192.0125 295.7026 C 193.02 295.7681 193.9963 295.8311 194.8679 295.8965 L 195.0662 295.9121 L 195.2664 295.9121 C 195.7261 295.9121 196.2161 295.9155 196.7256 295.9194 C 197.3005 295.9253 197.8953 295.9302 198.49 295.9302 C 200.135 295.9302 201.8149 295.9121 203.2251 295.894 C 204.5183 295.8745 206.1877 295.7715 207.7092 295.6187 C 213.6272 295.1118 215.0093 294.9058 220.854 293.8687 C 224.4087 293.2002 227.8184 292.2476 230.8279 291.4087 C 232.239 291.0239 237.1245 289.5273 242.3706 287.3525 C 245.9341 285.8921 250.3811 283.6685 253.4116 282.1216 C 256.5615 280.4731 260.054 278.1641 263.1362 276.123 C 263.7969 275.686 264.4343 275.2637 265.0371 274.8716 C 266.52 273.8809 268.0999 272.626 269.4934 271.519 ZM 280.1714 134.0547 L 279.3066 134.249 C 279.3005 134.2437 279.2937 134.2388 279.2874 134.2339 L 280.1714 134.0547 Z" fill="#231f20"/>		<g>			<path d="M 288.8713 238.981 C 288.6704 238.9204 288.4729 238.8696 288.2734 238.8184 C 288.4714 238.8696 288.6704 238.9204 288.8713 238.981 Z" fill="#231f20"/>		</g>		<g>			<path d="M 291.7944 240.0918 C 291.5173 239.9688 291.2461 239.8555 290.9778 239.7432 C 291.2461 239.854 291.519 239.9707 291.7944 240.0918 Z" fill="#231f20"/>		</g>		<g>			<path d="M 281.0698 239.0054 L 281.061 239.0186 C 282.2629 238.5806 283.5273 238.3408 284.8467 238.3408 C 285.1729 238.3408 285.4951 238.3662 285.8169 238.3906 C 285.4978 238.3662 285.1785 238.335 284.8547 238.335 C 283.5305 238.335 282.2688 238.5654 281.0698 239.0054 Z" fill="#231f20"/>		</g>		<g>			<path d="M 289.6025 239.2217 C 289.3574 239.1377 289.1135 239.0537 288.8713 238.981 C 289.1118 239.0537 289.3586 239.1377 289.6025 239.2217 Z" fill="#231f20"/>		</g>		<g>			<path d="M 290.9778 239.7432 C 290.7463 239.6484 290.5168 239.5547 290.2881 239.4697 C 290.5151 239.5547 290.7463 239.6484 290.9778 239.7432 Z" fill="#231f20"/>		</g>		<g>			<path d="M 273.1487 248.9849 L 273.1462 248.9878 C 272.9458 251.584 273.7014 254.2446 274.8667 256.9644 C 275.1357 257.5918 275.4265 258.2227 275.7324 258.8564 C 274.1084 255.4707 272.9021 252.1787 273.1487 248.9849 Z" fill="#231f20"/>		</g>		<path d="M 288.644 91.5132 C 288.7305 91.5942 288.8208 91.6875 288.9082 91.77 L 326.7764 91.77 C 337.5217 91.77 346.2646 100.5186 346.2646 111.2617 L 346.2646 252.5391 C 346.2646 257.4399 344.4329 261.9116 341.4368 265.3384 C 345.9939 267.7539 350.5337 270.1821 354.9468 272.5571 C 358.6216 267.5635 360.7976 261.3955 360.7976 254.7178 L 360.7976 109.0815 C 360.7976 92.4409 347.3037 78.9502 330.6672 78.9502 L 273.8765 78.9502 C 276.6138 80.9224 279.8486 83.498 282.2202 85.5674 C 284.2224 87.2578 286.7673 89.6968 288.644 91.5132 Z" fill="#000000"/>		<path d="M 297.1082 251.563 C 290.3496 248.3135 286.9995 245.9805 284.5764 245.9805 C 283.6086 245.9805 282.783 246.3491 281.9541 247.186 C 279.0317 250.1069 281.7932 252.8901 286.3403 262.3418 C 298.4949 287.6392 323.2053 331.7329 323.2053 331.7329 L 328.6191 293.8525 L 366.5 288.4395 C 366.5 288.4395 322.4065 263.7295 297.1082 251.563 ZM 318.5581 308.0308 L 291.0374 256.9282 L 321.3508 284.8081 L 318.5581 308.0308 Z" fill="#000000"/>	</g></svg>