<?xml version="1.0" standalone="no"?><!-- Generator: Adobe Fireworks CS6, Export SVG Extension by Aaron Beall (http://fireworks.abeall.com) . Version: 0.6.1  --><!DOCTYPE svg PUBLIC "-//W3C//DTD SVG 1.1//EN" "http://www.w3.org/Graphics/SVG/1.1/DTD/svg11.dtd"><svg id="Raichu-Icons.fw-icon-international-oportunities" viewBox="0 0 400 400" style="background-color:#ffffff00" version="1.1"	xmlns="http://www.w3.org/2000/svg" xmlns:xlink="http://www.w3.org/1999/xlink" xml:space="preserve"	x="0px" y="0px" width="400px" height="400px">	<path d="M 268.8733 117.9861 C 276.4511 130.1851 280.8486 144.5573 280.8486 159.9706 C 280.8486 160.4409 280.8259 160.9079 280.8161 161.3751 C 280.546 176.9992 275.7837 191.5303 267.7535 203.7423 C 253.4084 225.555 228.6796 239.9792 200.5558 239.9792 C 177.0802 239.9792 155.9646 229.9404 141.294 213.9432 C 139.1814 211.65 137.2252 209.2174 135.3958 206.6971 L 103.6003 227.8256 C 109.225 238.0038 115.5073 248.3085 122.1574 258.4543 C 137.5767 282.0122 154.7635 304.6716 169.1053 322.5727 C 187.0505 344.9954 200.5558 360 200.5558 360 C 200.5558 360 216.9418 341.7972 237.6116 315.5148 C 243.6627 307.8276 250.0785 299.4495 256.5626 290.6238 C 275.3378 265.0679 294.6436 235.8339 307.1691 209.0324 C 312.0127 198.6693 315.8406 188.6759 318.2233 179.3897 C 320.004 172.4712 321 165.9452 321 159.9706 C 321 136.3479 314.135 114.3242 302.3126 95.7517 L 268.8733 117.9861 Z" fill="#181512"/>	<path d="M 201.2459 147.1848 C 205.7835 153.5423 217.9705 155.0732 221.6259 150.4251 C 216.2095 147.2336 210.7572 143.9997 205.6012 140.9475 C 206.0894 141.8914 206.8804 143.4386 208.1499 145.9004 C 197.3723 139.8642 196.8645 139.955 192.8055 148.3623 C 195.6569 147.9601 198.2122 147.6033 201.2459 147.1848 ZM 168.1841 117.4902 C 173.6071 126.1213 163.5945 128.3366 160.8765 133.948 C 160.1994 131.6969 159.5224 129.4427 158.8388 127.1916 C 157.9306 127.1624 157.042 127.1495 156.1371 127.1301 C 155.5284 131.2364 153.6535 135.6768 154.6202 139.3712 C 156.1013 144.9793 154.9946 148.1125 150.3203 151.3464 C 144.8095 155.1543 143.3023 171.1222 147.8041 175.6924 C 154.0604 182.04 160.7268 187.9692 167.9823 194.7839 C 166.9081 197.1646 165.4694 200.3499 163.9818 203.629 C 181.735 219.8208 205.7379 223.2622 227.3743 212.4807 C 246.5239 202.9317 259.8567 181.5924 257.7702 161.609 C 255.2215 165.6017 253.4572 168.3555 250.902 172.3678 C 249.8604 161.3883 243.692 156.8311 232.0649 156.3804 C 236.1598 158.6444 238.7313 160.0617 242.1947 161.9722 C 237.5009 165.073 233.9366 167.4311 230.3234 169.8119 C 229.1386 168.4528 228.1491 167.3403 226.4597 165.4265 C 226.9447 171.5601 229.0345 173.3441 234.6364 170.4508 C 233.2172 174.0706 231.658 176.8244 229.8742 179.416 C 228.8066 180.9697 226.0658 182.5914 226.3067 183.6358 C 228.1621 191.2193 221.7561 194.2195 218.1136 198.4134 C 216.0337 200.8136 210.6661 203.7199 209.3608 202.7922 C 206.4442 200.7196 205.0217 196.4479 203.2803 192.9254 C 202.8474 192.0302 203.6286 190.5932 203.6872 189.3964 C 204.0485 180.522 200.6828 177.3239 191.8029 177.1584 C 189.1989 177.1098 186.0838 176.1659 184.1112 174.5539 C 178.0665 169.6043 178.3204 161.1094 183.8573 154.1553 C 185.3448 152.2805 187.2556 149.1927 186.6404 147.5222 C 184.7036 142.245 186.7869 140.6167 191.5685 140.7367 C 190.7353 136.0725 198.3261 129.1604 202.8474 129.1086 C 206.148 129.0729 209.4194 127.7398 214.442 126.5819 C 211.2585 123.7341 209.9499 122.5437 208.9214 121.6225 C 208.0262 123.893 207.1669 126.0695 206.3563 128.1193 C 202.8539 126.4976 200.3345 125.3461 197.0859 123.8411 C 208.1922 111.8854 222.827 122.0831 234.4834 116.8837 C 217.8858 101.7752 187.5778 101.9926 168.1841 117.4902 ZM 267.6656 162.4263 C 267.441 198.7345 237.5659 228.1891 201.5486 227.6378 C 164.711 227.0766 136.5025 197.8231 136.7499 160.4575 C 136.981 125.5115 167.1555 96.4267 202.8181 96.7704 C 238.8745 97.1143 267.8902 126.4976 267.6656 162.4263 Z" fill="#181512"/>	<path d="M 120.1513 160.0177 C 120.1513 151.912 121.372 144.0919 123.6212 136.7225 C 128.1327 121.9287 136.8303 108.9675 148.3402 99.1752 C 162.3631 87.2328 180.5589 80.0059 200.4474 80.0059 C 214.8674 80.0059 228.3987 83.8138 240.0909 90.4501 C 251.819 97.0994 261.6786 106.6224 268.7616 118.0332 L 302.2042 95.7987 C 301.5793 94.8321 300.9608 93.8688 300.313 92.9184 C 299.6555 91.9389 298.9784 90.969 298.2883 90.0187 C 276.4175 59.724 240.7484 40 200.4474 40 C 180.1651 40 161.0513 45.008 144.2747 53.8369 C 121.1441 66.0165 102.4665 85.481 91.3309 109.1718 C 86.8227 118.75 83.548 129.0288 81.7155 139.7941 C 80.6055 146.3688 80 153.1186 80 160.0177 C 80 177.2636 88.167 199.0699 100.2303 221.9012 C 101.2719 223.8798 102.3981 225.8778 103.4918 227.8758 L 135.2841 206.7441 C 125.7793 193.5948 120.1513 177.4647 120.1513 160.0177 ZM 268.8733 117.9861 C 276.4511 130.1851 280.8486 144.5573 280.8486 159.9706 C 280.8486 160.4409 280.8259 160.9079 280.8161 161.3751 C 280.546 176.9992 275.7837 191.5303 267.7535 203.7423 C 253.4084 225.555 228.6796 239.9792 200.5558 239.9792 C 177.0802 239.9792 155.9646 229.9404 141.294 213.9432 C 139.1814 211.65 137.2252 209.2174 135.3958 206.6971 L 103.6003 227.8256 C 109.225 238.0038 115.5073 248.3085 122.1574 258.4543 C 137.5767 282.0122 154.7635 304.6716 169.1053 322.5727 C 187.0505 344.9954 200.5558 360 200.5558 360 C 200.5558 360 216.9418 341.7972 237.6116 315.5148 C 243.6627 307.8276 250.0785 299.4495 256.5626 290.6238 C 275.3378 265.0679 294.6436 235.8339 307.1691 209.0324 C 312.0127 198.6693 315.8406 188.6759 318.2233 179.3897 C 320.004 172.4712 321 165.9452 321 159.9706 C 321 136.3479 314.135 114.3242 302.3126 95.7517 L 268.8733 117.9861 Z" fill="#000000"/></svg>