<?xml version="1.0" standalone="no"?><!-- Generator: Adobe Fireworks CS6, Export SVG Extension by Aaron Beall (http://fireworks.abeall.com) . Version: 0.6.1  --><!DOCTYPE svg PUBLIC "-//W3C//DTD SVG 1.1//EN" "http://www.w3.org/Graphics/SVG/1.1/DTD/svg11.dtd"><svg id="Raichu-Icons.fw-icon-arrow-down-ligth" viewBox="0 0 400 400" style="background-color:#ffffff00" version="1.1"	xmlns="http://www.w3.org/2000/svg" xmlns:xlink="http://www.w3.org/1999/xlink" xml:space="preserve"	x="0px" y="0px" width="400px" height="400px">	<g id="Master%20Page%20Layer39">		<g id="Layer%20178">		</g>	</g>	<g id="Layer%20179">		<path d="M 44.4766 236.7808 C 44.3223 236.1245 44.1748 235.4658 44.0283 234.8066 C 44.0459 235.5098 44.2026 236.1758 44.4766 236.7808 Z" fill="#333333"/>		<path d="M 358.3696 175.7617 C 345.0146 88.4092 263.377 28.4258 176.0273 41.7803 C 88.6768 55.1357 28.6904 136.7715 42.0459 224.123 C 43.8564 235.9609 46.9297 247.292 51.0908 258.0098 C 51.3359 258.6387 51.5796 259.2676 51.833 259.8936 C 52.8965 261.5303 54.8438 262.4893 56.8994 262.1758 C 59.6982 261.7476 61.6196 259.1338 61.1914 256.335 C 61.167 256.1758 61.1113 256.0303 61.0732 255.877 C 60.8975 255.4375 60.7266 254.9946 60.5547 254.5532 C 57.9438 247.8584 55.7983 240.9028 54.1436 233.7251 C 54.1172 233.5747 54.083 233.4268 54.0439 233.2813 C 53.2456 229.772 52.5547 226.2144 52.002 222.6006 C 39.4883 140.7476 95.6982 64.25 177.5488 51.7373 C 259.4014 39.2227 335.8994 95.4307 348.4141 177.2842 C 360.9277 259.1377 304.7178 335.6348 222.8672 348.1479 C 171.7402 355.9653 122.7017 336.9692 90.042 301.6592 C 89.6875 301.2754 89.3408 300.8838 88.9902 300.4961 C 87.9053 299.6045 86.4717 299.1455 84.9746 299.375 C 82.1758 299.8022 80.2539 302.418 80.6816 305.2153 C 80.7861 305.8916 81.0215 306.5137 81.3525 307.0664 C 81.8066 307.5698 82.2578 308.0771 82.7188 308.5742 C 117.5752 346.2031 169.8682 366.4399 224.3877 358.1045 C 311.7393 344.7495 371.7256 263.1138 358.3696 175.7617 Z" fill="#333333"/>		<path d="M 200.1616 99.8027 C 197.3999 99.8027 195.1616 102.041 195.1616 104.8027 L 195.1616 282.7324 L 125.9146 213.4854 C 123.9624 211.5332 120.7964 211.5332 118.8442 213.4854 C 116.8906 215.4385 116.8906 218.6035 118.8442 220.5566 L 196.6255 298.3389 C 196.6479 298.3608 196.6743 298.3755 196.6968 298.397 C 196.9106 298.603 197.1387 298.7944 197.3862 298.96 C 197.5186 299.0483 197.6616 299.1099 197.7993 299.1841 C 197.9478 299.2646 198.0898 299.3545 198.2466 299.4199 C 198.4204 299.4917 198.6006 299.5337 198.7798 299.5854 C 198.9141 299.624 199.042 299.6763 199.1807 299.7036 C 199.5044 299.7681 199.8325 299.8032 200.1616 299.8032 C 200.4902 299.8032 200.8184 299.7686 201.1416 299.7041 C 201.2813 299.6763 201.4097 299.6235 201.5439 299.585 C 201.7227 299.5337 201.9028 299.4912 202.0757 299.4199 C 202.2339 299.354 202.377 299.2637 202.5264 299.1826 C 202.6636 299.1089 202.8052 299.0479 202.936 298.9604 C 203.1885 298.7915 203.4214 298.5977 203.6382 298.3872 C 203.6567 298.3691 203.6787 298.3574 203.6968 298.3389 L 281.479 220.5566 C 283.4316 218.6035 283.4316 215.4385 281.479 213.4854 C 279.5259 211.5332 276.3608 211.5332 274.4082 213.4854 L 205.1616 282.7324 L 205.1616 104.8027 C 205.1616 102.041 202.9233 99.8027 200.1616 99.8027 Z" fill="#333333"/>	</g></svg>