<?xml version="1.0" standalone="no"?><!-- Generator: Adobe Fireworks CS6, Export SVG Extension by Aaron Beall (http://fireworks.abeall.com) . Version: 0.6.1  --><!DOCTYPE svg PUBLIC "-//W3C//DTD SVG 1.1//EN" "http://www.w3.org/Graphics/SVG/1.1/DTD/svg11.dtd"><svg id="Raichu-Icons.fw-icon-computer" viewBox="0 0 400 400" style="background-color:#ffffff00" version="1.1"	xmlns="http://www.w3.org/2000/svg" xmlns:xlink="http://www.w3.org/1999/xlink" xml:space="preserve"	x="0px" y="0px" width="400px" height="400px">	<g id="Master%20Page%20Layer22">		<g id="Layer%20144">		</g>	</g>	<g id="Layer%20145">		<path d="M 350.0757 299.8403 L 50.0757 299.8403 C 44.5527 299.8403 40.0757 304.3174 40.0757 309.8403 C 40.0757 315.3633 44.5527 319.8403 50.0757 319.8403 L 351.0757 319.8403 C 356.5986 319.8403 360.0757 315.3633 360.0757 309.8403 C 360.0757 304.3174 355.5986 299.8403 350.0757 299.8403 Z" fill="#333333"/>		<path d="M 60.5493 272.8794 C 61.6885 277.1494 65.5718 280.2988 70.2007 280.2988 C 71.2456 280.2988 72.2524 280.1372 73.1987 279.8403 L 271.0757 279.8403 C 276.5986 279.8403 280.0757 275.3633 280.0757 269.8403 C 280.0757 264.3174 275.5986 259.8403 270.0757 259.8403 L 80.2007 259.8403 L 80.2007 100.2568 L 320.2422 100.2568 L 320.2422 270.2988 C 320.2422 275.8218 324.7192 280.2988 330.2422 280.2988 C 335.7651 280.2988 340.2422 275.8218 340.2422 270.2988 L 340.2422 90.2988 C 340.2422 87.5283 339.1147 85.0215 337.2944 83.2104 C 335.4829 81.3867 332.9741 80.2568 330.2007 80.2568 L 70.2007 80.2568 C 64.6777 80.2568 60.2007 84.7339 60.2007 90.2568 C 60.2007 90.2637 60.2017 90.2705 60.2017 90.2778 C 60.2017 90.2847 60.2007 90.2915 60.2007 90.2988 L 60.2007 268.3369 C 60.1265 268.8286 60.0757 269.3281 60.0757 269.8403 C 60.0757 270.9004 60.2437 271.9204 60.5493 272.8794 Z" fill="#333333"/>	</g></svg>