<?xml version="1.0" standalone="no"?><!-- Generator: Adobe Fireworks CS6, Export SVG Extension by Aaron Beall (http://fireworks.abeall.com) . Version: 0.6.1  --><!DOCTYPE svg PUBLIC "-//W3C//DTD SVG 1.1//EN" "http://www.w3.org/Graphics/SVG/1.1/DTD/svg11.dtd"><svg id="Raichu-Icons.fw-icon-arrow-down" viewBox="0 0 400 400" style="background-color:#ffffff00" version="1.1"	xmlns="http://www.w3.org/2000/svg" xmlns:xlink="http://www.w3.org/1999/xlink" xml:space="preserve"	x="0px" y="0px" width="400px" height="400px">	<g id="Master%20Page%20Layer10">		<g id="Layer%20120">		</g>	</g>	<g id="Layer%20121">		<path d="M 250.0449 286.4258 L 210.5469 325.9243 L 210.5469 210.0654 C 210.5469 204.542 206.0713 200.0645 200.5469 200.0654 C 195.0244 200.0654 190.5469 204.542 190.5469 210.0654 L 190.5469 326.5903 L 150.3828 286.4258 C 146.4775 282.5215 140.1455 282.5205 136.2402 286.4258 C 132.335 290.3311 132.3359 296.6631 136.2412 300.5684 L 192.8096 357.1367 C 194.8477 359.1753 197.5469 360.1396 200.2178 360.0493 C 200.3086 360.0527 200.3975 360.062 200.4873 360.0625 C 200.5078 360.0625 200.5273 360.0654 200.5469 360.0654 C 200.5576 360.0654 200.5674 360.064 200.5781 360.064 C 200.8975 360.063 201.2148 360.0469 201.5332 360.0156 C 201.6826 360.001 201.8281 359.9727 201.9756 359.9517 C 202.1514 359.9268 202.3271 359.9058 202.502 359.8716 C 202.668 359.8384 202.8281 359.793 202.9922 359.752 C 203.1445 359.7129 203.2988 359.6797 203.4512 359.6338 C 203.6094 359.5859 203.7617 359.5264 203.916 359.4712 C 204.0703 359.416 204.2246 359.3652 204.376 359.3027 C 204.5166 359.2441 204.6514 359.1753 204.7891 359.1108 C 204.9482 359.0361 205.1084 358.9653 205.2637 358.8818 C 205.3916 358.8135 205.5117 358.7354 205.6367 358.6621 C 205.793 358.5693 205.9512 358.4805 206.1035 358.3784 C 206.2344 358.2905 206.3574 358.1924 206.4834 358.0986 C 206.6191 357.998 206.7578 357.9038 206.8887 357.7954 C 207.0938 357.627 207.2881 357.4463 207.4785 357.2622 C 207.5244 357.2188 207.5732 357.1812 207.6182 357.1367 L 264.1865 300.5674 C 268.0928 296.6621 268.0928 290.3311 264.1865 286.4258 C 260.2813 282.5205 253.9502 282.5205 250.0449 286.4258 Z" fill="#333333"/>		<path d="M 274.377 58.291 C 196.0762 17.3311 99.3994 47.6016 58.4414 125.9014 C 29.0537 182.0771 36.334 247.7119 71.709 295.4443 C 71.9658 295.79 72.2266 296.1318 72.4854 296.4746 C 74.3193 298.6123 77.0352 299.9717 80.0732 299.9717 C 85.5967 299.9717 90.0732 295.4951 90.0732 289.9717 C 90.0732 287.5352 89.2002 285.3037 87.752 283.5693 C 87.7598 283.5605 87.7646 283.5508 87.7734 283.542 C 56.8096 241.7715 50.4346 184.3301 76.1514 135.167 C 111.9941 66.6494 196.5928 40.1611 265.1113 76.0029 C 333.6309 111.8457 360.1172 196.4473 324.2744 264.9629 C 320.9482 271.3203 317.1904 277.3037 313.0771 282.9209 C 313.1133 282.959 313.1426 282.998 313.1699 283.041 C 311.3857 284.8467 310.2832 287.3262 310.2832 290.0654 C 310.2832 295.5889 314.7598 300.0654 320.2832 300.0654 C 323.2266 300.0654 325.8643 298.7861 327.6943 296.7627 C 328.1221 296.29 328.5039 295.7764 328.8359 295.2275 C 333.6758 288.6709 338.0908 281.6758 341.9863 274.2285 C 382.9473 195.9297 352.6768 99.252 274.377 58.291 Z" fill="#333333"/>	</g></svg>