<?xml version="1.0" standalone="no"?><!-- Generator: Adobe Fireworks CS6, Export SVG Extension by Aaron Beall (http://fireworks.abeall.com) . Version: 0.6.1  --><!DOCTYPE svg PUBLIC "-//W3C//DTD SVG 1.1//EN" "http://www.w3.org/Graphics/SVG/1.1/DTD/svg11.dtd"><svg id="Raichu-Icons.fw-icon-chat" viewBox="0 0 400 400" style="background-color:#ffffff00" version="1.1"	xmlns="http://www.w3.org/2000/svg" xmlns:xlink="http://www.w3.org/1999/xlink" xml:space="preserve"	x="0px" y="0px" width="400px" height="400px">	<g id="Master%20Page%20Layer3">		<g id="Layer%2016">		</g>	</g>	<g id="Layer%2017">		<path d="M 159.7017 169.6948 C 159.7017 164.1714 164.1787 159.6948 169.7017 159.6948 L 349.7017 159.6948 C 355.2246 159.6948 359.7017 164.1714 359.7017 169.6948 L 359.7017 169.6948 C 359.7017 175.2173 355.2246 179.6948 349.7017 179.6948 L 169.7017 179.6948 C 164.1787 179.6948 159.7017 175.2173 159.7017 169.6948 L 159.7017 169.6948 Z" fill="#333333"/>		<path d="M 250.3584 300.2881 L 179.5767 300.2881 L 179.5767 170.5615 C 179.5767 165.0386 175.0996 160.5615 169.5767 160.5615 C 164.0537 160.5615 159.5767 165.0386 159.5767 170.5615 L 159.5767 311.5615 C 159.5767 317.0845 164.0537 320.5615 169.5767 320.5615 C 170.4653 320.5615 171.3228 320.4619 172.1431 320.2881 L 250.3584 320.2881 C 255.8813 320.2881 260.3584 315.811 260.3584 310.2881 C 260.3584 304.7651 255.8813 300.2881 250.3584 300.2881 Z" fill="#333333"/>		<path d="M 209.7075 230.0615 C 204.1841 230.0615 199.7075 234.5386 199.7075 240.0615 C 199.7075 245.5845 204.1841 250.0615 209.7075 250.0615 C 215.23 250.0615 219.7075 245.5845 219.7075 240.0615 C 219.7075 234.5386 215.23 230.0615 209.7075 230.0615 Z" fill="#333333"/>		<path d="M 310.0601 250.0615 C 315.5825 250.0615 320.0601 245.5845 320.0601 240.0615 C 320.0601 234.5386 315.5825 230.0615 310.0601 230.0615 C 304.5366 230.0615 300.0601 234.5386 300.0601 240.0615 C 300.0601 245.5845 304.5366 250.0615 310.0601 250.0615 Z" fill="#333333"/>		<path d="M 249.915 240.0615 C 249.915 245.5845 254.3916 250.0615 259.915 250.0615 C 265.4375 250.0615 269.915 245.5845 269.915 240.0615 C 269.915 234.5386 265.4375 230.0615 259.915 230.0615 C 254.3916 230.0615 249.915 234.5386 249.915 240.0615 Z" fill="#333333"/>		<path d="M 359.8584 310.4546 C 359.8584 309.9644 359.811 309.4863 359.7432 309.0151 L 359.7432 170.5615 C 359.7432 165.0386 355.2661 160.5615 349.7432 160.5615 C 344.2202 160.5615 339.7432 165.0386 339.7432 170.5615 L 339.7432 300.4546 L 309.8584 300.4546 C 307.9971 300.4546 306.2612 300.9722 304.7686 301.8574 C 303.9756 302.2988 303.2261 302.8481 302.5522 303.522 L 263.2769 342.7974 C 259.3716 346.7026 259.3716 353.0342 263.2769 356.9395 C 267.1821 360.8452 273.5137 360.8452 277.4189 356.9395 L 313.9038 320.4546 L 348.1689 320.4546 C 348.6831 320.5186 349.2061 320.5615 349.7432 320.5615 C 355.0957 320.5615 359.4526 317.2896 359.7178 312.061 C 359.8027 311.5366 359.8584 311.0029 359.8584 310.4546 Z" fill="#333333"/>		<path d="M 117.0503 164.189 C 116.3765 163.5151 115.627 162.9658 114.834 162.5244 C 113.3413 161.6392 111.6055 161.1216 109.7441 161.1216 L 79.8594 161.1216 L 79.8594 60.2305 L 240.0259 60.2305 L 240.0259 170.2285 C 240.0259 175.7515 244.5029 179.2285 250.0259 179.2285 C 255.5488 179.2285 260.0259 175.7515 260.0259 170.2285 L 260.0259 50.2285 C 260.0259 44.7056 255.5488 40.2285 250.0259 40.2285 C 249.9985 40.2285 249.9722 40.2324 249.9448 40.2324 C 249.9297 40.2324 249.9155 40.2305 249.9009 40.2305 L 69.9009 40.2305 C 69.9009 40.2305 69.8994 40.2305 69.8989 40.2305 C 69.8857 40.2305 69.8726 40.2285 69.8594 40.2285 C 64.3364 40.2285 59.8594 44.7056 59.8594 50.2285 L 59.8594 169.6821 C 59.791 170.1533 59.7441 170.6313 59.7441 171.1216 C 59.7441 171.6694 59.7998 172.2031 59.8848 172.7275 C 60.1494 177.9561 64.5068 181.2285 69.8594 181.2285 C 70.3965 181.2285 70.9194 181.1855 71.4336 181.1216 L 105.6987 181.1216 L 142.1836 217.6064 C 146.0889 221.5122 152.4204 221.5122 156.3257 217.6064 C 160.231 213.7012 160.231 207.3691 156.3257 203.4639 L 117.0503 164.189 Z" fill="#333333"/>		<path d="M 209.895 100.7285 C 204.3726 100.7285 199.895 105.2056 199.895 110.7285 C 199.895 116.2515 204.3726 120.7285 209.895 120.7285 C 215.4185 120.7285 219.895 116.2515 219.895 110.7285 C 219.895 105.2056 215.4185 100.7285 209.895 100.7285 Z" fill="#333333"/>		<path d="M 99.5425 110.7285 C 99.5425 116.2515 104.02 120.7285 109.5425 120.7285 C 115.0659 120.7285 119.5425 116.2515 119.5425 110.7285 C 119.5425 105.2056 115.0659 100.7285 109.5425 100.7285 C 104.02 100.7285 99.5425 105.2056 99.5425 110.7285 Z" fill="#333333"/>		<path d="M 149.6875 110.7285 C 149.6875 116.2515 154.165 120.7285 159.6875 120.7285 C 165.2109 120.7285 169.6875 116.2515 169.6875 110.7285 C 169.6875 105.2056 165.2109 100.7285 159.6875 100.7285 C 154.165 100.7285 149.6875 105.2056 149.6875 110.7285 Z" fill="#333333"/>	</g></svg>