<?xml version="1.0" standalone="no"?><!-- Generator: Adobe Fireworks CS6, Export SVG Extension by Aaron Beall (http://fireworks.abeall.com) . Version: 0.6.1  --><!DOCTYPE svg PUBLIC "-//W3C//DTD SVG 1.1//EN" "http://www.w3.org/Graphics/SVG/1.1/DTD/svg11.dtd"><svg id="Raichu-Icons.fw-icon-discover" viewBox="0 0 400 400" style="background-color:#ffffff00" version="1.1"	xmlns="http://www.w3.org/2000/svg" xmlns:xlink="http://www.w3.org/1999/xlink" xml:space="preserve"	x="0px" y="0px" width="400px" height="400px">	<g id="Master%20Page%20Layer52">		<g id="Layer%201104">		</g>	</g>	<g id="Layer%201105">		<path d="M 267.6007 196.9494 C 265.5744 197.1325 263.5525 197.2262 261.5305 197.2262 C 248.201 197.2262 235.2721 193.3789 223.7953 185.961 C 208.1409 175.8335 197.6037 160.8279 194.1031 143.7023 C 190.5849 126.4784 194.4105 108.0629 204.8674 91.8388 C 216.0148 74.5302 234.3414 63.5638 255.1129 61.7427 C 257.0546 61.5732 258.9965 61.4972 260.9292 61.4972 C 274.4282 61.4972 287.682 65.5767 298.7892 73.2403 C 331.3717 95.731 339.3793 135.3069 317.8195 167.3577 C 306.3737 184.3896 288.065 195.1686 267.6007 196.9494 ZM 358.9351 290.6607 L 318.3761 208.5986 C 317.1068 206.0188 314.889 204.2156 312.3638 203.39 L 307.7499 195.0526 C 315.8154 189.3528 322.6873 182.2697 328.2186 173.9634 C 340.0963 156.1015 344.3317 134.6597 340.1319 113.6108 C 335.9366 92.5619 323.8095 74.4095 305.9907 62.497 C 292.7948 53.6911 277.2027 49 261.4503 49 C 259.1523 49 256.8631 49.0937 254.574 49.2811 C 230.1416 51.4238 208.3502 64.3538 194.7579 84.7824 C 170.2275 121.649 180.208 171.656 216.9902 196.2398 C 230.3064 205.1351 245.4842 209.7548 261.2455 209.7548 C 263.6103 209.7548 265.9841 209.6474 268.3713 209.4376 C 275.2698 208.8396 282.0527 207.3491 288.5549 205.019 L 292.7903 212.8075 C 291.7659 215.4053 291.7926 218.4 293.1199 221.1004 L 333.6832 303.1536 C 335.478 306.7822 339.1031 308.8801 342.8753 308.8801 C 344.3986 308.8801 345.9484 308.5363 347.4046 307.8132 L 354.2899 304.4121 C 359.3626 301.8906 361.4468 295.7399 358.9351 290.6607 ZM 204.8764 126.5589 C 204.8319 127.1168 204.7784 127.6923 204.7472 128.2502 C 205.1169 127.7816 205.4865 127.3132 205.8561 126.8356 C 205.8561 126.8356 205.4198 126.6973 204.8764 126.5589 ZM 209.6729 131.3837 C 209.6996 130.6696 209.7308 129.9596 209.7576 129.2367 C 209.7664 129.2413 207.7311 128.0361 206.4841 128.6031 C 205.5132 129.0403 204.9431 128.6701 204.7472 128.4737 C 204.6581 130.3258 204.6626 132.1736 204.765 133.9991 L 205.0279 133.874 C 205.1614 134.4633 205.2995 135.0613 205.4286 135.6548 C 206.0477 136.0522 206.6712 136.4538 207.2768 136.8557 C 207.2768 136.8557 208.5596 136.869 209.2676 136.2888 C 209.9758 135.6952 210.1182 134.517 210.1182 134.517 L 209.7308 133.5349 C 209.7219 132.8163 209.6907 132.1023 209.6729 131.3837 ZM 292.8214 175.9406 C 292.1357 175.9542 291.7704 177.2574 291.2048 177.8244 L 291.1603 177.8911 C 292.3493 177.1815 293.5117 176.4228 294.634 175.6194 C 294.0284 175.4677 293.3336 175.9406 292.8214 175.9406 ZM 284.1369 179.8373 C 283.6916 179.8326 283.4555 179.8373 283.3353 178.4133 C 283.2062 176.9806 282.4135 176.6727 282.4135 176.6727 C 282.4135 176.6727 280.5785 176.387 279.7724 176.3737 C 278.9708 176.3737 278.2805 176.0747 277.7015 176.0703 L 276.8643 175.2309 L 276.076 174.6016 C 275.3812 174.5973 275.1362 173.7135 275.1362 173.7135 C 275.1362 173.7135 274.6553 172.9726 274.7488 172.0844 C 274.8467 171.2095 275.4124 170.7633 275.7552 170.0136 C 276.076 169.2635 275.4703 168.0452 275.2298 167.5942 C 274.9849 167.1436 276.0047 165.6081 276.0047 165.6081 C 276.0047 165.6081 274.9714 166.5231 274.9536 165.7511 C 274.9402 164.9835 273.524 164.6709 273.524 164.6709 C 273.0208 164.8316 272.522 164.9835 272.0143 165.1441 L 270.5 165.2912 L 268.9814 165.4386 L 266.9951 165.4386 C 266.9951 165.4386 265.9574 165.7464 263.7484 166.1839 C 261.5438 166.6259 261.4281 166.474 261.0718 166.474 L 259.9138 166.7686 C 259.9138 166.7686 258.5243 167.0499 258.079 167.4918 C 257.6202 167.9337 257.5267 168.3665 257.0546 168.3575 C 256.5914 168.3532 256.1283 168.4915 255.2153 169.0538 C 254.2979 169.6161 255.2153 169.0538 254.8857 169.6208 C 254.6497 170.0403 254.5339 170.2234 254.2534 170.2367 L 253.8614 170.1741 C 253.269 170.027 253.2602 169.884 252.9039 169.7412 C 252.5476 169.585 252.2002 169.7277 251.7237 169.7144 C 251.2605 169.7011 250.6682 169.6875 250.205 169.6832 C 249.7241 169.6832 249.0115 169.0939 249.0115 169.0939 C 249.0115 169.0939 248.4904 168.0987 247.6621 167.938 C 246.8292 167.7907 246.9806 168.4959 246.9806 168.4959 C 246.9806 168.4959 246.8827 169.2013 246.7847 169.7502 C 246.6912 170.3081 246.2458 170.991 246.2636 171.6827 C 246.2814 172.37 245.3373 172.3433 245.1146 172.8833 C 244.8919 173.4145 244.2995 173.3967 243.6003 173.776 C 242.8967 174.1508 242.291 173.9903 241.8277 174.9098 C 241.3735 175.8245 240.7768 176.4628 240.6654 177.1191 C 240.5541 177.7707 240.0731 178.0028 240.0954 178.7972 C 240.0998 179.5872 240.3582 180.5199 240.3582 180.5199 L 240.2557 181.5466 C 247.1988 184.3896 254.5829 185.8759 262.0515 185.8759 C 263.7351 185.8759 265.4497 185.7956 267.1421 185.6528 C 274.0896 185.0413 280.7389 183.1713 286.827 180.2254 L 286.7513 180.1274 C 286.1856 179.4131 284.5957 179.8373 284.1369 179.8373 ZM 281.2778 139.0694 L 281.6563 139.1231 L 281.6919 139.1321 L 281.2778 139.0694 ZM 247.5507 109.9909 L 247.5418 109.9509 L 247.5552 109.9999 L 247.5507 109.9909 ZM 243.1016 113.9009 L 243.1461 114.0393 L 243.1595 114.0794 L 243.1016 113.9009 ZM 239.7391 98.98 L 238.8841 99.3104 L 238.4564 99.7744 L 237.8375 100.2566 L 237.3297 100.435 L 237.352 100.4126 C 237.7082 99.8325 238.1402 98.7526 238.3986 98.1006 C 238.9151 98.3774 239.4496 98.6722 239.9752 98.9577 L 239.7391 98.98 ZM 306.3203 160.877 C 304.1959 155.6015 301.7508 150.491 299.0164 145.5545 L 298.963 145.4608 C 296.224 140.5289 293.2 135.7888 289.9133 131.2543 L 289.8642 131.1829 C 286.5642 126.6436 282.9924 122.3009 279.1623 118.1945 L 279.1623 118.1901 C 268.6964 106.9335 256.3956 97.4356 242.7275 90.1694 L 242.7097 90.1561 C 239.5966 88.5091 236.4168 86.9694 233.1745 85.5502 L 233.1211 85.5321 C 231.5756 84.8581 230.017 84.2155 228.4448 83.5996 C 225.688 85.6215 223.1138 87.8888 220.7713 90.4149 C 221.7867 90.772 222.8199 91.1246 223.822 91.504 C 224.1382 93.035 224.2673 95.0793 225.256 95.896 C 226.4584 96.8823 226.6946 97.9089 228.436 98.4981 C 230.1684 99.0917 231.215 99.0647 231.5311 99.0961 C 231.8473 99.1227 232.2392 99.9351 232.9073 100.6851 L 233.8203 101.3054 L 233.6243 101.4439 C 233.415 101.5152 233.2992 101.4884 232.845 101.5598 C 232.3862 101.6312 232.1012 101.5732 232.0344 101.7162 L 232.0878 102.1982 L 233.1478 102.466 C 232.6801 102.4079 232.2036 102.3455 231.7404 102.2875 L 231.5044 103.1712 L 232.5643 102.9924 L 231.4687 103.7021 L 231.647 104.5191 C 231.647 104.5191 231.4242 104.9164 232.591 104.9787 C 233.7624 105.0547 234.0919 104.6708 234.3414 104.6708 C 234.5997 104.6575 235.33 103.8718 235.2366 104.2957 C 235.1519 104.6708 235.143 104.7109 235.5483 104.8003 L 235.722 104.8317 C 236.3143 104.9519 234.8535 104.9921 235.3969 105.3849 C 235.9491 105.7819 235.771 105.7376 235.811 106.5543 C 235.8422 107.3667 235.6195 107.4335 235.5483 107.6478 L 235.958 108.3218 L 236.6661 108.1298 C 236.7952 107.9113 237.2763 108.0182 237.7039 108.1031 C 238.1135 108.1967 238.5767 108.1701 238.746 107.4514 C 238.9241 106.7284 239.3204 106.1348 239.3204 106.1348 C 239.3204 106.1348 241.0885 105.9918 241.102 105.3805 C 241.1064 104.7646 240.033 104.7599 240.2289 103.6577 C 240.425 102.564 241.6274 102.698 242.4558 102.4481 C 243.2886 102.1849 243.8675 101.9437 243.8675 101.9437 C 243.8675 101.9437 243.2797 101.6626 243.6939 101.5422 L 244.1392 101.3411 C 244.6826 101.6626 245.2215 102.0017 245.7604 102.3409 C 245.1948 102.5149 244.3931 102.832 244.3931 102.832 C 244.3931 102.832 243.351 102.9435 243.3288 103.5817 C 243.3109 104.22 243.253 104.9787 243.253 104.9787 L 243.5246 105.3179 L 244.313 105.8671 L 245.3907 106.1035 L 246.3838 106.1929 L 246.9806 106.3222 L 247.5774 106.0498 L 247.8045 106.1035 L 248.241 106.1882 L 248.8556 106.4874 L 248.0272 106.7104 L 247.6042 106.8444 C 246.856 106.7104 246.0988 106.5633 245.3506 106.4249 C 245.3506 106.4249 243.5336 106.7237 244.353 107.4202 L 244.6915 107.7906 C 245.0745 108.3172 244.8251 108.7503 244.4154 108.71 C 243.9166 108.6609 243.8899 108.3039 243.8899 108.3039 C 243.8899 108.3039 243.5915 107.371 242.723 107.4781 C 241.8546 107.5808 241.8946 107.6478 242.1485 108.2904 C 242.4023 108.9288 242.0282 108.6743 242.144 108.9288 L 241.997 109.6071 L 241.6051 109.8348 L 241.1999 110.0937 C 241.6986 110.3837 239.8459 110.0535 239.8459 110.0535 L 239.5075 109.5 C 239.5075 109.5 238.5277 109.527 237.9799 109.5851 C 237.4455 109.6517 236.3811 109.7231 236.3811 109.7231 L 236.1851 109.6206 L 235.771 109.4109 L 235.0895 108.969 L 234.0919 109.0582 L 233.4106 108.6162 C 233.2903 108.4154 232.7381 108.5315 233.0542 108.0137 C 233.3616 107.4871 233.3883 107.6121 233.9583 107.4381 C 234.5284 107.2639 234.6442 107.2907 234.5506 107.0409 L 234.132 106.6034 L 234.6308 105.9114 L 233.7223 106.0098 L 233.1077 106.2776 L 232.3105 106.3979 L 232.0211 107.148 L 232.355 108.1567 L 231.678 108.795 C 231.4554 108.7413 231.7538 108.853 230.529 108.9644 L 230.3331 108.9777 C 228.8768 109.0938 229.0059 108.5807 228.3246 109.2232 C 227.6431 109.8572 227.9548 110.0535 227.0018 110.0268 L 226.8817 110.0268 C 226.0755 110.0268 226.267 110.2453 226.0399 110.3704 L 225.2782 110.4865 L 225.2427 110.2276 C 224.824 109.8215 224.2807 110.259 224.8329 109.8305 C 225.3718 109.3974 225.4875 109.5937 225.8216 109.2232 L 226.0488 108.6296 L 224.9041 108.5315 C 224.6993 108.2191 225.0824 108.4244 225.1179 107.8619 C 225.1625 107.2953 225.452 107.2639 225.1491 106.8578 C 224.8464 106.4472 224.5523 106.6034 224.5523 106.6034 C 224.5523 106.6034 225.2694 105.8804 224.5925 105.4832 C 223.9244 105.0903 223.4969 105.2287 223.4969 105.2287 C 223.4969 105.2287 223.577 105.1573 224.4366 104.9787 C 225.3005 104.8179 225.5811 104.2823 225.5811 104.2823 L 224.5168 103.8675 L 223.7329 103.9612 L 224.3609 103.4566 L 225.1224 103.2022 C 224.6771 103.0685 224.2316 102.9435 223.7953 102.8141 C 223.7953 102.8141 223.2831 103.2022 222.7664 103.4344 C 222.2498 103.662 222.0851 103.8405 221.9558 104.1084 L 222.4815 104.5905 L 221.9426 104.9519 L 222.713 105.108 L 221.9558 105.2512 L 222.468 105.3535 L 221.6843 105.7643 L 222.7397 105.7957 C 222.7397 105.7957 223.2074 105.675 223.0247 106.1168 C 222.8376 106.5588 222.9847 106.9782 222.9847 106.9782 C 222.9847 106.9782 223.586 107.2283 222.6551 107.4381 C 221.7243 107.6478 221.7688 107.6612 221.5551 107.6121 L 221.5372 108.3218 L 220.5351 108.2414 L 220.9227 108.7814 C 221.1944 108.8393 221.5507 109.451 222.2587 108.8707 C 222.2587 108.8707 221.7243 109.491 221.181 109.3305 C 220.6332 109.1698 219.9607 109.3036 219.5599 110.0401 C 219.5599 110.0401 220.0409 109.9107 220.7846 110.067 C 221.5238 110.2186 221.4928 110.0803 221.9336 110.1739 C 222.3656 110.2676 222.4325 110.2276 222.9045 110.3304 C 223.3989 110.4374 223.9021 110.4908 224.2673 110.5267 L 225.0556 110.5445 L 224.8998 110.6738 L 224.2673 111.3434 L 223.675 111.7139 C 223.675 111.7139 222.8645 111.8477 222.5973 111.3613 C 222.3344 110.8702 222.232 110.9686 222.1698 111.4505 C 222.1162 111.9414 222.2498 112.0931 221.8401 112.004 C 221.4169 111.9147 220.9895 111.8879 220.9895 111.8879 L 219.8671 111.5176 L 219.2081 112.3746 C 219.1189 112.611 219.7469 112.1201 220.179 112.8385 C 220.6065 113.5571 220.9093 114.1375 220.9049 114.3204 C 220.896 114.5212 220.8647 114.954 220.6911 115.4273 C 220.5129 115.9005 220.2412 117.2171 219.8805 117.1413 L 219.4218 117.1277 L 218.8027 117.2304 C 217.4355 116.7262 216.0682 116.2306 214.7277 115.7397 C 214.7277 115.7397 212.7637 115.6906 213.0398 116.7976 L 212.973 117.1234 C 212.9017 117.3958 212.7771 117.8376 212.5677 118.4042 C 212.2069 119.3817 211.5612 119.5738 211.2672 119.8372 L 210.8264 120.7343 L 210.6216 122.3766 C 210.6216 122.3766 210.4389 122.5463 211.1516 122.7069 C 211.7884 122.8542 211.628 122.9703 211.7884 122.9169 L 211.8685 122.8765 C 212.1847 122.7382 212.826 122.7471 212.7726 123.4924 C 212.7103 124.2288 212.7325 124.3762 213.1155 124.3942 C 213.5075 124.4165 213.4718 123.7203 214.0864 123.8587 C 214.6965 124.0014 214.8792 123.8497 215.556 123.9968 C 216.2242 124.1531 216.6606 124.2559 216.6606 124.2559 L 217.6226 123.7203 C 217.9077 123.8587 218.3619 122.6712 218.7894 122.7606 C 219.2258 122.8675 218.8919 121.4973 219.7514 121.0868 C 220.6198 120.6852 220.9583 120.1003 221.4438 120.203 C 221.9336 120.3235 222.5037 120.1764 222.5037 120.1764 C 222.7799 119.7702 223.0471 119.364 223.3098 118.9579 C 223.3098 118.9579 223.4256 118.0607 224.2183 118.2435 C 225.0067 118.4175 225.6123 119.2122 226.2135 119.2122 C 226.8058 119.2255 227.1177 118.8865 227.4605 118.641 L 227.603 118.4893 C 227.7857 118.2302 227.8257 117.9089 228.6363 118.3062 C 229.6117 118.797 229.9813 118.8731 229.7453 119.6137 C 229.5226 120.3637 229.5271 120.1136 230.0437 120.8146 C 230.5692 121.5377 230.9121 122.1712 231.4287 122.4837 C 231.9409 122.8095 232.6089 122.6268 232.9073 123.9167 C 233.2146 125.2153 233.896 125.7198 233.277 125.7198 C 232.6624 125.7108 233.2413 126.3357 232.2126 126.0903 C 231.1793 125.8492 231.1481 125.9742 230.5068 125.8269 C 229.8654 125.6795 229.5226 125.9428 229.6384 126.2464 L 231.5579 127.8755 L 232.3417 126.8132 L 233.4506 126.5185 L 234.5418 125.8758 L 234.2122 124.6263 C 234.0029 124.3805 234.8 123.7426 235.2099 124.7243 C 235.6195 125.7198 236.5726 125.2465 235.5928 124.0638 C 234.6308 122.8946 234.1588 122.9169 234.0029 122.7382 L 233.9093 122.1132 L 233.0542 121.5777 L 232.9474 120.8146 C 232.9474 120.8146 232.9741 120.4931 232.4797 119.913 C 231.9854 119.3373 231.7672 118.9535 231.7672 118.9535 C 231.7672 118.9535 231.8028 117.7706 232.3595 117.9044 L 233.0408 117.8734 L 233.2635 118.2348 C 233.5709 118.9669 233.8159 119.2836 233.9673 119.4534 C 234.1186 119.6137 234.1766 120.2967 234.6308 120.6003 C 235.0895 120.8993 235.1207 121.2474 235.3523 121.3636 L 236.105 121.6134 L 236.1673 121.6894 C 236.4702 122.0999 236.7864 122.5107 237.0981 122.9169 L 236.7374 124.403 C 236.8131 124.6173 236.7729 125.7822 237.1738 125.8001 L 237.3475 125.8402 L 237.5479 126.4471 C 237.5703 126.8623 237.4455 127.59 237.4455 127.59 L 237.7082 128.42 L 238.3184 128.9868 L 239.3249 129.3661 L 239.4363 128.6922 L 239.7881 128.7057 L 239.4363 127.9245 L 240.1755 128.5318 L 240.6787 128.2236 C 240.4472 127.7683 240.2157 127.3265 239.993 126.8802 L 239.7257 125.8492 C 239.7257 125.8492 239.7881 125.0458 240.0019 125.5724 C 240.1978 126.1036 240.3181 125.9205 240.7411 125.6123 C 241.1731 125.3003 240.4917 125.278 241.1731 125.3003 C 241.8012 125.3269 242.0772 125.1038 242.2642 125.3403 L 242.3177 125.4297 L 243.1817 126.1703 L 243.2262 126.1973 L 243.1817 126.1703 C 243.1327 126.1839 243.0526 126.3134 242.919 126.8176 C 242.7097 127.6567 242.7275 128.0898 242.7764 128.4466 L 243.2664 129.5357 L 243.8899 130.1071 L 244.0501 131.1248 C 244.4599 131.2676 244.8652 131.4193 245.2838 131.5533 L 245.8628 131.763 L 246.4551 131.3435 C 246.4551 131.3435 247.083 131.0801 247.5507 131.7495 C 248.0184 132.4281 247.9337 132.4728 248.7487 132.6022 C 249.5771 132.7358 249.4302 131.8477 249.8665 132.0933 C 250.303 132.3434 250.971 132.4995 251.2961 132.5798 L 251.6258 132.7805 L 251.5856 133.1468 L 251.0646 135.356 L 250.5212 136.1548 L 250.4321 136.1993 C 250.0358 136.3914 249.5993 136.4228 249.4702 136.9628 C 249.341 137.4984 249.3321 137.8555 249.2164 138.333 C 249.145 138.6364 248.8912 139.8193 248.8066 140.9394 C 248.7754 141.551 248.7888 142.149 248.909 142.5685 C 249.2743 143.7337 249.1585 143.055 249.8398 144.6618 C 250.5257 146.2688 249.9823 146.782 250.49 147.6255 C 251.0156 148.4691 251.6525 148.2013 251.6703 149.9241 C 251.6703 149.9241 250.8909 151.9684 251.6168 152.8521 C 252.3383 153.7358 252.7436 153.5527 252.9796 154.9587 C 253.2068 156.378 253.8614 156.6681 254.2132 157.3154 L 254.427 157.927 L 254.2979 158.69 C 254.151 159.2835 253.9015 159.7211 253.8258 160.6049 C 253.7412 161.5018 253.6655 161.8277 253.9105 162.3053 C 254.151 162.7874 253.995 163.091 255.0995 162.9971 C 256.1996 162.9079 255.4914 162.3275 256.6449 162.591 C 257.7984 162.8544 259.3616 162.658 259.3616 162.658 C 259.3616 162.658 259.6511 161.752 260.5374 161.9572 C 261.4147 162.1581 261.5974 161.7073 262.3633 161.5422 C 263.125 161.3635 263.5925 161.4708 263.7796 161.0244 C 263.9711 160.5734 264.4343 160.1229 264.6391 160.172 L 264.7059 160.1853 C 264.8574 160.2253 264.9732 160.2477 265.4453 160.355 C 265.993 160.4844 266.4606 160.6005 266.817 160.6005 C 267.1688 160.6138 266.3894 159.4577 267.2668 159.6541 C 268.1441 159.8505 268.3713 160.0513 268.5939 159.4622 C 268.8121 158.8821 269.7563 158.824 269.7563 158.824 L 269.9389 158.0874 C 269.9879 157.8912 269.7785 156.9986 270.3842 157.1413 C 270.9854 157.284 270.6471 157.2037 271.6179 156.7218 C 272.5887 156.2353 272.7135 155.4186 272.5932 155.0391 L 272.2369 154.3874 L 271.649 153.3207 L 270.5446 152.8521 C 270.2773 152.504 269.8721 152.1245 269.7563 151.6648 L 269.7296 151.272 C 269.7296 150.7544 269.8454 150.0493 269.8454 150.0493 C 269.8454 150.0493 268.0105 151.5354 267.4093 151.6781 C 266.8036 151.8123 265.5032 151.2944 265.1068 151.4238 L 264.8974 151.3614 C 264.4698 151.0757 263.8197 149.8884 263.5925 149.0448 C 263.3208 148.045 263.9087 148.2594 263.3386 147.3352 C 262.9379 146.6927 262.488 145.7866 262.2965 145.135 L 262.2075 144.4835 C 262.3099 144.0057 263.9087 142.6089 264.225 143.7558 C 264.5412 144.9075 264.8707 146.2775 266.1133 147.0766 C 266.1133 147.0766 266.4696 148.3084 267.4315 148.755 C 268.4113 149.1922 269.8944 148.2594 270.2106 148.777 C 270.5268 149.2814 270.1749 150.4777 271.4085 150.9865 C 272.6334 151.4952 273.533 152.2094 274.2054 152.3613 L 274.9669 152.4949 C 275.4703 152.5486 276.1471 152.6424 277.372 152.9815 C 279.2825 153.4993 279.5764 152.8654 279.8036 153.6957 C 280.0263 154.5348 279.6923 155.0794 280.8769 155.3649 L 281.2599 155.5345 C 281.7987 155.9719 281.2243 156.9049 283.3665 156.9315 C 283.3665 156.9315 283.0591 157.6278 281.7855 157.4001 C 282.0616 157.9984 282.3332 158.6053 282.6006 159.1945 C 282.6006 159.1945 283.0458 159.9308 284.0301 159.5917 C 285.0143 159.2702 285.473 157.3511 285.4107 158.7346 C 285.3571 160.1183 284.992 161.8277 284.9341 162.8454 C 284.8718 163.8675 284.9208 164.9743 285.0677 165.6884 C 285.2237 166.407 285.8026 167.5542 285.6021 168.5003 C 285.3973 169.4643 286.1856 170.9731 286.15 171.7541 C 286.1322 172.5441 285.7936 175.1329 286.8937 175.0838 C 287.9849 175.0525 288.2075 174.3295 288.2075 174.3295 L 288.8488 173.8163 C 289.116 173.6066 289.7351 173.5395 289.9266 172.9278 C 290.1226 172.321 289.9711 172.3566 290.1626 171.7407 C 290.3409 171.1071 290.706 171.2675 290.8885 170.6383 C 291.0711 170.0136 290.8841 169.5047 291.0311 169.0136 C 291.1648 168.5003 291.0891 167.3488 291.8595 167.514 C 292.621 167.6746 293.4227 167.1837 293.6231 166.6838 C 293.8324 166.1973 294.4114 166.0545 294.7588 165.7241 L 295.8899 165.0235 L 296.5491 164.4968 L 297.1503 164.0146 L 297.8495 164.0146 C 298.7803 166.3 299.6355 168.612 300.4282 170.9463 C 302.9088 168.652 305.2068 166.1169 307.2778 163.3544 C 306.9615 162.5507 306.6677 161.7473 306.3515 160.944 L 306.3203 160.877 ZM 206.7424 123.1934 C 206.1323 123.2203 205.6423 123.229 205.246 123.2471 C 205.1436 123.9523 205.0501 124.6573 204.9743 125.3627 C 206.6979 124.3942 208.5773 123.113 206.7424 123.1934 ZM 176.6896 85.6528 C 176.7075 85.6393 173.5944 87.9469 175.5985 88.0182 C 177.607 88.0762 176.9925 87.5944 178.2573 87.6387 C 178.7026 87.6524 179.5799 87.5629 180.5643 87.5317 C 180.9517 86.7687 181.357 86.0186 181.7623 85.2686 C 180.7602 85.0589 179.7447 84.8581 179.2593 85.0146 C 178.4176 85.2686 176.6896 85.6528 176.6896 85.6528 ZM 86.8919 304.8987 C 62.4907 280.3639 49.0586 247.7461 49.0586 213.0576 C 49.0586 206.7864 49.5084 200.5827 50.3635 194.4857 L 50.8579 194.8829 C 51.6506 195.4587 50.8222 195.0883 51.5349 196.4586 C 52.2786 197.8288 52.862 197.1057 54.2782 198.8954 C 55.6811 200.6807 59.3999 202.609 60.2149 204.6351 C 61.0254 206.6304 61.2169 206.7954 60.9631 207.6078 C 60.7092 208.4245 59.8898 208.8396 61.2169 209.6474 C 62.5307 210.4955 66.5346 212.9058 67.6524 213.0086 C 68.7657 213.1602 70.8768 213.5618 70.8768 213.5618 C 70.8768 213.5751 75.4506 215.4453 77.3122 215.9943 C 79.1559 216.5657 78.5058 216.5344 80.3985 216.8512 C 82.2913 217.1816 85.0659 218.0921 85.2351 217.6099 C 85.4088 217.1237 86.2729 216.6281 87.4798 216.8468 C 88.6955 217.1013 91.8576 218.748 92.5391 218.9268 L 93.3764 219.1588 C 94.2047 219.391 95.4427 219.6945 96.6676 219.9177 C 97.6295 220.0873 98.5692 220.2077 99.2818 220.221 C 101.3037 220.2615 100.6268 220.4488 102.6398 220.4711 C 103.1386 220.4845 103.4548 220.5245 103.664 220.5782 L 103.9625 220.712 C 104.2296 220.904 104.2029 221.1451 104.9823 221.3011 C 105.9131 221.4932 107.0398 221.7074 107.7882 221.8324 L 108.327 221.9171 L 108.4962 221.935 L 108.6521 221.9752 L 109.0084 221.9081 L 108.946 221.8905 C 109.6675 221.9485 110.4558 222.3634 110.3667 222.9615 C 110.2598 223.6533 111.7295 224.0014 111.6226 222.984 C 111.5559 222.4483 111.3332 222.3634 111.2307 222.301 L 111.213 222.2116 L 111.4089 222.0422 L 111.6405 222.0778 C 112.5001 222.1849 113.4086 222.2429 113.1502 222.0912 L 113.0388 221.4886 L 113.0388 220.8549 C 113.5288 220.6942 114.277 220.5379 114.4195 221.0334 C 114.5933 221.6449 114.4595 222.3366 114.3838 222.6939 C 114.3171 223.0463 114.9984 223.341 115.0519 223.8273 C 115.092 224.2605 114.188 228.6611 114.1478 229.0139 C 114.1078 229.3174 113.8539 230.8838 112.883 231.3793 C 111.921 231.8838 111.5959 231.8838 111.5337 232.754 C 111.4935 233.6377 111.8631 233.3165 111.4935 233.6377 L 111.3599 233.7674 L 110.34 234.9678 C 110.0105 235.0482 109.2579 235.0929 109.3647 236.3828 C 109.4671 237.6727 108.9327 238.0786 108.7234 238.3911 C 108.5097 238.7124 108.2468 238.9669 108.1845 240.2478 C 108.1176 241.5378 107.9039 243.0597 108.7947 242.4305 C 109.7032 241.8102 108.8793 243.3456 108.719 243.9168 L 108.2023 244.5595 C 107.9218 244.9923 107.6055 245.876 107.4185 248.273 C 107.365 248.8173 106.5901 250.317 107.5209 250.4466 C 108.4561 250.5893 108.9817 251.0713 109.4671 252.7854 C 109.9571 254.4991 110.4915 256.173 110.5627 258.1591 C 110.6117 260.1453 111.8364 261.7119 112.2284 262.7564 C 112.6068 263.7919 112.8475 264.8674 112.8475 264.8674 C 112.8607 264.8674 112.9676 266.5411 114.3973 267.849 C 115.8492 269.1789 116.8511 270.0716 117.7731 270.6609 C 118.6949 271.2412 120.6055 270.9597 121.2246 272.1112 C 121.8392 273.2584 122.6453 274.8518 123.2197 275.0572 L 123.5538 275.2936 L 124.36 276.0166 C 124.5425 275.5614 125.175 285.3273 125.1928 288.4604 C 125.1526 291.6428 125.8207 301.0202 125.8429 300.98 C 125.8341 300.9933 126.9162 305.8004 126.1103 305.1441 C 125.2952 304.497 126.5333 306.7064 126.7559 307.6258 C 126.9786 308.5496 127.1746 308.4605 127.2191 310.268 C 127.2725 312.0758 127.5442 314.7313 127.5844 315.5884 C 127.6066 316.4854 127.571 320.4892 127.5799 320.4712 C 127.5799 320.4712 126.1904 320.2257 127.1434 321.7254 C 128.0921 323.2161 129.829 324.0507 129.7843 325.0909 C 129.7309 326.1217 128.5017 327.0277 129.4594 328.0455 C 130.3946 329.0586 129.9893 330.3218 130.6706 330.3305 C 131.3654 330.3351 130.6172 331.0447 130.9958 332.2007 C 131.3699 333.3345 131.7929 333.7583 132.1537 333.4682 C 132.5323 333.1781 132.0736 332.2944 131.9177 331.4286 C 131.7662 330.594 131.7217 329.7146 132.2339 329.9467 C 132.7416 330.2011 133.2048 331.3616 133.2181 331.665 C 133.2448 331.9732 133.4898 332.8879 133.7436 333.754 C 133.8862 334.2448 133.9396 334.7581 133.9575 335.1243 C 116.4726 328.7284 100.4442 318.512 86.8919 304.8987 ZM 279.8169 233.5262 C 277.8039 228.9869 277.8039 224.0997 279.6655 219.3553 C 276.4367 219.998 273.1588 220.4574 269.8721 220.7477 C 267.1776 220.9843 264.4431 221.1048 261.7665 221.1048 C 248.6195 221.1048 235.7576 218.2348 223.8842 212.7585 L 223.7686 213.3924 C 223.7463 214.0127 223.7329 214.1377 223.7017 214.8873 C 223.6617 215.6417 223.7017 214.8873 223.3455 215.9855 C 222.9847 217.0967 223.3455 215.9855 223.154 216.8512 C 222.9535 217.7215 224.1292 218.427 224.1292 218.427 L 224.1916 218.5249 L 224.6904 219.199 C 225.256 219.989 226.601 219.6945 226.601 219.6945 C 226.2402 220.4174 227.0285 220.9306 227.4605 221.1315 L 227.7188 221.2521 C 227.7188 221.2521 228.2577 222.2696 228.8233 222.6714 C 229.389 223.0687 229.2419 223.3141 230.0882 223.9613 C 230.6092 224.3764 230.9433 225.0415 231.1348 225.5011 L 231.3084 225.9832 L 231.255 227.4473 C 231.2372 227.8131 232.2259 228.4603 232.6357 228.8308 C 233.0542 229.2147 233.3349 229.344 234.3056 229.8619 L 234.8535 230.2321 C 235.2944 230.6073 235.3835 230.9778 235.8022 231.3526 C 236.3544 231.8615 238.7682 233.7047 238.7682 233.7047 C 238.7682 233.7047 240.2379 234.5573 241.289 235.4008 C 242.3401 236.2444 242.7364 235.7712 242.7364 235.7712 L 243.0793 235.7312 L 244.2106 235.5614 L 245.9252 234.8875 C 246.317 234.8964 246.856 234.3296 248.2632 234.3473 C 249.6572 234.3743 250.0358 234.3876 251.1581 234.401 C 252.2803 234.4232 251.6525 234.7491 252.3873 235.1062 C 252.8193 235.3203 253.2602 235.2803 253.5408 235.2266 L 253.8704 235.133 C 254.2846 234.9811 254.6987 234.8428 255.1085 234.6911 L 256.4401 234.2582 C 256.8141 234.0395 257.5401 233.5932 258.1369 233.5976 C 258.7292 233.6109 258.8629 233.044 259.5665 233.0574 C 260.2746 233.071 260.2879 232.397 260.2879 232.397 L 260.6799 232.3343 C 261.1609 232.2677 261.9358 232.1604 262.39 232.0936 L 262.4792 232.0936 C 263.156 232.0043 263.9354 232.1156 264.8172 232.1337 C 265.7392 232.156 265.6188 232.5934 266.8615 233.5039 C 268.0996 234.4099 267.0842 234.3966 266.955 235.4008 C 266.8303 236.3961 267.2845 236.2845 268.0774 236.2978 C 268.8745 236.2978 269.6629 235.8605 270.3352 235.8692 C 271.0122 235.8692 272.5665 235.2177 272.5665 235.2177 L 272.5887 235.2446 L 273.3414 236.3334 C 273.3414 236.3334 273.8938 236.7754 274.6463 238.0922 C 275.1942 239.034 274.9581 239.5829 274.6909 240.056 L 274.4058 240.6227 C 274.2499 241.0469 274.0496 241.7342 273.9248 242.3368 L 273.8224 243.1402 C 273.8136 243.7961 273.0252 244.3407 272.7803 245.9967 C 272.5665 247.3803 274.4637 249.8394 276.1873 251.5625 L 277.1448 252.4595 C 277.5813 252.8434 277.8752 253.2896 278.0979 253.7495 C 278.3784 254.325 278.5298 254.9457 278.6324 255.566 C 278.806 256.6194 278.8549 257.6859 279.1623 258.5519 C 279.8169 260.3417 280.9348 260.5515 280.2578 260.5648 C 279.5898 260.5648 280.0039 263.2786 280.672 263.7249 C 281.3357 264.1757 281.5494 266.9116 280.142 269.0229 C 278.9441 270.8303 277.657 275.1286 277.1226 277.8915 C 277.0334 278.3376 276.9666 278.7305 276.9265 279.0786 C 276.6015 281.453 281.1841 289.7636 281.2198 289.8262 C 281.2198 289.8262 281.3178 290.3173 281.4558 291.0803 C 277.8307 295.9187 273.8491 300.5291 269.5069 304.8987 C 245.1279 329.4111 212.6924 342.917 178.2039 342.917 C 168.1298 342.917 158.2384 341.7611 148.6587 339.5115 L 149.1887 339.2527 C 149.9502 339.043 150.1239 339.5829 150.1729 338.2976 C 150.2308 336.9811 149.4514 337.0972 148.3871 337.2175 C 147.3272 337.338 146.3562 337.2666 145.8663 336.4276 C 145.3764 335.5884 145.6748 334.6824 147.0598 334.41 C 148.4538 334.1422 148.7701 333.2897 148.7701 332.9373 C 148.7789 332.5845 147.4785 332.5712 148.7967 331.6473 C 150.1195 330.7099 151.2285 330.4288 150.1284 330.0984 C 149.0284 329.7683 147.2024 330.027 147.1045 329.4023 C 147.0108 328.8085 144.3477 327.5812 146.8105 327.4653 C 149.2778 327.3402 150.1729 328.1792 150.8988 327.3983 C 151.6293 326.6039 152.1503 326.4655 151.4467 325.6441 C 150.7608 324.8318 149.113 323.5419 150.1507 323.4348 C 151.2107 323.3723 156.2076 323.3858 157.6505 321.8057 C 159.1069 320.2524 159.3295 319.5205 159.3741 318.4583 C 159.4096 317.4048 158.795 317.7487 158.0158 316.7755 C 157.2364 315.7892 159.7837 315.2892 158.1627 314.852 C 156.5549 314.4055 155.0897 314.5485 155.0051 313.8029 L 155.2411 313.379 C 155.6241 313.2897 156.448 313.4818 157.7931 313.5128 C 159.8372 313.5488 159.9977 314.709 161.8147 313.9102 C 163.6138 313.1023 164.5847 313.0352 165.2795 312.0131 L 165.3329 311.933 C 166.0189 310.8483 166.6467 308.0053 166.856 306.6885 C 167.0788 305.3362 167.9605 303.6 167.9605 303.6 C 167.9605 303.6 168.691 303.966 168.2055 305.1801 C 167.7111 306.376 168.5751 305.3004 169.3412 303.3903 C 170.0983 301.4932 169.9334 300.9489 171.194 299.7257 C 172.4364 298.5028 172.5968 298.2127 171.9242 296.8694 C 171.234 295.5435 169.9024 294.3073 170.8777 293.1468 C 171.8708 291.9776 173.3851 289.8262 174.0397 289.1167 C 174.7122 288.3846 176.8099 286.0949 177.7229 286.2331 C 178.7116 286.3581 180.6221 286.2868 180.6622 286.0233 C 180.7157 285.7512 180.1233 284.7291 180.9384 284.6801 C 181.7266 284.6264 181.7533 284.0195 181.7533 284.0195 C 181.8335 283.2338 181.9092 282.4574 181.9716 281.6807 C 181.985 281.6718 182.5416 280.2258 182.5149 279.5518 C 182.4837 278.8778 182.5149 278.1992 182.4704 277.2754 C 182.4348 276.3381 182.8668 276.5435 182.8623 275.2936 C 182.8668 274.0484 182.6663 269.0628 182.5549 267.2508 C 182.4481 265.4343 183.0226 266.6795 183.183 267.1347 C 183.3522 267.5989 183.1295 266.8625 183.4412 265.7957 C 183.7352 264.7424 183.5748 264.3721 183.7219 263.8945 C 183.8822 263.4213 184.1761 263.2517 184.6169 262.7564 C 185.049 262.2519 185.3875 261.6359 185.3074 259.8151 C 185.2271 258.0031 185.1246 257.0342 184.8664 255.8247 C 184.6169 254.5928 185.196 254.2314 184.5725 253.7495 C 183.9134 253.2762 184.1093 254.0663 183.134 252.4862 C 182.1141 250.8885 181.5574 249.8751 181.2546 249.4155 C 180.9472 248.9423 179.8606 247.0721 179.2772 246.7331 C 178.7026 246.3939 178.4309 246.2868 177.7718 246.0101 C 177.0994 245.7289 176.507 245.8136 175.9726 245.3094 C 175.4426 244.8228 174.3738 243.3633 173.0243 244.3987 L 172.5433 244.8005 C 172.5478 244.3273 172.5567 243.5863 172.4899 243.0865 C 172.3964 242.2964 172.3296 242.2698 170.9133 241.2433 C 169.4837 240.2345 168.593 239.5562 167.8225 239.1411 C 167.0386 238.7168 166.3261 238.8375 165.9475 239.2034 L 165.4621 239.6409 C 165.7337 239.3465 165.952 238.9403 165.7784 238.4894 C 165.422 237.5877 164.754 237.512 164.1394 237.3826 C 163.5426 237.2529 162.1174 236.8066 162.1174 236.8066 C 162.1174 236.8066 161.1555 235.8829 162.1709 235.7265 C 163.173 235.5748 163.3199 235.4587 163.1507 234.7224 C 162.9682 233.9771 163.3912 234.6197 162.0907 233.66 C 160.7903 232.7095 161.2846 232.6112 160.9284 231.8078 C 160.5766 231.0045 159.8149 229.7369 159.8149 229.7369 L 159.1692 229.3127 L 158.8976 229.1343 C 158.8976 229.1119 155.7711 227.0411 155.0051 226.9473 L 154.7156 226.8893 C 153.9585 226.6972 152.9209 226.2377 151.8653 226.0946 C 150.6628 225.9342 149.79 225.8269 149.79 225.8269 L 149.6385 225.7021 C 149.2154 225.3673 148.0575 224.4746 147.4963 224.4657 C 146.806 224.4076 146.2494 222.4483 145.0023 222.4036 L 144.8865 222.3947 C 143.6707 222.2742 142.5172 221.8191 142.5172 221.8191 C 142.5172 221.8191 144.0226 221.4753 143.5371 221.1674 C 143.0561 220.8683 142.9625 221.0648 141.9249 220.672 C 140.8738 220.2747 139.235 219.8015 140.5977 219.9309 C 141.9561 220.065 141.6487 219.9219 141.6487 219.9219 C 140.4819 219.7302 139.324 219.5248 138.1705 219.3373 C 138.1705 219.3283 137.2932 219.7614 136.6296 219.8015 C 135.9749 219.8195 135.6052 219.199 134.4962 219.1009 C 133.3874 219.0071 133.2315 219.2882 132.1938 219.199 C 131.1606 219.1232 131.3833 218.6143 131.3833 218.6143 C 131.3833 218.6143 131.2497 218.1815 130.7108 218.1321 C 130.1585 218.0741 128.8403 217.9581 128.2925 217.9047 C 127.7491 217.8377 125.5045 218.3508 126.0434 219.0205 C 126.5823 219.6542 126.9786 220.3551 126.1814 220.3238 C 125.3887 220.297 124.5559 220.1006 124.8142 219.422 C 125.0859 218.7348 126.3818 218.3866 126.0344 217.9359 L 125.8296 217.4805 L 126.2438 217.302 C 126.7516 217.2128 127.3483 217.11 127.3483 217.11 C 127.3483 217.1013 128.1856 216.7842 127.0588 216.7755 C 125.9455 216.7709 125.9455 216.7709 125.3887 216.9806 C 124.8365 217.1994 124.4401 217.4582 123.6652 217.3957 C 122.8813 217.3244 122.5919 217.5075 122.436 217.7573 L 121.8525 218.1458 C 121.8525 218.1458 121.8926 217.1816 121.3448 217.4538 C 120.7837 217.7349 119.4654 217.7039 119.2917 218.3375 C 119.1225 218.9715 118.8776 219.9355 118.8776 219.9355 C 118.8776 219.9355 116.7087 220.0335 116.486 221.1048 C 116.2588 222.1535 114.9183 222.9213 114.9228 222.9303 C 114.9183 222.8945 116.9714 220.8683 115.7778 220.1898 C 114.5798 219.4801 114.8693 219.199 113.6579 219.2703 L 112.8742 219.4846 L 112.1081 218.8777 C 111.6226 218.516 111.1239 218.2215 111.1239 218.2215 C 111.1239 218.2215 110.2733 217.8063 107.7347 217.7305 L 107.1067 217.2977 C 106.7638 217.2841 106.7638 217.0119 106.1091 216.9939 C 105.49 216.9672 104.5727 216.6058 104.4034 216.7979 L 104.4791 217.82 C 103.5528 217.909 103.1653 217.9983 102.4528 217.82 L 101.9851 217.7349 C 101.1167 217.6546 100.2304 217.878 100.3862 217.6546 L 100.6 217.4448 C 101.4729 216.7979 101.317 217.3645 101.758 216.4449 C 102.2168 215.4855 101.6422 215.7221 102.3547 214.6957 C 102.7066 214.1957 102.9293 213.9992 103.005 213.8119 C 103.0896 213.6022 103.0094 213.4057 102.8001 212.7585 C 102.3814 211.4951 102.6486 211.1784 103.1787 210.5581 C 103.7086 209.9599 105.1873 208.6656 102.0474 208.5585 C 98.9076 208.4515 94.2091 208.2014 94.7212 209.777 C 95.2334 211.3257 95.1712 212.0444 94.2313 212.5307 C 93.2738 212.9949 92.9711 213.3476 93.3317 213.6377 C 93.6836 213.9278 93.6257 214.5348 92.1694 213.7986 C 90.7041 213.0485 90.0094 214.1957 87.7693 214.0884 C 85.5157 213.9992 86.3485 212.9949 84.7675 212.9148 C 83.1954 212.8255 83.6051 213.0086 82.4338 211.9284 C 81.2714 210.8079 79.5791 210.2723 78.8398 208.4245 C 78.0827 206.5857 77.9579 203.4927 77.6462 201.5021 C 77.3256 199.5292 78.2741 199.565 78.1807 198.7616 L 78.1539 198.0386 C 78.1539 197.2932 78.2252 196.3915 78.1227 195.5168 C 77.9714 194.334 77.7531 193.3298 80.1715 192.678 C 82.6031 192.0131 81.8861 192.7719 82.9861 191.357 C 84.0905 189.9287 81.4051 189.4555 85.4222 189.6295 C 89.4616 189.7993 88.9762 189.777 90.4993 189.8394 C 92.0313 189.8929 92.6949 189.1031 93.7058 189.9554 C 94.708 190.8035 95.4829 191.7585 96.7789 190.8748 C 98.0704 190.0001 97.6607 188.6836 97.6607 188.6836 C 97.6607 188.6836 96.1287 186.8491 100.9652 187.9335 C 105.7929 189.0271 105.5524 186.2554 106.7861 188.0899 C 108.0107 189.9154 108.6298 190.8615 109.7477 190.0625 C 110.8611 189.2637 110.732 187.5853 111.921 189.1564 C 113.1191 190.7321 115.288 191.2319 114.9629 192.1514 C 114.6422 193.0664 114.7891 193.1958 115.0608 194.7715 C 115.337 196.3468 115.4973 197.9759 116.7042 199.565 C 117.8978 201.1626 118.7573 203.2649 120.2047 201.1764 C 121.6967 199.0248 121.6699 200.3147 121.3984 196.8691 C 121.1489 193.3789 120.4407 190.3705 120.414 190.0224 C 120.4095 189.6743 118.3922 186.0634 122.7922 183.1891 C 127.2146 180.3237 127.6334 179.3909 129.9759 178.4936 C 132.323 177.601 132.1938 178.3823 133.5744 176.9494 C 134.9506 175.49 134.8081 174.6866 135.6497 174.6866 C 136.4915 174.691 136.2109 173.883 136.919 173.883 C 137.6183 173.8877 138.7361 173.2181 138.7361 173.2181 L 138.7361 171.464 L 136.8968 171.464 C 137.6984 171.1026 138.4956 170.7366 139.2972 170.3794 C 139.2038 169.8305 139.1057 169.2816 139.0078 168.728 C 139.0078 168.728 136.741 168.5941 137.3154 168.4603 C 137.881 168.3175 139.7203 167.9114 139.7203 166.9472 C 139.7203 165.9742 139.7115 163.323 139.7115 163.323 C 139.7115 163.323 140.4329 157.5474 140.5755 162.1937 C 140.7135 166.8266 139.8629 168.4603 141.9917 165.8314 C 144.1427 163.1802 143.7152 161.7742 143.7152 161.7742 C 144.1917 161.9617 144.6683 162.1448 145.1404 162.3322 C 145.1404 162.3409 148.5963 159.0872 148.7434 157.3777 C 148.8903 155.6683 148.4628 155.954 151.4779 155.5212 C 154.484 155.0928 155.9226 153.9456 157.0582 153.9412 C 157.9222 153.9412 159.276 153.9323 159.8906 153.9279 C 159.4588 153.8518 158.9198 153.3476 160.3761 150.7811 C 162.3981 147.1882 163.3912 146.3222 165.382 145.8893 C 167.3682 145.4608 167.9428 143.8765 169.6352 143.8765 C 170.1696 143.8765 170.704 143.8988 171.1761 143.9255 L 171.6882 143.9255 C 171.1004 140.2255 170.7263 136.5389 170.5749 132.8432 C 170.0627 133.2804 169.5104 133.7579 168.9804 134.2133 C 168.0674 134.9899 167.2124 135.7266 166.6557 136.0657 L 166.2103 136.2755 C 165.2305 136.4092 164.6471 135.3961 164.6471 135.3961 C 164.6471 135.3961 165.6358 134.5436 167.1856 133.843 C 168.5886 133.1867 169.1809 132.0756 170.5392 131.3569 C 170.2008 117.8107 172.8729 104.4611 178.3775 92.0887 C 176.743 92.3254 175.5895 92.7716 174.7389 92.3478 C 173.768 91.8699 170.6371 90.54 170.3567 92.919 C 170.0627 95.3425 168.5751 95.2131 168.6687 96.2843 C 168.7489 97.3553 168.9671 98.3374 167.6266 98.3017 C 166.2861 98.2748 162.4648 99.9174 164.4734 101.8409 C 166.4819 103.7559 166.6379 103.8853 166.1568 105.2867 C 165.6848 106.6971 164.2641 110.3213 154.7691 112.1425 C 154.7735 112.1335 153.5889 115.7801 153.7492 117.4402 C 153.9273 119.1006 153.6468 119.239 152.0925 120.0603 C 150.5425 120.886 150.8365 122.0061 149.2688 122.0061 C 147.7101 122.0061 147.1401 122.8409 146.846 121.0198 C 146.5478 119.2122 145.697 120.6003 146.1158 118.6587 C 146.5254 116.7262 145.1181 117.2707 147.3627 115.628 C 149.6073 114.0037 147.5052 114.6863 149.0284 113.0619 C 150.556 111.4462 150.8187 110.5131 150.1239 110.5131 C 149.4202 110.4998 143.2387 110.0849 143.2387 110.0849 C 143.2387 110.0849 142.5261 108.2325 140.2949 108.2325 C 138.0503 108.2281 136.6696 104.9609 133.8996 104.9787 C 131.1249 104.9921 128.7512 105.4072 128.7512 105.4072 C 128.7556 105.3983 131.0225 103.1889 131.0492 101.6892 C 131.0849 100.1719 127.9228 100.4484 127.9228 100.4484 C 127.9673 100.3236 136.5182 90.7097 143.9067 90.8791 C 145.1181 90.8748 148.1243 89.1073 145.4745 88.9912 C 142.8156 88.8662 147.3138 88.3349 148.7701 88.2413 C 150.2131 88.1387 149.6742 87.9201 151.6471 87.9335 C 153.62 87.9558 150.6361 88.5718 154.2614 87.5317 C 157.8732 86.4918 158.5011 86.4115 158.4656 85.8892 C 158.4209 85.3714 156.3189 85.7956 155.063 85.2686 C 162.6252 83.9074 170.3567 83.1978 178.2039 83.1978 C 179.767 83.1978 181.3168 83.238 182.8801 83.3004 C 183.8243 81.6713 184.8085 80.0558 185.8506 78.48 C 186.7503 77.1321 187.6766 75.8155 188.643 74.5256 C 187.6633 74.4499 186.6879 74.3829 185.7037 74.3205 L 185.5122 74.3068 C 184.4566 74.2488 183.3878 74.2131 182.3324 74.1864 L 181.8469 74.1641 C 180.6355 74.1374 179.4241 74.1105 178.2039 74.1105 C 174.1555 74.1105 170.1429 74.3025 166.188 74.6463 L 166.09 74.655 C 160.2781 75.1594 154.5775 76.0298 148.9927 77.2348 L 148.917 77.2617 C 143.3278 78.4623 137.881 80.0156 132.5723 81.8811 L 132.4744 81.9125 C 127.1835 83.778 122.044 85.9516 117.0739 88.4244 L 116.9135 88.5091 C 111.9657 90.9685 107.1824 93.7224 102.5908 96.7483 L 102.3948 96.8823 C 97.8298 99.8905 93.4476 103.1756 89.2701 106.7104 L 89.0474 106.9025 C 86.2773 109.2546 83.5918 111.7139 81.0176 114.2802 L 80.9909 114.3114 C 79.7172 115.57 78.4746 116.86 77.2587 118.1678 L 77.0182 118.4312 C 74.5554 121.0868 72.1995 123.8497 69.9459 126.6838 L 69.9059 126.7329 C 68.8014 128.1389 67.7281 129.5626 66.6726 131.0087 L 66.441 131.3166 C 64.3122 134.2625 62.2992 137.2795 60.393 140.3905 L 60.3529 140.4396 C 59.4266 141.9659 58.5181 143.5282 57.6496 145.0813 L 57.4537 145.4342 C 55.6767 148.6252 54.0244 151.9013 52.5013 155.2355 L 52.4879 155.2846 C 51.7397 156.9315 51.0182 158.5919 50.3235 160.2746 L 50.1809 160.6315 C 48.7914 164.055 47.5355 167.5542 46.4087 171.1026 L 46.4087 171.1204 C 45.8566 172.8699 45.3444 174.633 44.8634 176.4095 L 44.7565 176.7932 C 41.6567 188.3577 40 200.511 40 213.0576 C 40 289.7906 101.8694 352 178.2039 352 C 221.7688 352 260.6219 331.7278 285.9539 300.0561 L 286.0031 299.9891 C 286.6042 299.2438 287.1966 298.4895 287.7755 297.7262 L 287.8244 297.6728 C 291.9529 292.2677 295.6984 286.5546 299.0075 280.5739 L 299.1856 280.2614 C 299.5998 279.5114 300.0006 278.7571 300.4104 277.9985 L 300.6554 277.5209 C 301.0383 276.7845 301.4124 276.0479 301.791 275.2982 L 302.0492 274.7804 C 302.4189 274.0218 302.7797 273.2808 303.1404 272.5311 L 303.3363 272.0935 C 303.7595 271.2008 304.1336 270.2904 304.5345 269.3887 L 288.3278 242.3724 C 284.4666 240.4399 281.5182 237.4092 279.8169 233.5262 ZM 207.455 120.6092 C 207.7133 118.8731 208.0207 118.0919 207.5842 117.4178 C 207.3749 117.0967 206.9072 117.101 206.4752 117.0073 C 206.0254 118.7748 205.6513 120.5468 205.3708 122.3366 C 206.787 122.1579 207.2725 121.8011 207.455 120.6092 ZM 217.2129 108.1431 C 217.6537 108.4154 217.7429 108.2101 218.3485 108.1075 C 218.9498 108.0137 218.9096 108.0003 219.689 108.0317 C 220.4729 108.054 220.4506 106.8979 220.6956 106.773 C 220.6956 106.773 220.9449 107.0452 220.6777 106.59 C 220.406 106.1482 220.1834 106.0141 221.2077 106.2239 C 222.232 106.4249 221.4438 105.7957 221.2567 105.5856 C 221.0741 105.3805 220.8826 105.4696 220.2102 105.3314 C 219.5377 105.1885 219.4708 105.9608 219.4708 105.9608 L 218.8027 105.6883 C 218.4598 105.3179 218.2326 105.5277 217.8586 106.1572 C 217.4889 106.773 217.8096 106.5767 218.1882 106.6614 L 217.6403 106.9335 L 216.7674 107.5585 C 216.6471 107.8486 216.7674 107.8666 217.2129 108.1431 Z" fill="#111112"/>	</g></svg>