<?xml version="1.0" standalone="no"?><!-- Generator: Adobe Fireworks CS6, Export SVG Extension by Aaron Beall (http://fireworks.abeall.com) . Version: 0.6.1  --><!DOCTYPE svg PUBLIC "-//W3C//DTD SVG 1.1//EN" "http://www.w3.org/Graphics/SVG/1.1/DTD/svg11.dtd"><svg id="Raichu-Icons.fw-icon-catalog" viewBox="0 0 400 400" style="background-color:#ffffff00" version="1.1"	xmlns="http://www.w3.org/2000/svg" xmlns:xlink="http://www.w3.org/1999/xlink" xml:space="preserve"	x="0px" y="0px" width="400px" height="400px">	<g id="Master%20Page%20Layer11">		<g id="Layer%20122">		</g>	</g>	<g id="Layer%20123">		<path d="M 339.8428 348.0005 L 339.8428 50.0132 C 339.8428 44.4907 335.3652 40.0132 329.8428 40.0132 C 324.3193 40.0132 319.8428 44.4907 319.8428 50.0132 L 319.8428 340.084 L 100.043 340.084 L 100.043 269.9541 L 110.0117 269.9541 C 115.5352 269.9541 120.0117 265.4775 120.0117 259.9541 C 120.0117 254.4307 115.5352 249.9541 110.0117 249.9541 L 100.043 249.9541 L 100.043 209.8799 L 110.0117 209.8799 C 115.5352 209.8799 120.0117 205.4033 120.0117 199.8799 C 120.0117 194.3564 115.5352 189.8799 110.0117 189.8799 L 100.043 189.8799 L 100.043 149.937 L 110.0117 149.937 C 115.5352 149.937 120.0117 145.4604 120.0117 139.937 C 120.0117 134.4136 115.5352 129.937 110.0117 129.937 L 100.043 129.937 L 100.043 60.0132 L 269.9805 60.0132 C 275.5039 60.0132 279.9805 55.5366 279.9805 50.0132 C 279.9805 44.4897 275.5039 40.0132 269.9805 40.0132 L 90.043 40.0132 C 89.5459 40.0132 89.0615 40.0615 88.584 40.1313 C 88.3984 40.1587 88.21 40.1787 88.0273 40.2163 C 87.0869 40.4087 86.1963 40.7373 85.3721 41.1738 C 85.3408 41.1904 85.3076 41.2031 85.2764 41.2202 C 85.0938 41.3193 84.9199 41.4331 84.7441 41.543 C 84.6484 41.6035 84.5469 41.6572 84.4512 41.7207 C 84.3223 41.8086 84.2021 41.9077 84.0771 42.001 C 83.9453 42.0996 83.8086 42.1919 83.6816 42.2969 C 83.5703 42.3887 83.4678 42.4922 83.3604 42.5889 C 83.2305 42.7061 83.0957 42.8184 82.9717 42.9419 C 82.8477 43.0659 82.7354 43.2002 82.6191 43.3306 C 82.5215 43.438 82.4189 43.5405 82.3262 43.6523 C 82.2217 43.7788 82.1289 43.9155 82.0313 44.0474 C 81.9375 44.1724 81.8379 44.2925 81.751 44.4219 C 81.7109 44.4805 81.6787 44.5444 81.6406 44.604 C 80.9824 45.6245 80.498 46.7676 80.2461 47.9976 C 80.209 48.1802 80.1885 48.3682 80.1611 48.5547 C 80.0918 49.0317 80.043 49.5161 80.043 50.0132 L 80.043 129.937 L 50.0742 129.937 C 44.5518 129.937 40.0742 134.4136 40.0742 139.937 C 40.0742 145.4604 44.5518 149.937 50.0742 149.937 L 80.043 149.937 L 80.043 189.8799 L 50.0742 189.8799 C 44.5518 189.8799 40.0742 194.3564 40.0742 199.8799 C 40.0742 205.4033 44.5518 209.8799 50.0742 209.8799 L 80.043 209.8799 L 80.043 249.9541 L 50.0742 249.9541 C 44.5518 249.9541 40.0742 254.4307 40.0742 259.9541 C 40.0742 265.4775 44.5518 269.9541 50.0742 269.9541 L 80.043 269.9541 L 80.043 350.0132 C 80.043 351.0562 80.2031 352.0615 80.5 353.0068 C 81.75 357.1035 85.5576 360.084 90.0635 360.084 L 330.0635 360.084 C 335.5859 360.084 340.0635 355.6074 340.0635 350.084 C 340.0635 349.3691 339.9854 348.6729 339.8428 348.0005 Z" fill="#333333"/>	</g></svg>