<?xml version="1.0" standalone="no"?><!-- Generator: Adobe Fireworks CS6, Export SVG Extension by Aaron Beall (http://fireworks.abeall.com) . Version: 0.6.1  --><!DOCTYPE svg PUBLIC "-//W3C//DTD SVG 1.1//EN" "http://www.w3.org/Graphics/SVG/1.1/DTD/svg11.dtd"><svg id="Raichu-Icons.fw-icon-math" viewBox="0 0 400 400" style="background-color:#ffffff00" version="1.1"	xmlns="http://www.w3.org/2000/svg" xmlns:xlink="http://www.w3.org/1999/xlink" xml:space="preserve"	x="0px" y="0px" width="400px" height="400px">	<g id="Master%20Page%20Layer41">		<g id="Layer%20182">		</g>	</g>	<g id="Layer%20183">		<path d="M 314.2495 223.3594 C 313.377 223.8696 312.481 224.3633 311.5693 224.833 C 325.27 226.335 341.7549 226.1279 351.3662 218.8511 C 356.6875 214.8281 359.2681 209.0488 359.2681 201.1787 C 359.2681 192.2813 356.4961 185.8643 350.7964 181.563 C 343.4399 176.0029 332.4155 174.876 322.4424 175.3296 C 323.1235 175.9312 323.7881 176.5449 324.4141 177.2378 C 329.6035 182.9336 331.77 190.6519 330.5073 198.9961 C 329.0298 208.79 322.9521 218.2217 314.2495 223.3594 Z" fill="#231f20"/>		<path d="M 81.0942 180.5635 C 83.6992 178.3291 86.7021 176.4727 90.0161 175.0029 C 76.0283 173.3262 58.6387 173.2588 48.6655 180.8105 C 43.3481 184.833 40.7637 190.6162 40.7637 198.4785 C 40.7637 207.5317 43.5913 214.1196 49.4067 218.6279 C 57.2368 224.6821 69.062 225.897 79.334 225.5024 C 76.02 223.4512 73.439 220.6353 71.7505 217.0469 C 65.3379 203.4092 68.397 191.4805 81.0942 180.5635 Z" fill="#231f20"/>		<path d="M 149.2178 218.2417 C 141.3555 223.3438 132.8086 227.6733 122.8472 230.708 C 118.7485 231.9629 95.0864 236.9375 79.8633 236.9375 C 67.7476 236.9375 54.3291 234.8345 44.7305 227.3984 C 44.0493 226.8765 43.4438 226.2988 42.8184 225.7295 C 44.4756 229.0947 46.439 232.4565 48.7217 235.7983 C 61.9922 255.2666 86.4595 266.8887 114.1602 266.8887 C 120.9434 266.8887 127.7979 266.1836 134.5371 264.7856 C 150.564 261.4678 163.6719 254.6094 175.3779 247.1733 C 163.4766 241.0752 154.1211 230.7959 149.2178 218.2417 Z" fill="#231f20"/>		<path d="M 253.3945 183.9331 C 259.7554 179.3721 266.4985 175.21 274.0654 171.7534 C 279.5703 169.248 286.4922 167.2246 294.0801 165.9819 C 297.3936 165.4443 341.0742 161.9668 355.4204 172.7925 C 356.0098 173.2427 356.5317 173.7368 357.0854 174.2148 C 354.8154 169.4072 351.8955 164.7832 348.2915 160.4541 C 337.1392 147.0669 315.1733 132.7529 286.9824 132.7529 C 273.8071 132.7529 260.7988 135.8911 248.3203 142.0884 C 242.0713 145.1948 236.3271 148.7876 230.8193 152.5234 C 241.7524 159.8086 249.8779 170.9209 253.3945 183.9331 Z" fill="#231f20"/>		<path d="M 320.2715 236.9258 C 308.9717 236.9258 297.9155 236.6108 289.8623 235.0454 C 286.9741 235.5435 284.0229 237.1563 281.0151 237.1563 C 281.0151 237.1563 281.0151 237.1563 281.0122 237.1563 C 271.1743 237.1563 261.647 232.8706 253.4624 228.3779 C 247.5 225.0923 242.2227 219.811 237.3271 215.5771 C 237.0488 215.334 236.7622 215.1069 236.4834 214.8604 C 232.7192 216.4614 229.0752 218.1938 226.1875 220.5 C 225.6377 221.2407 225.0684 221.9575 224.459 222.6152 C 223.6704 223.4551 222.8535 224.2598 222.0098 225.0288 C 221.125 225.8208 220.2129 226.5659 219.2734 227.231 L 220.3408 227.7129 L 221.8838 228.4746 L 220.3086 227.7725 L 219.2769 227.3145 C 216.5688 229.2461 213.6411 230.7559 210.5942 231.8276 C 200.8047 235.2407 189.772 234.165 180.7227 228.4897 C 180.6738 228.479 180.623 228.4629 180.5742 228.4521 C 178.7783 227.3198 177.043 226.0479 175.4331 224.5273 C 168.543 218.0908 164.771 204.8535 164.4722 200.8535 L 164.4961 200.8535 C 164.3491 194.3574 165.9248 188.0376 169.229 182.4307 C 169.2471 182.4238 169.2651 182.418 169.2837 182.4111 C 169.5981 181.8564 169.9272 181.3091 170.2715 180.7695 C 170.2759 180.7627 170.2803 180.7559 170.2847 180.749 C 170.4136 180.5479 170.5552 180.354 170.688 180.1548 C 171.6255 178.8174 172.665 177.5264 173.8164 176.2944 C 175.417 174.5742 177.1738 173.0322 179.0142 171.7178 C 181.7266 169.7822 184.6499 168.2485 187.7046 167.1846 C 197.4907 163.7515 208.5229 164.8271 217.5723 170.4951 C 217.5801 170.4966 217.5884 170.499 217.5962 170.501 C 219.4277 171.6543 221.188 172.2617 222.8491 173.8086 C 229.7363 180.2451 233.3965 188.8535 233.7871 196.8535 L 233.771 196.8535 C 233.8545 200.8535 231.4248 212.8408 226.1875 219.9385 C 229.0752 217.6362 232.7192 216.1782 236.4834 214.5776 C 236.7622 214.8164 237.0488 215.334 237.3271 215.5771 C 239.7891 209.8257 240.9839 203.7202 240.8481 198.0522 C 240.6177 192.7354 239.3984 187.4497 237.1445 182.5308 C 237.144 182.5313 237.144 182.5313 237.1436 182.5317 C 234.9492 177.7046 231.7871 173.2197 227.6729 169.3804 C 217.0151 159.4272 202.541 156.1406 189.3491 159.3232 C 187.0898 159.8662 184.8726 160.6104 182.7163 161.5352 C 173.21 153.3877 162.4478 145.7822 149.0547 140.0576 C 137.2529 135.0107 124.1973 132.3467 111.2886 132.3467 C 87.5425 132.3467 66.5762 141.0332 53.7559 156.1802 C 49.0479 161.7441 45.3472 167.416 42.54 173.1592 C 43.0142 172.749 43.4561 172.3267 43.958 171.9443 C 63.6138 157.084 101.7495 163.8672 116.5063 167.2563 C 116.8926 167.249 117.2671 167.2129 117.6572 167.2129 C 128.543 167.2129 139.4277 169.9883 149.1504 175.2344 C 153.4272 177.5376 157.3115 180.1504 160.9985 182.9805 C 158.4824 188.6729 157.2979 194.7979 157.4424 200.8882 C 157.6611 205.8428 158.9043 211.5063 161.1426 216.4297 C 161.2383 216.1748 161.3936 215.9556 161.6362 215.8037 C 161.3936 215.9556 161.2383 216.1904 161.1465 216.4492 C 163.3491 221.2803 166.9058 225.3789 170.6221 229.6045 C 171.769 230.9111 186.0117 245.1855 208.9453 239.6577 C 211.4785 239.0483 213.9404 238.1284 216.3418 237.0371 C 219.9053 235.4253 223.2959 233.3413 226.374 230.6909 L 226.3931 230.7002 C 223.3101 233.3574 219.9121 235.4307 216.3418 237.0527 C 216.3096 237.1362 216.2778 237.2124 216.2461 237.2959 C 226.5337 246.2891 238.8491 255.0557 254.8481 260.9819 C 266.0762 265.144 277.6182 267.2593 289.165 267.2593 C 308.7808 267.2593 326.7397 261.0098 339.7358 249.6787 C 347.3672 243.0269 353.1421 235.2441 357.0337 226.8965 C 356.7031 227.1675 356.416 227.4619 356.0737 227.7168 C 346.7939 234.7344 333.3872 236.9258 320.2715 236.9258 Z" fill="#231f20"/>		<path d="M 217.1626 182.4238 C 217.1445 182.4141 217.1372 182.4072 217.124 182.3989 C 217.1123 182.4253 217.0903 182.4561 217.0371 182.4951 L 216.5796 182.8252 C 216.9624 182.6563 217.3398 182.5142 217.1626 182.4238 Z" fill="#231f20"/>		<path d="M 199.2339 204.376 C 199.3945 204.4106 199.563 204.4307 199.665 204.4365 C 199.7651 204.4307 199.4932 204.4106 199.2339 204.376 Z" fill="#231f20"/>		<path d="M 215.9326 183.292 L 215.9326 183.292 L 216.5796 182.8252 C 216.2578 182.9668 215.9326 183.126 215.9326 183.292 Z" fill="#231f20"/>		<path d="M 217.124 182.3989 C 217.1719 182.2881 216.9473 182.2881 217.124 182.3989 L 217.124 182.3989 Z" fill="#231f20"/>		<path d="M 199.4814 195.1646 L 181.7002 182.4951 C 181.3936 182.2798 180.896 182.2563 180.5693 182.4238 C 180.251 182.5908 179.9326 182.9292 179.9326 183.292 L 179.9326 213.1553 C 179.9326 213.665 180.5503 214.0874 181.0562 214.1313 L 191.5796 214.9478 C 191.8623 214.9678 191.2764 214.8799 191.4712 214.6929 C 191.6743 214.5098 190.9326 214.2466 190.9326 213.9761 L 190.9326 212.8208 C 190.9326 212.311 191.4473 211.8848 190.9375 211.8447 C 189.229 211.7217 188.5107 211.4429 187.4751 210.917 C 186.4111 210.3755 185.3833 209.7422 185.0327 209.0811 C 184.73 208.4951 183.9326 207.1929 183.9326 205.0107 L 183.9326 192.9385 L 198.8628 204.2314 L 211.9326 192.9385 L 211.9326 205.0107 C 211.9326 207.1929 212.8965 208.4951 212.582 209.0811 C 212.2314 209.7422 212.2217 210.3755 211.1582 210.917 C 210.1226 211.4429 207.7505 211.7217 206.0454 211.8447 C 205.5352 211.8848 203.9326 212.311 203.9326 212.8208 L 203.9326 213.9761 C 203.9326 214.2466 205.6182 214.5098 205.8179 214.6929 C 206.0161 214.8799 207.0708 214.9678 207.3457 214.9478 L 216.4028 214.1313 C 216.9082 214.0874 215.9326 213.665 215.9326 213.1553 L 215.9326 183.292 L 199.4814 195.1646 Z" fill="#231f20"/>		<path d="M 199.2339 204.376 C 199.0879 204.3442 198.9487 204.3008 198.8765 204.2417 L 198.8628 204.2314 L 198.8506 204.2417 C 198.7769 204.3003 199.0005 204.3442 199.2339 204.376 Z" fill="#231f20"/>	</g></svg>