<?xml version="1.0" standalone="no"?><!-- Generator: Adobe Fireworks CS6, Export SVG Extension by Aaron Beall (http://fireworks.abeall.com) . Version: 0.6.1  --><!DOCTYPE svg PUBLIC "-//W3C//DTD SVG 1.1//EN" "http://www.w3.org/Graphics/SVG/1.1/DTD/svg11.dtd"><svg id="Raichu-Icons.fw-icon-arrow-up" viewBox="0 0 400 400" style="background-color:#ffffff00" version="1.1"	xmlns="http://www.w3.org/2000/svg" xmlns:xlink="http://www.w3.org/1999/xlink" xml:space="preserve"	x="0px" y="0px" width="400px" height="400px">	<g id="Master%20Page%20Layer35">		<g id="Layer%20170">		</g>	</g>	<g id="Layer%20171">		<path d="M 352.6836 152.2344 C 326.2803 67.9053 236.5146 20.9482 152.1865 47.3525 C 67.8564 73.7559 20.8984 163.5195 47.3018 247.8506 C 48.2939 251.0205 49.3926 254.127 50.5625 257.1885 C 50.5635 257.1904 50.5635 257.1924 50.5645 257.1943 C 50.6279 257.3955 50.707 257.5859 50.7803 257.7813 C 50.835 257.9229 50.8896 258.0645 50.9443 258.207 C 52.958 262.8311 58.1719 265.29 63.0947 263.749 C 68.3682 262.0996 71.3008 256.4893 69.6504 251.2178 C 69.5459 250.8818 69.4238 250.5557 69.2871 250.2383 C 68.2373 247.5 67.2676 244.7148 66.3779 241.877 C 43.2734 168.084 84.3652 89.5322 158.1572 66.4277 C 231.9512 43.3232 310.502 84.4131 333.6074 158.208 C 356.7129 232.0029 315.6201 310.5527 241.8271 333.6572 C 190.7471 349.6504 137.3916 334.8789 101.7207 299.7979 C 101.4609 299.541 101.2021 299.2832 100.9443 299.0254 C 98.4053 296.7617 94.7813 295.8408 91.2988 296.9316 C 86.0283 298.582 83.0938 304.1924 84.7432 309.4619 C 85.2979 311.2354 86.3086 312.7354 87.5957 313.8945 C 87.5947 313.8926 87.5938 313.8916 87.5918 313.8906 C 87.585 313.8965 87.5801 313.9033 87.5742 313.9102 C 128.3369 354.0908 189.3672 371.0293 247.7998 352.7334 C 332.1299 326.3301 379.0869 236.5654 352.6836 152.2344 Z" fill="#333333"/>		<path d="M 199.6592 290 C 205.1826 290 209.6592 285.5234 209.6592 280 L 209.6592 143.4746 L 249.8232 183.6396 C 253.7295 187.5439 260.0605 187.5449 263.9658 183.6396 C 267.8721 179.7344 267.8711 173.4023 263.9648 169.4971 L 207.3975 112.9287 C 205.3584 110.8906 202.6592 109.9268 199.9893 110.0166 C 199.8936 110.0127 199.7979 110.0029 199.7021 110.0029 C 199.6885 110.0029 199.6738 110 199.6592 110 C 199.6436 110 199.6279 110.0029 199.6123 110.0029 C 199.2988 110.0039 198.9863 110.0195 198.6748 110.0498 C 198.5195 110.0654 198.3682 110.0938 198.2158 110.1162 C 198.0459 110.1406 197.876 110.1602 197.707 110.1943 C 197.5352 110.2285 197.3682 110.2754 197.1982 110.3184 C 197.0518 110.3555 196.9043 110.3877 196.7588 110.4316 C 196.5938 110.4814 196.4346 110.543 196.2734 110.6006 C 196.127 110.6533 195.9785 110.7021 195.834 110.7617 C 195.6865 110.8232 195.5449 110.8945 195.4004 110.9629 C 195.248 111.0352 195.0947 111.1025 194.9453 111.1826 C 194.8115 111.2539 194.6846 111.3359 194.5547 111.4131 C 194.4043 111.5029 194.252 111.5879 194.1045 111.6865 C 193.9697 111.7764 193.8428 111.8779 193.7129 111.9746 C 193.5811 112.0723 193.4453 112.165 193.3174 112.2705 C 193.1211 112.4316 192.9346 112.6064 192.751 112.7822 C 192.6982 112.833 192.6406 112.877 192.5879 112.9287 L 136.0205 169.498 C 132.1143 173.4033 132.1133 179.7344 136.0195 183.6396 C 139.9248 187.5449 146.2559 187.5449 150.1621 183.6396 L 189.6592 144.1426 L 189.6602 280 C 189.6592 285.5234 194.1357 290.001 199.6592 290 Z" fill="#333333"/>	</g></svg>