<?xml version="1.0" standalone="no"?><!-- Generator: Adobe Fireworks CS6, Export SVG Extension by Aaron Beall (http://fireworks.abeall.com) . Version: 0.6.1  --><!DOCTYPE svg PUBLIC "-//W3C//DTD SVG 1.1//EN" "http://www.w3.org/Graphics/SVG/1.1/DTD/svg11.dtd"><svg id="Raichu-Icons.fw-icon-signature-products" viewBox="0 0 400 400" style="background-color:#ffffff00" version="1.1"	xmlns="http://www.w3.org/2000/svg" xmlns:xlink="http://www.w3.org/1999/xlink" xml:space="preserve"	x="0px" y="0px" width="400px" height="400px">	<g id="Master%20Page%20Layer42">		<g id="Layer%20184">		</g>	</g>	<g id="Layer%20185">		<path d="M 344.2656 160.9189 C 343.5864 146.6348 344.3354 132.1885 337.2837 120.0601 C 330.1387 107.7627 317.2202 101.2046 305.3472 93.6182 C 297.7783 81.751 291.2207 68.8262 278.917 61.6934 C 266.7827 54.6533 252.3242 55.3965 238.0581 54.7227 C 225.8135 48.3037 213.6782 40.3574 199.1855 40.3574 C 184.687 40.3574 172.5527 48.3037 160.3188 54.7227 C 146.0176 55.3965 131.0483 54.5659 119.4302 61.6934 C 106.2217 69.791 100.564 81.751 93.0127 93.6182 C 81.1392 101.2046 68.209 107.7627 61.0469 120.0601 C 54.0239 132.1885 54.7793 146.6348 54.0762 160.9189 C 47.6865 173.1812 39.7227 185.3042 39.7227 199.8091 C 39.7227 214.3076 47.6865 226.4307 54.0762 238.6812 C 54.7793 252.9478 54.0239 267.4004 61.0469 279.5342 C 68.209 291.8379 81.1392 298.3955 93.0127 305.9937 C 100.564 317.855 107.1509 330.7739 119.4302 337.9185 C 131.5601 344.959 146.0176 344.2153 160.3188 344.8892 C 172.5527 351.3135 184.687 359.2485 199.1855 359.2485 C 213.6782 359.2485 225.8135 351.3135 238.0581 344.8892 C 252.3242 344.2153 266.7827 344.959 278.917 337.9185 C 291.1968 330.7852 297.7783 317.855 305.3472 305.9937 C 317.2202 298.3955 330.1387 291.8428 337.2837 279.5342 C 344.3354 267.4004 343.5864 252.9478 344.2656 238.6812 C 350.6904 226.4307 358.6255 214.3076 358.6255 199.8091 C 358.6255 185.3042 350.6904 173.1812 344.2656 160.9189 ZM 199.1855 303.4551 C 141.9341 303.4551 95.5103 257.0483 95.5103 199.8091 C 95.5103 142.5635 141.9341 96.1274 199.1855 96.1274 C 256.4253 96.1274 302.8491 142.5635 302.8491 199.8091 C 302.8491 257.0483 256.4253 303.4551 199.1855 303.4551 Z" fill="#000000"/>		<path d="M 201.0093 167.9766 C 194.248 172.1826 187.3999 177.4448 180.8413 183.9683 C 150.0313 214.6211 151.1465 248.7769 151.1465 248.7769 C 151.1465 248.7769 188.9858 246.3198 219.7837 215.667 C 220.9688 214.4697 222.1069 213.2559 223.2397 212.0884 L 200.5449 211.8384 L 201.0093 167.9766 Z" fill="#000000"/>		<path d="M 209.4326 163.1787 L 208.9795 204.3223 L 229.5542 204.5313 C 250.3262 177.2998 249.4897 150.8232 249.4897 150.8232 C 249.4897 150.8232 231.041 152.0259 209.4326 163.1787 Z" fill="#000000"/>	</g></svg>