<?xml version="1.0" standalone="no"?><!-- Generator: Adobe Fireworks CS6, Export SVG Extension by Aaron Beall (http://fireworks.abeall.com) . Version: 0.6.1  --><!DOCTYPE svg PUBLIC "-//W3C//DTD SVG 1.1//EN" "http://www.w3.org/Graphics/SVG/1.1/DTD/svg11.dtd"><svg id="Raichu-Icons.fw-icon-box" viewBox="0 0 400 400" style="background-color:#ffffff00" version="1.1"	xmlns="http://www.w3.org/2000/svg" xmlns:xlink="http://www.w3.org/1999/xlink" xml:space="preserve"	x="0px" y="0px" width="400px" height="400px">	<g id="Master%20Page%20Layer7">		<g id="Layer%20114">		</g>	</g>	<g id="Layer%20115">		<path d="M 320.2715 104.9785 L 320.209 104.9785 C 320.209 99.4551 315.7324 94.9785 310.209 94.9785 C 304.6855 94.9785 300.209 99.4551 300.209 104.9785 L 300.2031 104.9785 C 300.2031 160.1699 255.4629 204.9102 200.2715 204.9102 C 145.082 204.9102 100.3398 160.1699 100.3398 104.9785 C 100.3398 99.4551 95.8633 94.9785 90.3398 94.9785 C 84.8164 94.9785 80.3398 99.4551 80.3398 104.9785 L 80.2715 104.9785 C 80.2715 171.2539 133.998 224.9785 200.2715 224.9785 C 266.5449 224.9785 320.2715 171.2539 320.2715 104.9785 Z" fill="#333333"/>		<path d="M 359.9883 348.1929 L 359.9883 50.4609 C 359.9941 50.3188 360.0098 50.1792 360.0098 50.0356 C 360.0098 48.3081 359.5723 46.6836 358.8008 45.2661 C 357.1143 42.127 353.8018 39.9917 349.9883 39.9917 C 349.6953 39.9917 349.4063 40.0107 349.1191 40.0356 L 51.3955 40.0356 C 51.0469 39.9985 50.6924 39.978 50.334 39.978 C 49.6162 39.978 48.917 40.0571 48.2422 40.2012 C 43.5635 41.0371 40.0098 45.1167 40.0098 50.0356 C 40.0098 50.8955 40.1299 51.7256 40.334 52.522 L 40.334 349.978 C 40.334 355.5005 44.8105 359.978 50.334 359.978 C 55.8574 359.978 60.334 355.5005 60.334 349.978 L 60.334 60.0356 L 281.6816 60.0356 C 281.7148 60.0557 281.749 60.0762 281.7832 60.0952 C 281.749 60.0757 281.7148 60.0557 281.6816 60.0356 L 339.9883 60.0356 L 339.9883 340.1191 L 130.2402 340.1191 C 124.7178 340.1191 120.2402 344.5957 120.2402 350.1191 C 120.2402 355.6426 124.7178 360.1191 130.2402 360.1191 L 350.1777 360.1191 C 355.7012 360.1191 360.1777 355.6426 360.1777 350.1191 C 360.1777 349.4595 360.1104 348.8164 359.9883 348.1929 Z" fill="#333333"/>	</g></svg>