<?xml version="1.0" standalone="no"?><!-- Generator: Adobe Fireworks CS6, Export SVG Extension by Aaron Beall (http://fireworks.abeall.com) . Version: 0.6.1  --><!DOCTYPE svg PUBLIC "-//W3C//DTD SVG 1.1//EN" "http://www.w3.org/Graphics/SVG/1.1/DTD/svg11.dtd"><svg id="Raichu-Icons.fw-icon-search" viewBox="0 0 400 400" style="background-color:#ffffff00" version="1.1"	xmlns="http://www.w3.org/2000/svg" xmlns:xlink="http://www.w3.org/1999/xlink" xml:space="preserve"	x="0px" y="0px" width="400px" height="400px">	<g id="Master%20Page%20Layer9">		<g id="Layer%20118">		</g>	</g>	<g id="Layer%20119">		<path d="M 338.1436 344.6274 L 267.4268 273.9106 C 263.5479 270.0322 257.2793 270.0088 253.3672 273.8345 C 233.1846 289.2437 207.9785 298.4092 180.626 298.4092 C 114.3525 298.4092 60.626 244.6846 60.626 178.4092 C 60.626 112.1338 114.3525 58.4092 180.626 58.4092 C 246.8994 58.4092 300.626 112.1338 300.626 178.4092 C 300.626 195.312 297.124 211.3945 290.8174 225.9805 C 290.8359 225.9873 290.8604 225.9858 290.8799 225.9937 C 290.0615 227.4434 289.5889 229.1143 289.5889 230.8979 C 289.5889 236.4209 294.0654 240.8979 299.5889 240.8979 C 304.1113 240.8979 307.9277 237.895 309.1641 233.7754 C 309.1875 233.7837 309.2197 233.7813 309.2412 233.791 C 316.5674 216.8047 320.6367 198.0845 320.6367 178.4092 C 320.6367 101.082 257.9512 38.3984 180.626 38.3984 C 103.3008 38.3984 40.6152 101.082 40.6152 178.4092 C 40.6152 255.7368 103.3008 318.4194 180.626 318.4194 C 209.8369 318.4194 236.9521 309.4644 259.3955 294.1631 L 324 358.7686 C 327.9072 362.6758 334.2383 362.6753 338.1445 358.7686 C 342.0488 354.8643 342.0488 348.5322 338.1436 344.6274 Z" fill="#333333"/>	</g></svg>