<?xml version="1.0" standalone="no"?><!-- Generator: Adobe Fireworks CS6, Export SVG Extension by Aaron Beall (http://fireworks.abeall.com) . Version: 0.6.1  --><!DOCTYPE svg PUBLIC "-//W3C//DTD SVG 1.1//EN" "http://www.w3.org/Graphics/SVG/1.1/DTD/svg11.dtd"><svg id="Raichu-Icons.fw-icon-arrow-right" viewBox="0 0 400 400" style="background-color:#ffffff00" version="1.1"	xmlns="http://www.w3.org/2000/svg" xmlns:xlink="http://www.w3.org/1999/xlink" xml:space="preserve"	x="0px" y="0px" width="400px" height="400px">	<g id="Master%20Page%20Layer28">		<g id="Layer%20156">		</g>	</g>	<g id="Layer%20157">		<path d="M 352.6909 152.2412 C 326.2876 67.9116 236.522 20.9551 152.1938 47.3594 C 67.8638 73.7617 20.9058 163.5264 47.3091 247.8569 C 48.3018 251.0264 49.3999 254.1328 50.5698 257.1943 C 50.5703 257.1968 50.5708 257.1987 50.5718 257.2012 C 50.6353 257.4019 50.7144 257.5928 50.7876 257.7871 C 50.8423 257.9287 50.897 258.0713 50.9512 258.2129 C 52.9653 262.8374 58.1792 265.2969 63.1021 263.7559 C 68.3755 262.106 71.3081 256.4956 69.6577 251.2241 C 69.5532 250.8882 69.4312 250.562 69.2944 250.2451 C 68.2446 247.5068 67.2749 244.7207 66.3853 241.8838 C 43.2808 168.0903 84.3726 89.5391 158.1646 66.4346 C 231.9585 43.3301 310.5093 84.4199 333.6147 158.2144 C 356.7202 232.0093 315.6274 310.5596 241.8345 333.6636 C 190.7544 349.6567 137.3989 334.8853 101.728 299.8037 C 101.4683 299.5479 101.2095 299.29 100.9512 299.0322 C 98.4126 296.7681 94.7886 295.8477 91.3062 296.938 C 86.0352 298.5884 83.1011 304.1987 84.7505 309.4688 C 85.3052 311.2417 86.3159 312.7417 87.603 313.9014 C 87.6021 313.8994 87.6011 313.8984 87.5991 313.8975 C 87.5923 313.9033 87.5874 313.9102 87.5815 313.917 C 128.3442 354.0977 189.3745 371.0361 247.8071 352.7397 C 332.1372 326.3369 379.0942 236.5718 352.6909 152.2412 Z" fill="#333333"/>		<path d="M 110 200.0977 C 110 205.6206 114.4766 210.0977 120 210.0977 L 256.5259 210.0972 L 216.3604 250.2617 C 212.4561 254.1675 212.4551 260.499 216.3604 264.4043 C 220.2656 268.3101 226.5977 268.3091 230.5029 264.4033 L 287.0713 207.8354 C 289.1094 205.7969 290.0737 203.0977 289.9844 200.4272 C 289.9873 200.3315 289.9976 200.2363 289.998 200.1406 C 289.998 200.126 290 200.1123 290 200.0977 C 290 200.0815 289.9976 200.0659 289.9976 200.0498 C 289.9961 199.7368 289.981 199.4243 289.9502 199.1123 C 289.9351 198.9575 289.9063 198.8066 289.8843 198.6538 C 289.8594 198.4844 289.8398 198.314 289.8066 198.1455 C 289.7725 197.9731 289.7251 197.8062 289.6826 197.6372 C 289.645 197.4902 289.6133 197.3418 289.5693 197.1963 C 289.519 197.0317 289.4575 196.873 289.3999 196.7124 C 289.3467 196.5649 289.2983 196.417 289.2383 196.272 C 289.1772 196.1245 289.106 195.9834 289.0381 195.8394 C 288.9658 195.6865 288.8979 195.5327 288.8179 195.3828 C 288.7466 195.2495 288.665 195.1226 288.5874 194.9932 C 288.498 194.8423 288.4126 194.6899 288.3145 194.543 C 288.2231 194.4072 288.1216 194.2798 288.0244 194.1489 C 287.9268 194.0176 287.8354 193.8833 287.7305 193.7559 C 287.5664 193.5557 287.3896 193.3672 287.2109 193.1807 C 287.1626 193.1304 287.1211 193.0762 287.0713 193.0264 L 230.502 136.4585 C 226.5967 132.5522 220.2656 132.5518 216.3604 136.458 C 212.4551 140.3633 212.4551 146.6943 216.3604 150.6001 L 255.8579 190.0972 L 120 190.0981 C 114.4766 190.0977 109.999 194.5742 110 200.0977 Z" fill="#333333"/>	</g></svg>