<?xml version="1.0" standalone="no"?><!-- Generator: Adobe Fireworks CS6, Export SVG Extension by Aaron Beall (http://fireworks.abeall.com) . Version: 0.6.1  --><!DOCTYPE svg PUBLIC "-//W3C//DTD SVG 1.1//EN" "http://www.w3.org/Graphics/SVG/1.1/DTD/svg11.dtd"><svg id="Raichu-Icons.fw-icon-play" viewBox="0 0 400 400" style="background-color:#ffffff00" version="1.1"	xmlns="http://www.w3.org/2000/svg" xmlns:xlink="http://www.w3.org/1999/xlink" xml:space="preserve"	x="0px" y="0px" width="400px" height="400px">	<path d="M 352.8779 152.2412 C 326.4746 67.9116 236.709 20.9551 152.3809 47.3594 C 68.0508 73.7617 21.0928 163.5264 47.4961 247.8569 C 48.4883 251.0264 49.5869 254.1328 50.7568 257.1943 C 50.7578 257.1968 50.7578 257.1987 50.7588 257.2012 C 50.8223 257.4019 50.9014 257.5928 50.9746 257.7871 C 51.0293 257.9287 51.084 258.0713 51.1387 258.2129 C 53.1523 262.8374 58.3662 265.2969 63.2891 263.7559 C 68.5625 262.106 71.4951 256.4956 69.8447 251.2241 C 69.7402 250.8882 69.6182 250.562 69.4814 250.2451 C 68.4316 247.5068 67.4619 244.7207 66.5723 241.8838 C 43.4678 168.0903 84.5596 89.5391 158.3516 66.4346 C 232.1455 43.3301 310.6963 84.4199 333.8018 158.2144 C 356.9072 232.0093 315.8145 310.5596 242.0215 333.6636 C 190.9414 349.6567 137.5859 334.8853 101.915 299.8037 C 101.6553 299.5479 101.3965 299.29 101.1387 299.0322 C 98.5996 296.7681 94.9756 295.8477 91.4932 296.938 C 86.2227 298.5884 83.2881 304.1987 84.9375 309.4688 C 85.4922 311.2417 86.5029 312.7417 87.79 313.9014 C 87.7891 313.8994 87.7881 313.8984 87.7861 313.8975 C 87.7793 313.9033 87.7744 313.9102 87.7686 313.917 C 128.5313 354.0977 189.5615 371.0361 247.9941 352.7397 C 332.3242 326.3369 379.2813 236.5718 352.8779 152.2412 Z" fill="#333333"/>	<path d="M 284.5293 191.0464 L 154.5332 121.0151 C 149.6934 118.6694 143.9043 120.5854 141.3809 125.2778 C 141.3799 125.2803 141.3789 125.2822 141.377 125.2847 C 141.3105 125.4087 141.2363 125.5264 141.1748 125.6548 C 141.1064 125.7949 141.0557 125.938 140.9941 126.0796 C 140.9727 126.1304 140.9512 126.1807 140.9307 126.2319 C 140.8301 126.4766 140.7393 126.7222 140.6602 126.9702 C 140.6367 127.0425 140.6143 127.1152 140.5928 127.1885 C 140.5215 127.4272 140.46 127.6665 140.4082 127.9077 C 140.3887 127.9951 140.3711 128.083 140.3545 128.1709 C 140.3105 128.4033 140.2754 128.6353 140.248 128.8682 C 140.2363 128.9746 140.2256 129.0815 140.2158 129.189 C 140.1982 129.4014 140.1875 129.6133 140.1836 129.8257 C 140.1826 129.9004 140.1729 129.9736 140.1729 130.0488 L 140.1719 270.0479 C 140.1719 270.1221 140.1816 270.1943 140.1836 270.2686 C 140.1514 271.7969 140.4619 273.355 141.1738 274.8252 C 143.582 279.7964 149.5635 281.8735 154.5342 279.4648 L 284.5293 209.4326 C 288.1396 207.6836 290.2119 204.0493 290.1602 200.2876 C 290.248 196.4912 288.1689 192.8101 284.5293 191.0464 ZM 160.1719 146.748 L 259.4648 200.2402 L 160.1719 253.731 L 160.1719 146.748 Z" fill="#333333"/></svg>