<?xml version="1.0" standalone="no"?><!-- Generator: Adobe Fireworks CS6, Export SVG Extension by Aaron Beall (http://fireworks.abeall.com) . Version: 0.6.1  --><!DOCTYPE svg PUBLIC "-//W3C//DTD SVG 1.1//EN" "http://www.w3.org/Graphics/SVG/1.1/DTD/svg11.dtd"><svg id="Raichu-Icons.fw-icon-arrow-left" viewBox="0 0 400 400" style="background-color:#ffffff00" version="1.1"	xmlns="http://www.w3.org/2000/svg" xmlns:xlink="http://www.w3.org/1999/xlink" xml:space="preserve"	x="0px" y="0px" width="400px" height="400px">	<g id="Master%20Page%20Layer34">		<g id="Layer%20168">		</g>	</g>	<g id="Layer%20169">		<path d="M 352.6836 152.2344 C 326.2803 67.9053 236.5146 20.9482 152.1865 47.3525 C 67.8564 73.7549 20.8984 163.5195 47.3018 247.8506 C 48.2939 251.0205 49.3926 254.127 50.5625 257.1885 C 50.5635 257.1904 50.5635 257.1924 50.5645 257.1943 C 50.6279 257.3955 50.707 257.5859 50.7803 257.7803 C 50.835 257.9219 50.8896 258.0654 50.9443 258.207 C 52.958 262.8311 58.1719 265.29 63.0947 263.749 C 68.3682 262.0996 71.3008 256.4893 69.6504 251.2178 C 69.5459 250.8818 69.4238 250.5557 69.2871 250.2383 C 68.2373 247.5 67.2676 244.7148 66.3779 241.8779 C 43.2734 168.084 84.3652 89.5322 158.1572 66.4277 C 231.9512 43.3232 310.502 84.4131 333.6074 158.208 C 356.7129 232.0029 315.6201 310.5527 241.8271 333.6572 C 190.7471 349.6504 137.3916 334.8789 101.7207 299.7969 C 101.4609 299.541 101.2021 299.2832 100.9443 299.0254 C 98.4053 296.7617 94.7813 295.8408 91.2988 296.9316 C 86.0283 298.582 83.0938 304.1924 84.7432 309.4619 C 85.2979 311.2354 86.3086 312.7354 87.5957 313.8945 C 87.5947 313.8926 87.5938 313.8916 87.5918 313.8906 C 87.585 313.8965 87.5801 313.9033 87.5742 313.9111 C 128.3369 354.0908 189.3672 371.0293 247.7998 352.7334 C 332.1299 326.3301 379.0869 236.5654 352.6836 152.2344 Z" fill="#333333"/>		<path d="M 293.3008 200.0908 C 293.3008 205.6143 288.8242 210.0908 283.3008 210.0908 L 146.7744 210.0908 L 186.9404 250.2549 C 190.8447 254.1611 190.8457 260.4922 186.9404 264.3984 C 183.0352 268.3037 176.7031 268.3027 172.7979 264.3965 L 116.2295 207.8291 C 114.1904 205.79 113.2266 203.0918 113.3164 200.4209 C 113.3135 200.3252 113.3027 200.2305 113.3027 200.1348 C 113.3027 200.1201 113.3008 200.1055 113.3008 200.0908 C 113.3008 200.0752 113.3027 200.0596 113.3027 200.0439 C 113.3047 199.7305 113.3193 199.418 113.3506 199.1064 C 113.3652 198.9512 113.3945 198.7998 113.417 198.6475 C 113.4414 198.4775 113.4609 198.3076 113.4941 198.1387 C 113.5283 197.9668 113.5752 197.7998 113.6182 197.6299 C 113.6553 197.4834 113.6875 197.3359 113.7314 197.1904 C 113.7813 197.0254 113.8428 196.8662 113.9014 196.7051 C 113.9541 196.5586 114.002 196.4102 114.0625 196.2656 C 114.123 196.1182 114.1953 195.9766 114.2627 195.832 C 114.335 195.6797 114.4023 195.5264 114.4824 195.377 C 114.5537 195.2432 114.6357 195.1162 114.7129 194.9863 C 114.8027 194.8359 114.8877 194.6836 114.9863 194.5361 C 115.0771 194.4014 115.1777 194.2744 115.2744 194.1445 C 115.373 194.0127 115.4648 193.8779 115.5703 193.749 C 115.7314 193.5527 115.9063 193.3662 116.082 193.1826 C 116.1328 193.1299 116.1768 193.0723 116.2295 193.0195 L 172.7988 136.4521 C 176.7041 132.5459 183.0352 132.5449 186.9404 136.4512 C 190.8457 140.3564 190.8457 146.6875 186.9404 150.5938 L 147.4424 190.0908 L 283.3008 190.0918 C 288.8242 190.0908 293.3018 194.5674 293.3008 200.0908 Z" fill="#333333"/>	</g></svg>