<?xml version="1.0" standalone="no"?><!-- Generator: Adobe Fireworks CS6, Export SVG Extension by Aaron Beall (http://fireworks.abeall.com) . Version: 0.6.1  --><!DOCTYPE svg PUBLIC "-//W3C//DTD SVG 1.1//EN" "http://www.w3.org/Graphics/SVG/1.1/DTD/svg11.dtd"><svg id="Raichu-Icons.fw-icon-youtube" viewBox="0 0 400 400" style="background-color:#ffffff00" version="1.1"	xmlns="http://www.w3.org/2000/svg" xmlns:xlink="http://www.w3.org/1999/xlink" xml:space="preserve"	x="0px" y="0px" width="400px" height="400px">	<g id="Master%20Page%20Layer30">		<g id="Layer%20160">		</g>	</g>	<g id="Layer%20161">		<path d="M 353.3159 152.2412 C 326.9126 67.9116 237.147 20.9551 152.8188 47.3594 C 68.4888 73.7617 21.5308 163.5264 47.9341 247.8569 C 48.9268 251.0264 50.0249 254.1328 51.1948 257.1943 C 51.1953 257.1968 51.1958 257.1987 51.1968 257.2012 C 51.2603 257.4019 51.3394 257.5928 51.4126 257.7871 C 51.4673 257.9287 51.522 258.0713 51.5762 258.2129 C 53.5903 262.8374 58.8042 265.2969 63.7271 263.7559 C 69.0005 262.106 71.9331 256.4956 70.2827 251.2241 C 70.1782 250.8882 70.0562 250.562 69.9194 250.2451 C 68.8691 247.5068 67.8999 244.7207 67.0103 241.8838 C 43.9058 168.0903 84.9976 89.5391 158.7896 66.4346 C 232.5835 43.3301 311.1343 84.4199 334.2397 158.2144 C 357.3452 232.0093 316.2524 310.5596 242.4595 333.6636 C 191.3794 349.6567 138.0239 334.8853 102.353 299.8037 C 102.0933 299.5479 101.8345 299.29 101.5762 299.0322 C 99.0371 296.7681 95.4136 295.8477 91.9312 296.938 C 86.6602 298.5884 83.7261 304.1987 85.3755 309.4688 C 85.9302 311.2417 86.9409 312.7417 88.228 313.9014 C 88.2271 313.8994 88.2261 313.8984 88.2241 313.8975 C 88.2173 313.9033 88.2124 313.9102 88.2065 313.917 C 128.9692 354.0977 189.9995 371.0361 248.4321 352.7397 C 332.7622 326.3369 379.7192 236.5718 353.3159 152.2412 Z" fill="#333333"/>		<path d="M 251.894 197.896 L 150.2368 197.896 C 134.0781 197.896 120.9795 211.0078 120.9795 227.1631 L 120.9795 250.6792 C 120.9795 266.8345 134.0781 279.9429 150.2368 279.9429 L 251.894 279.9429 C 268.0493 279.9429 281.1514 266.8345 281.1514 250.6792 L 281.1514 227.1631 C 281.1514 211.0078 268.0493 197.896 251.894 197.896 ZM 171.5942 216.2031 L 162.1436 216.2031 L 162.1436 263.1641 L 153.0127 263.1641 L 153.0127 216.2031 L 143.5684 216.2031 L 143.5684 208.2153 L 171.5942 208.2153 L 171.5942 216.2031 ZM 198.291 263.1641 L 190.1924 263.1641 L 190.1924 258.7227 C 188.687 260.3652 187.1353 261.6191 185.5161 262.4648 C 183.896 263.3467 182.332 263.7583 180.8101 263.7583 C 178.9292 263.7583 177.5313 263.1606 176.5742 261.9458 C 175.6338 260.7344 175.1538 258.938 175.1538 256.5117 L 175.1538 222.6235 L 183.2529 222.6235 L 183.2529 253.7227 C 183.2529 254.6826 183.4326 255.3721 183.7559 255.7998 C 184.105 256.2407 184.6602 256.4434 185.4214 256.4434 C 186.0088 256.4434 186.7661 256.1621 187.6777 255.5938 C 188.5952 255.019 189.4316 254.3008 190.1924 253.4126 L 190.1924 222.6206 L 198.291 222.6206 L 198.291 263.1641 ZM 227.6953 254.7939 C 227.6953 257.6577 227.0586 259.8589 225.7881 261.3936 C 224.5244 262.9287 222.6763 263.6831 220.2822 263.6831 C 218.6885 263.6831 217.2715 263.3955 216.04 262.8013 C 214.8027 262.2134 213.6367 261.3091 212.5752 260.0547 L 212.5752 263.1606 L 204.3784 263.1606 L 204.3784 208.2153 L 212.5752 208.2153 L 212.5752 225.9121 C 213.6729 224.6875 214.832 223.7373 216.0435 223.1006 C 217.2813 222.4507 218.5254 222.1372 219.7861 222.1372 C 222.3496 222.1372 224.3022 222.9927 225.6543 224.7202 C 227.0127 226.4478 227.689 228.9785 227.689 232.2964 L 227.689 254.7939 L 227.6953 254.7939 ZM 255.79 243.8701 L 240.291 243.8701 L 240.291 251.5088 C 240.291 253.6377 240.5522 255.1206 241.0815 255.9468 C 241.6235 256.7764 242.5347 257.1812 243.8311 257.1812 C 245.1763 257.1812 246.1074 256.8315 246.6494 256.1328 C 247.1719 255.4272 247.4526 253.8926 247.4526 251.5088 L 247.4526 249.6636 L 255.79 249.6636 L 255.79 251.7437 C 255.79 255.8975 254.7813 259.0293 252.7334 261.1426 C 250.7188 263.2358 247.6816 264.2744 243.645 264.2744 C 240.0103 264.2744 237.1465 263.167 235.0659 260.9399 C 232.9922 258.7256 231.9341 255.6528 231.9341 251.7471 L 231.9341 233.5376 C 231.9341 230.0337 233.0903 227.1499 235.3862 224.939 C 237.6753 222.728 240.6245 221.6245 244.2524 221.6245 C 247.9653 221.6245 250.8164 222.6465 252.8052 224.6973 C 254.7939 226.7515 255.79 229.6904 255.79 233.5342 L 255.79 243.8701 Z" fill="#333333"/>		<path d="M 243.9092 228.7109 C 242.6162 228.7109 241.6953 229.0732 241.1338 229.8311 C 240.5591 230.543 240.291 231.7607 240.291 233.4624 L 240.291 237.561 L 247.4526 237.561 L 247.4526 233.4624 C 247.4526 231.7607 247.1655 230.5396 246.5972 229.8311 C 246.0518 229.0767 245.1406 228.7109 243.9092 228.7109 Z" fill="#333333"/>		<path d="M 215.9653 228.5737 C 215.3901 228.5737 214.8091 228.7012 214.2505 228.9658 C 213.6826 229.2236 213.1274 229.6514 212.5781 230.2065 L 212.5781 255.46 C 213.2285 256.1133 213.8716 256.6162 214.499 256.9033 C 215.1226 257.1812 215.769 257.3379 216.458 257.3379 C 217.4541 257.3379 218.1792 257.0503 218.646 256.4692 C 219.1069 255.8945 219.3418 254.9766 219.3418 253.6802 L 219.3418 232.7441 C 219.3418 231.3657 219.0674 230.334 218.4927 229.6255 C 217.8984 228.9263 217.0557 228.5737 215.9653 228.5737 Z" fill="#333333"/>		<path d="M 163.5474 183.8145 L 173.8149 183.8145 L 173.8149 158.7012 L 185.7705 123.2749 L 175.3335 123.2749 L 168.9785 147.4736 L 168.332 147.4736 L 161.6602 123.2749 L 151.3174 123.2749 L 163.5474 159.8311 L 163.5474 183.8145 Z" fill="#333333"/>		<path d="M 199.6826 184.9409 C 203.8296 184.9409 207.0825 183.8535 209.4531 181.6787 C 211.8081 179.4937 212.9868 176.5122 212.9868 172.6914 L 212.9868 149.6226 C 212.9868 146.2231 211.7817 143.4243 209.3813 141.2656 C 206.9648 139.1138 203.8691 138.0293 200.0938 138.0293 C 195.9463 138.0293 192.645 139.0547 190.189 141.1025 C 187.7397 143.1499 186.5083 145.8965 186.5083 149.3677 L 186.5083 172.5151 C 186.5083 176.313 187.707 179.3174 190.1011 181.5708 C 192.4941 183.8145 195.6948 184.9409 199.6826 184.9409 ZM 195.9009 149.0283 C 195.9009 148.0581 196.25 147.2744 196.9326 146.6606 C 197.6411 146.0596 198.5396 145.769 199.6563 145.769 C 200.8613 145.769 201.8379 146.0596 202.5825 146.6606 C 203.3232 147.2744 203.6929 148.0581 203.6929 149.0283 L 203.6929 173.3608 C 203.6929 174.5527 203.3301 175.5 202.5952 176.1821 C 201.8672 176.8682 200.8872 177.2046 199.6563 177.2046 C 198.4512 177.2046 197.5205 176.8779 196.8672 176.1924 C 196.2241 175.5225 195.8975 174.582 195.8975 173.3574 L 195.8975 149.0283 L 195.9009 149.0283 Z" fill="#333333"/>		<path d="M 226.7583 184.4673 C 228.4727 184.4673 230.2329 183.9775 232.0454 183.0371 C 233.8774 182.0835 235.6309 180.689 237.2998 178.8701 L 237.2998 183.8174 L 246.4209 183.8174 L 246.4209 139.1592 L 237.2998 139.1592 L 237.2998 173.0571 C 236.4507 174.0269 235.5068 174.8237 234.4941 175.4575 C 233.4629 176.0845 232.6133 176.3979 231.9443 176.3979 C 231.0884 176.3979 230.458 176.1626 230.0894 175.6763 C 229.7134 175.209 229.5015 174.4448 229.5015 173.3965 L 229.5015 139.1592 L 220.3936 139.1592 L 220.3936 176.4829 C 220.3936 179.1445 220.9287 181.1333 221.9868 182.4526 C 223.0649 183.7915 224.6387 184.4673 226.7583 184.4673 Z" fill="#333333"/>	</g></svg>