<?xml version="1.0" standalone="no"?><!-- Generator: Adobe Fireworks CS6, Export SVG Extension by Aaron Beall (http://fireworks.abeall.com) . Version: 0.6.1  --><!DOCTYPE svg PUBLIC "-//W3C//DTD SVG 1.1//EN" "http://www.w3.org/Graphics/SVG/1.1/DTD/svg11.dtd"><svg id="Raichu-Icons.fw-icon-library" viewBox="0 0 400 400" style="background-color:#ffffff00" version="1.1"	xmlns="http://www.w3.org/2000/svg" xmlns:xlink="http://www.w3.org/1999/xlink" xml:space="preserve"	x="0px" y="0px" width="400px" height="400px">	<g id="Master%20Page%20Layer17">		<g id="Layer%20134">		</g>	</g>	<g id="Layer%20135">		<path d="M 57.6582 340.5483 C 57.6582 346.0708 53.1816 350.5483 47.6582 350.5483 L 47.6582 350.5483 C 42.1348 350.5483 37.6582 346.0708 37.6582 340.5483 L 37.6582 121.5483 C 37.6582 116.0254 42.1348 111.5483 47.6582 111.5483 L 47.6582 111.5483 C 53.1816 111.5483 57.6582 116.0254 57.6582 121.5483 L 57.6582 340.5483 Z" fill="#333333"/>		<path d="M 84.584 200.1948 C 84.4844 200.0044 84.3828 199.8154 84.2832 199.6245 C 84.3789 199.8179 84.4775 200.0088 84.584 200.1948 Z" fill="#ffffff"/>		<path d="M 260.1377 49.7539 C 260.1348 49.7524 260.1309 49.751 260.127 49.749 C 260.2471 49.8105 260.3555 49.8857 260.4727 49.9512 C 260.3594 49.8872 260.2529 49.8159 260.1377 49.7539 Z" fill="#333333"/>		<path d="M 359.4277 120.1226 C 359.4326 119.9893 359.4473 119.8594 359.4473 119.7246 C 359.4473 114.2012 354.9697 109.7246 349.4473 109.7246 L 319.4473 109.7246 L 319.4473 79.5581 C 319.4473 74.0347 314.9707 69.5581 309.4473 69.5581 C 309.1631 69.5581 308.8838 69.5776 308.6045 69.6006 L 210.4082 69.6006 C 209.6641 69.6006 208.9414 69.6885 208.2432 69.8428 C 203.4121 70.5493 199.6992 74.6973 199.6992 79.7246 L 199.6992 109.8921 L 49.9922 109.8921 C 44.4697 109.8921 39.9922 114.3687 39.9922 119.8921 C 39.9922 125.4155 44.4697 129.8921 49.9922 129.8921 L 208.9297 129.8921 C 209.793 129.8921 210.625 129.7715 211.4248 129.5659 C 216.124 128.7471 219.6992 124.6577 219.6992 119.7246 L 219.6992 89.6006 L 299.4473 89.6006 L 299.4473 119.5581 C 299.4473 119.5864 299.4512 119.6133 299.4512 119.6416 C 299.4512 119.6694 299.4473 119.6968 299.4473 119.7246 C 299.4473 125.248 303.9248 129.7246 309.4473 129.7246 L 339.5098 129.7246 L 339.5098 339.3477 C 339.5098 344.8711 343.9883 349.3477 349.5098 349.3477 C 355.0342 349.3477 359.5098 344.8711 359.5098 339.3477 L 359.5098 121.3477 C 359.5098 120.9321 359.4766 120.5249 359.4277 120.1226 Z" fill="#333333"/>		<path d="M 309.4492 329.9751 L 49.4492 329.9751 C 43.9258 329.9751 39.4492 334.4517 39.4492 339.9751 C 39.4492 345.4985 43.9258 349.9751 49.4492 349.9751 L 309.4492 349.9751 C 314.9707 349.9751 319.4492 345.4985 319.4492 339.9751 C 319.4492 334.4517 314.9707 329.9751 309.4492 329.9751 Z" fill="#333333"/>	</g></svg>