<?xml version="1.0" standalone="no"?><!-- Generator: Adobe Fireworks CS6, Export SVG Extension by Aaron Beall (http://fireworks.abeall.com) . Version: 0.6.1  --><!DOCTYPE svg PUBLIC "-//W3C//DTD SVG 1.1//EN" "http://www.w3.org/Graphics/SVG/1.1/DTD/svg11.dtd"><svg id="Raichu-Icons.fw-icon-linkedin" viewBox="0 0 400 400" style="background-color:#ffffff00" version="1.1"	xmlns="http://www.w3.org/2000/svg" xmlns:xlink="http://www.w3.org/1999/xlink" xml:space="preserve"	x="0px" y="0px" width="400px" height="400px">	<g id="Master%20Page%20Layer37">		<g id="Layer%20174">		</g>	</g>	<g id="Layer%20175">		<path d="M 352.7627 152.2407 C 326.3594 67.9111 236.5938 20.9546 152.2656 47.3589 C 67.9355 73.7612 20.9775 163.5259 47.3809 247.8564 C 48.3735 251.0264 49.4712 254.1323 50.6416 257.1943 C 50.6421 257.1963 50.6426 257.1987 50.6436 257.2007 C 50.707 257.4014 50.7861 257.5923 50.8594 257.7866 C 50.9141 257.9282 50.9688 258.0708 51.0234 258.2124 C 53.0371 262.8369 58.251 265.2964 63.1738 263.7554 C 68.4468 262.1055 71.3799 256.4951 69.7295 251.2236 C 69.625 250.8877 69.5029 250.5615 69.3662 250.2446 C 68.3164 247.5063 67.3467 244.7202 66.457 241.8833 C 43.3525 168.0898 84.4438 89.5386 158.2363 66.4341 C 232.0298 43.3296 310.5811 84.4194 333.6865 158.2139 C 356.792 232.0088 315.6992 310.5591 241.9063 333.6631 C 190.8262 349.6563 137.4707 334.8848 101.7998 299.8032 C 101.54 299.5474 101.2813 299.2896 101.0234 299.0317 C 98.4844 296.7676 94.8599 295.8472 91.3779 296.9375 C 86.1074 298.5879 83.1729 304.1982 84.8218 309.4683 C 85.377 311.2412 86.3877 312.7412 87.6748 313.9009 C 87.6738 313.8989 87.6729 313.8979 87.6709 313.897 C 87.6641 313.9028 87.6592 313.9097 87.6528 313.9165 C 128.416 354.0972 189.4463 371.0356 247.8789 352.7393 C 332.209 326.3364 379.166 236.5713 352.7627 152.2407 Z" fill="#333333"/>		<path d="M 286.2661 218.0073 L 286.2661 279.3594 L 250.6978 279.3594 L 250.6978 222.105 C 250.6978 207.7207 245.5513 197.9067 232.6768 197.9067 C 222.8398 197.9067 216.9961 204.5225 214.4204 210.9248 C 213.4868 213.2129 213.2388 216.3877 213.2388 219.5981 L 213.2388 279.3594 L 177.6587 279.3594 C 177.6587 279.3594 178.1313 182.3926 177.6587 172.354 L 213.2388 172.354 L 213.2388 187.5273 C 213.1694 187.6426 213.0776 187.7637 213.0024 187.873 L 213.2388 187.873 L 213.2388 187.5273 C 217.9644 180.2373 226.4072 169.8467 245.3037 169.8467 C 268.7236 169.8413 286.2661 185.1416 286.2661 218.0073 L 286.2661 218.0073 ZM 140.4536 120.7705 C 128.2769 120.7705 120.3179 128.7637 120.3179 139.2637 C 120.3179 149.5215 128.0518 157.7568 139.981 157.7568 L 140.2173 157.7568 C 152.6133 157.7568 160.3354 149.5273 160.3354 139.2637 C 160.0991 128.7637 152.6133 120.7705 140.4419 120.7705 L 140.4536 120.7705 ZM 122.4326 279.3647 L 158.0015 279.3647 L 158.0015 172.3594 L 122.4326 172.3594 L 122.4326 279.3647 Z" fill="#333333"/>	</g></svg>