<?xml version="1.0" standalone="no"?><!-- Generator: Adobe Fireworks CS6, Export SVG Extension by Aaron Beall (http://fireworks.abeall.com) . Version: 0.6.1  --><!DOCTYPE svg PUBLIC "-//W3C//DTD SVG 1.1//EN" "http://www.w3.org/Graphics/SVG/1.1/DTD/svg11.dtd"><svg id="Raichu-Icons.fw-icon-user" viewBox="0 0 400 400" style="background-color:#ffffff00" version="1.1"	xmlns="http://www.w3.org/2000/svg" xmlns:xlink="http://www.w3.org/1999/xlink" xml:space="preserve"	x="0px" y="0px" width="400px" height="400px">	<g id="Master%20Page%20Layer13">		<g id="Layer%20126">		</g>	</g>	<g id="Layer%20127">		<path d="M 260.3975 140.272 C 260.3975 107.2266 233.6074 80.4385 200.5635 80.4385 C 167.5186 80.4385 140.7305 107.2266 140.7305 140.272 C 140.7305 173.3184 167.5186 200.106 200.5635 200.106 C 233.6074 200.106 260.3975 173.3184 260.3975 140.272 ZM 160.6836 140.272 C 160.6836 118.2466 178.5391 100.3916 200.5635 100.3916 C 222.5879 100.3916 240.4443 118.2466 240.4443 140.272 C 240.4443 162.2983 222.5879 180.1528 200.5635 180.1528 C 178.5391 180.1528 160.6836 162.2983 160.6836 140.272 Z" fill="#333333"/>		<path d="M 353.2559 152.2412 C 326.8516 67.9116 237.0859 20.9551 152.7578 47.3594 C 68.4277 73.7617 21.4697 163.5264 47.873 247.8564 C 48.8652 251.0259 49.9629 254.1313 51.1328 257.1929 L 51.1338 257.1943 L 51.1348 257.1958 C 51.1348 257.1973 51.1348 257.1992 51.1348 257.2012 C 51.1992 257.4014 51.2783 257.5928 51.3516 257.7871 C 51.4063 257.9287 51.4609 258.0713 51.5156 258.2129 C 53.5293 262.8369 58.7432 265.2969 63.666 263.7559 C 68.9395 262.1064 71.8711 256.4951 70.2217 251.2236 C 70.1172 250.8877 69.9951 250.5615 69.8584 250.2451 C 68.8086 247.5068 67.8379 244.7207 66.9492 241.8838 C 43.8447 168.0903 84.9355 89.5391 158.7285 66.4346 C 232.5215 43.3301 311.0723 84.4199 334.1787 158.2144 C 350.1641 209.2686 335.416 262.5933 300.375 298.2642 C 299.4219 243.9512 255.1006 200.2148 200.5625 200.2148 C 145.9678 200.2148 101.6152 244.0415 100.751 298.4326 C 101.0117 298.6235 101.2734 298.8159 101.5156 299.0322 C 98.9766 296.7686 95.3516 295.8477 91.8691 296.9385 C 86.5996 298.5889 83.665 304.1982 85.3145 309.4688 C 85.8691 311.2412 86.8799 312.7412 88.167 313.9014 C 88.166 313.8994 88.165 313.8984 88.1631 313.8975 C 88.1563 313.9033 88.1514 313.9102 88.1455 313.917 C 128.9082 354.0977 189.9385 371.0361 248.3711 352.7393 C 332.7012 326.3369 379.6582 236.5718 353.2559 152.2412 ZM 279.6992 315.5552 C 268.5059 323.2202 256.0195 329.3989 242.3984 333.6631 C 199.793 347.0039 155.6133 338.9263 121.4238 315.5259 C 120.4492 310.5151 119.9238 305.3442 119.9238 300.0483 C 119.9238 255.5117 156.0293 219.4077 200.5625 219.4077 C 245.0977 219.4077 281.2051 255.5117 281.2051 300.0483 C 281.2051 305.3545 280.6777 310.5356 279.6992 315.5552 Z" fill="#333333"/>	</g></svg>