<?xml version="1.0" standalone="no"?><!-- Generator: Adobe Fireworks CS6, Export SVG Extension by Aaron Beall (http://fireworks.abeall.com) . Version: 0.6.1  --><!DOCTYPE svg PUBLIC "-//W3C//DTD SVG 1.1//EN" "http://www.w3.org/Graphics/SVG/1.1/DTD/svg11.dtd"><svg id="Raichu-Icons.fw-icon-facebook" viewBox="0 0 400 400" style="background-color:#ffffff00" version="1.1"	xmlns="http://www.w3.org/2000/svg" xmlns:xlink="http://www.w3.org/1999/xlink" xml:space="preserve"	x="0px" y="0px" width="400px" height="400px">	<g id="Master%20Page%20Layer36">		<g id="Layer%20172">		</g>	</g>	<g id="Layer%20173">		<path d="M 352.7627 152.2412 C 326.3594 67.9116 236.5938 20.9551 152.2656 47.3594 C 67.9355 73.7617 20.9775 163.5264 47.3809 247.8569 C 48.3735 251.0264 49.4712 254.1328 50.6416 257.1943 C 50.6421 257.1968 50.6426 257.1987 50.6436 257.2012 C 50.707 257.4019 50.7861 257.5928 50.8594 257.7871 C 50.9141 257.9287 50.9688 258.0713 51.0234 258.2129 C 53.0371 262.8374 58.251 265.2969 63.1738 263.7559 C 68.4468 262.106 71.3799 256.4956 69.7295 251.2241 C 69.625 250.8882 69.5029 250.562 69.3662 250.2451 C 68.3164 247.5068 67.3467 244.7207 66.457 241.8838 C 43.3525 168.0903 84.4438 89.5391 158.2363 66.4346 C 232.0298 43.3301 310.5811 84.4199 333.6865 158.2144 C 356.792 232.0093 315.6992 310.5596 241.9063 333.6636 C 190.8262 349.6567 137.4707 334.8853 101.7998 299.8037 C 101.54 299.5479 101.2813 299.29 101.0234 299.0322 C 98.4844 296.7681 94.8599 295.8477 91.3779 296.938 C 86.1074 298.5884 83.1729 304.1987 84.8218 309.4688 C 85.377 311.2417 86.3877 312.7417 87.6748 313.9014 C 87.6738 313.8994 87.6729 313.8984 87.6709 313.8975 C 87.6641 313.9033 87.6592 313.9102 87.6528 313.917 C 128.416 354.0977 189.4463 371.0361 247.8789 352.7397 C 332.209 326.3369 379.166 236.5718 352.7627 152.2412 Z" fill="#333333"/>		<path d="M 213.2949 300.3022 L 213.2949 214.8584 L 249.9136 214.8584 L 256.0171 178.2393 L 213.2949 178.2393 L 213.2949 159.9297 C 213.2949 147.7236 219.4102 141.6206 231.6045 141.6206 L 249.9136 141.6206 L 249.9136 105.0015 C 243.8105 105.0015 230.1396 105.0015 219.3979 105.0015 C 188.8823 105.0015 176.6758 123.311 176.6758 153.8267 L 176.6758 178.2393 L 140.0566 178.2393 L 140.0566 214.8584 L 176.6758 214.8584 L 176.6758 300.3022 L 213.2949 300.3022 Z" fill="#333333"/>	</g></svg>