<?xml version="1.0" standalone="no"?><!-- Generator: Adobe Fireworks CS6, Export SVG Extension by Aaron Beall (http://fireworks.abeall.com) . Version: 0.6.1  --><!DOCTYPE svg PUBLIC "-//W3C//DTD SVG 1.1//EN" "http://www.w3.org/Graphics/SVG/1.1/DTD/svg11.dtd"><svg id="Icons-icon-two-circles" viewBox="0 0 32 32" style="background-color:#ffffff00" version="1.1"	xmlns="http://www.w3.org/2000/svg" xmlns:xlink="http://www.w3.org/1999/xlink" xml:space="preserve"	x="0px" y="0px" width="32px" height="32px">	<g id="Layer%201">		<path id="Ellipse" d="M 8 16 C 8 11.5818 11.5816 8 16 8 C 20.4184 8 24 11.5818 24 16 C 24 20.4182 20.4184 24 16 24 C 11.5816 24 8 20.4182 8 16 Z" fill="#CCCCCC"/>		<path d="M 5.44 16 C 5.44 10.1678 10.1678 5.44 16 5.44 C 21.8322 5.44 26.56 10.1678 26.56 16 C 26.56 21.8322 21.8322 26.56 16 26.56 C 10.1678 26.56 5.44 21.8322 5.44 16 ZM 4 16 C 4 22.6275 9.3725 28 16 28 C 22.6275 28 28 22.6275 28 16 C 28 9.3725 22.6275 4 16 4 C 9.3725 4 4 9.3725 4 16 Z" fill="#CCCCCC"/>	</g></svg>