<?xml version="1.0" standalone="no"?><!-- Generator: Adobe Fireworks CS6, Export SVG Extension by Aaron Beall (http://fireworks.abeall.com) . Version: 0.6.1  --><!DOCTYPE svg PUBLIC "-//W3C//DTD SVG 1.1//EN" "http://www.w3.org/Graphics/SVG/1.1/DTD/svg11.dtd"><svg id="Raichu-Icons.fw-icon-faculty" viewBox="0 0 400 400" style="background-color:#ffffff00" version="1.1"	xmlns="http://www.w3.org/2000/svg" xmlns:xlink="http://www.w3.org/1999/xlink" xml:space="preserve"	x="0px" y="0px" width="400px" height="400px">	<g id="Master%20Page%20Layer48">		<g id="Layer%20196">		</g>	</g>	<g id="Layer%20197">		<path d="M 55 311.3553 L 55 359.9966 L 130.3581 359.9966 L 130.3581 311.3553 C 130.3581 309.1086 129.508 306.9572 127.9026 305.3735 C 126.2973 303.7517 124.1792 302.8788 121.9184 302.8788 L 63.4682 302.8788 C 61.2312 302.8788 59.0607 303.7803 57.484 305.345 C 55.8882 306.9286 55 309.1371 55 311.3553 Z" fill="#181512"/>		<path d="M 199.9019 227.7941 C 198.3061 228.9104 197.4181 230.4707 197.4181 232.0686 L 197.4181 359.9994 L 272.7855 359.9994 L 272.7855 232.0686 C 272.7855 230.4612 271.9117 228.9395 270.2969 227.7941 C 268.7202 226.6688 266.5781 226.0531 264.3223 226.0531 L 205.8671 226.0531 C 203.6491 226.0531 201.4597 226.6969 199.9019 227.7941 Z" fill="#181512"/>		<path d="M 272.1069 198.3622 C 270.5206 199.7313 269.6371 201.6155 269.6371 203.5809 L 269.6371 359.999 L 345 359.999 L 345 203.5809 C 345 201.5964 344.1356 199.76 342.5113 198.3622 C 340.925 196.9837 338.7925 196.2205 336.5461 196.2205 L 278.0816 196.2205 C 275.8732 196.2205 273.6742 197.0028 272.1069 198.3622 Z" fill="#181512"/>		<path d="M 134.1343 267.4923 C 131.9258 267.4923 129.7364 268.2269 128.1786 269.4863 C 126.5923 270.798 125.6757 272.5869 125.6757 274.3853 L 125.6757 360 L 201.0527 360 L 201.0527 274.3853 C 201.0527 272.5439 200.1693 270.8267 198.5641 269.5149 C 196.9683 268.2078 194.8263 267.4923 192.5941 267.4923 L 134.1343 267.4923 Z" fill="#181512"/>		<path d="M 161.2483 84.7171 L 161.3576 84.7081 C 173.8816 84.6509 184.0119 74.4422 184.0119 61.8542 C 184.0119 49.2324 173.8152 39 161.2483 39 C 148.6721 39 138.4656 49.2324 138.4656 61.8542 C 138.4656 67.0536 140.2752 71.8047 143.1866 75.6543 C 147.3423 81.1208 153.8441 84.7171 161.2483 84.7171 Z" fill="#181512"/>		<path d="M 109.6827 187.1357 C 109.6827 187.1357 99.4812 216.8109 93.155 253.5649 C 86.8193 290.3094 88.681 321.6303 118.8395 262.3945 C 134.6643 231.3074 140.0595 207.5186 140.0595 207.5186 C 140.0595 207.5186 156.934 214.0776 157.5373 227.0667 C 157.8696 234.5462 156.7202 261.6026 163.4169 261.9698 C 170.0993 262.3134 175.2856 255.2057 181.8064 232.7241 C 184.0576 224.9917 187.7763 201.5654 173.6992 192.0251 C 159.6268 182.4848 149.791 175.1244 149.791 175.1244 L 157.1762 145.788 C 157.1762 145.788 163.5213 157.4511 175.4803 165.2216 C 187.4344 173.0017 207.5622 182.5516 208.9014 165.2216 C 209.5568 156.7069 203.9764 158.5148 193.7701 153.5682 C 183.5684 148.6214 170.5505 126.3544 163.8634 110.4602 C 157.1762 94.5566 150.4986 80.7659 132.9023 86.433 C 115.3154 92.0856 105.4604 142.2676 104.4062 150.3912 C 103.3565 158.5148 98.783 175.8353 109.6827 187.1357 Z" fill="#181512"/>	</g></svg>