<?xml version="1.0" standalone="no"?><!-- Generator: Adobe Fireworks CS6, Export SVG Extension by Aaron Beall (http://fireworks.abeall.com) . Version: 0.6.1  --><!DOCTYPE svg PUBLIC "-//W3C//DTD SVG 1.1//EN" "http://www.w3.org/Graphics/SVG/1.1/DTD/svg11.dtd"><svg id="Raichu-Icons.fw-icon-link" viewBox="0 0 400 400" style="background-color:#ffffff00" version="1.1"	xmlns="http://www.w3.org/2000/svg" xmlns:xlink="http://www.w3.org/1999/xlink" xml:space="preserve"	x="0px" y="0px" width="400px" height="400px">	<g id="Master%20Page%20Layer15">		<g id="Layer%20130">		</g>	</g>	<g id="Layer%20131">		<path d="M 221.0996 263.793 L 200.0684 284.8232 L 164.5313 320.3604 C 164.4756 320.417 164.4277 320.4775 164.374 320.5356 C 164.375 320.5342 164.376 320.5317 164.3779 320.5303 C 164.3721 320.5083 164.3594 320.4912 164.3545 320.4692 C 153.415 332.2866 137.7793 339.6899 120.4082 339.6899 C 87.3369 339.6904 60.5264 312.8823 60.5264 279.8105 C 60.5264 262.4434 67.9268 246.811 79.7393 235.8735 C 79.7295 235.8594 79.7256 235.8433 79.7168 235.8296 C 79.791 235.7603 79.8672 235.6992 79.9395 235.6284 L 115.4199 200.1475 L 115.4209 200.1475 L 136.5078 179.0601 C 140.4121 175.1543 140.4121 168.8237 136.5078 164.918 C 132.6016 161.0117 126.2705 161.0122 122.3662 164.918 L 65.7969 221.4863 C 65.5391 221.7441 65.3008 222.0132 65.0771 222.29 C 49.9814 236.814 40.5732 257.207 40.5742 279.8101 C 40.5732 323.9028 76.3145 359.6436 120.4072 359.6436 C 142.9434 359.6436 163.2832 350.291 177.8008 335.2725 C 178.1016 335.0347 178.3955 334.7813 178.6748 334.5024 L 235.2432 277.9351 C 239.1465 274.0293 239.1465 267.6987 235.2432 263.7925 C 231.3359 259.8872 225.0059 259.8872 221.0996 263.793 Z" fill="#333333"/>		<path d="M 279.875 40.4536 C 257.3379 40.4531 236.9961 49.8057 222.4805 64.8242 C 222.1787 65.0625 221.8867 65.3159 221.6074 65.5942 L 165.0381 122.1631 C 161.1348 126.0679 161.1348 132.3979 165.0381 136.3047 C 168.9463 140.2095 175.2754 140.21 179.1836 136.3042 L 200.2129 115.2744 L 235.75 79.7368 C 235.8066 79.6797 235.8535 79.6201 235.9082 79.561 C 235.9072 79.563 235.9053 79.5654 235.9033 79.5669 C 235.9092 79.5889 235.9219 79.606 235.9268 79.6279 C 246.8662 67.8105 262.502 60.4072 279.873 60.4072 C 312.9453 60.4067 339.7559 87.2148 339.7549 120.2861 C 339.7559 137.6538 332.3545 153.2861 320.543 164.2231 C 320.5508 164.2378 320.5566 164.2534 320.5625 164.2676 C 320.4902 164.3369 320.4121 164.3975 320.3418 164.4688 L 284.8613 199.9492 C 284.8613 199.9497 284.8613 199.9497 284.8613 199.9497 L 263.7744 221.0366 C 259.8691 224.9424 259.8672 231.2734 263.7744 235.1792 C 267.6787 239.0859 274.0107 239.085 277.916 235.1792 L 334.4844 178.6104 C 334.7412 178.3535 334.9805 178.0835 335.2041 177.8071 C 350.3008 163.2827 359.709 142.8901 359.708 120.2866 C 359.708 76.1943 323.9668 40.4536 279.875 40.4536 Z" fill="#333333"/>		<path d="M 129.2881 270.3418 C 133.1943 274.2471 139.5254 274.2471 143.4316 270.3418 L 270.71 143.0615 C 274.6152 139.1572 274.6152 132.8252 270.71 128.9199 C 266.8066 125.0137 260.4746 125.0146 256.5684 128.9199 L 129.2891 256.1992 C 125.3828 260.1045 125.3828 266.4355 129.2881 270.3418 Z" fill="#333333"/>	</g></svg>