<?xml version="1.0" standalone="no"?><!-- Generator: Adobe Fireworks CS6, Export SVG Extension by Aaron Beall (http://fireworks.abeall.com) . Version: 0.6.1  --><!DOCTYPE svg PUBLIC "-//W3C//DTD SVG 1.1//EN" "http://www.w3.org/Graphics/SVG/1.1/DTD/svg11.dtd"><svg id="Raichu-Icons.fw-icon-calendar" viewBox="0 0 400 400" style="background-color:#ffffff00" version="1.1"	xmlns="http://www.w3.org/2000/svg" xmlns:xlink="http://www.w3.org/1999/xlink" xml:space="preserve"	x="0px" y="0px" width="400px" height="400px">	<g id="Master%20Page%20Layer21">		<g id="Layer%20142">		</g>	</g>	<g id="Layer%20143">		<path d="M 360.0093 120.0747 C 360.0093 114.8701 356.0322 110.5977 350.9512 110.1226 C 350.5024 110.0605 350.0474 110.0176 349.5815 110.0176 C 349.2241 110.0176 348.8711 110.0381 348.5234 110.0747 L 300.4517 110.0747 L 300.4517 60.0791 C 300.4517 54.5557 295.9746 50.0791 290.4517 50.0791 C 284.9287 50.0791 280.4517 54.5557 280.4517 60.0791 L 280.4517 110.0747 L 121.1182 110.0747 L 121.1182 60.0791 C 121.1182 54.5557 116.6411 50.0791 111.1182 50.0791 C 105.5952 50.0791 101.1182 54.5557 101.1182 60.0791 L 101.1182 110.0747 L 51.0088 110.0747 C 50.6611 110.0381 50.3081 110.0176 49.9507 110.0176 C 44.4277 110.0176 39.9507 114.4946 39.9507 120.0176 L 39.9507 340.0176 C 39.9507 345.5405 44.4277 350.0176 49.9507 350.0176 C 50.4219 350.0176 50.8823 349.9736 51.3359 349.9106 L 290.9507 349.9106 C 296.4736 349.9106 300.9507 345.4336 300.9507 339.9106 C 300.9507 334.3877 296.4736 329.9106 290.9507 329.9106 L 59.9507 329.9106 L 59.9507 130.0747 L 101.1182 130.0747 L 101.1182 141.0791 C 101.1182 146.6016 105.5952 151.0791 111.1182 151.0791 C 116.6411 151.0791 121.1182 146.6016 121.1182 141.0791 L 121.1182 130.0747 L 280.4517 130.0747 L 280.4517 141.0791 C 280.4517 146.6016 284.9287 151.0791 290.4517 151.0791 C 295.9746 151.0791 300.4517 146.6016 300.4517 141.0791 L 300.4517 130.0747 L 339.5815 130.0747 L 339.5815 340.0176 C 339.5815 345.5405 344.0586 350.0176 349.5815 350.0176 C 355.1045 350.0176 359.5815 345.5405 359.5815 340.0176 L 359.5815 122.9639 C 359.8574 122.0488 360.0093 121.0801 360.0093 120.0747 Z" fill="#333333"/>	</g></svg>