<?xml version="1.0" standalone="no"?><!-- Generator: Adobe Fireworks CS6, Export SVG Extension by Aaron Beall (http://fireworks.abeall.com) . Version: 0.6.1  --><!DOCTYPE svg PUBLIC "-//W3C//DTD SVG 1.1//EN" "http://www.w3.org/Graphics/SVG/1.1/DTD/svg11.dtd"><svg id="Raichu-Icons.fw-icon-twitter" viewBox="0 0 400 400" style="background-color:#ffffff00" version="1.1"	xmlns="http://www.w3.org/2000/svg" xmlns:xlink="http://www.w3.org/1999/xlink" xml:space="preserve"	x="0px" y="0px" width="400px" height="400px">	<g id="Master%20Page%20Layer31">		<g id="Layer%20162">		</g>	</g>	<g id="Layer%20163">		<path d="M 352.6494 152.2412 C 326.2461 67.9116 236.4805 20.9551 152.1523 47.3594 C 67.8223 73.7617 20.8643 163.5264 47.2676 247.8569 C 48.2603 251.0264 49.3584 254.1328 50.5283 257.1943 C 50.5288 257.1968 50.5293 257.1987 50.5303 257.2012 C 50.5938 257.4019 50.6729 257.5928 50.7461 257.7871 C 50.8008 257.9287 50.8555 258.0713 50.9097 258.2129 C 52.9238 262.8374 58.1377 265.2969 63.0605 263.7559 C 68.334 262.106 71.2666 256.4956 69.6162 251.2241 C 69.5117 250.8882 69.3896 250.562 69.2529 250.2451 C 68.2026 247.5068 67.2334 244.7207 66.3438 241.8838 C 43.2393 168.0903 84.3311 89.5391 158.123 66.4346 C 231.917 43.3301 310.4678 84.4199 333.5732 158.2144 C 356.6787 232.0093 315.5859 310.5596 241.793 333.6636 C 190.7129 349.6567 137.3574 334.8853 101.6865 299.8037 C 101.4268 299.5479 101.168 299.29 100.9097 299.0322 C 98.3706 296.7681 94.7471 295.8477 91.2646 296.938 C 85.9937 298.5884 83.0596 304.1987 84.709 309.4688 C 85.2637 311.2417 86.2744 312.7417 87.5615 313.9014 C 87.5605 313.8994 87.5596 313.8984 87.5576 313.8975 C 87.5508 313.9033 87.5459 313.9102 87.54 313.917 C 128.3027 354.0977 189.333 371.0361 247.7656 352.7397 C 332.0957 326.3369 379.0527 236.5718 352.6494 152.2412 Z" fill="#333333"/>		<path d="M 299.9272 146.123 C 292.8213 149.2813 285.1738 151.4121 277.1499 152.3657 C 285.3428 147.4609 291.6245 139.6919 294.5869 130.4243 C 286.9238 134.9717 278.4409 138.2715 269.4048 140.0527 C 262.1733 132.3467 251.8657 127.5283 240.4595 127.5283 C 218.5615 127.5283 200.8066 145.2832 200.8066 167.1855 C 200.8066 170.2891 201.1563 173.314 201.835 176.2217 C 168.8755 174.5659 139.6519 158.7808 120.0923 134.7871 C 116.6787 140.6416 114.7246 147.4531 114.7246 154.7275 C 114.7246 168.4839 121.7246 180.624 132.3657 187.7339 C 125.8677 187.5259 119.751 185.7402 114.4028 182.77 C 114.3989 182.9351 114.3989 183.1035 114.3989 183.2725 C 114.3989 202.4829 128.0693 218.5073 146.2124 222.1563 C 142.8853 223.0586 139.3813 223.5454 135.7637 223.5454 C 133.2056 223.5454 130.7217 223.2979 128.3008 222.8311 C 133.3506 238.585 147.9937 250.0537 165.3442 250.3716 C 151.7725 261.0088 134.6768 267.3496 116.0942 267.3496 C 112.8965 267.3496 109.7378 267.1611 106.6338 266.7925 C 124.1885 278.0493 145.0313 284.6099 167.4238 284.6099 C 240.3696 284.6099 280.2539 224.1846 280.2539 171.7798 C 280.2539 170.0615 280.2188 168.3467 280.144 166.6436 C 287.8892 161.0645 294.6147 154.0762 299.9272 146.123 Z" fill="#333333"/>	</g></svg>