<?xml version="1.0" standalone="no"?><!-- Generator: Adobe Fireworks CS6, Export SVG Extension by Aaron Beall (http://fireworks.abeall.com) . Version: 0.6.1  --><!DOCTYPE svg PUBLIC "-//W3C//DTD SVG 1.1//EN" "http://www.w3.org/Graphics/SVG/1.1/DTD/svg11.dtd"><svg id="Raichu-Icons.fw-icon-help" viewBox="0 0 400 400" style="background-color:#ffffff00" version="1.1"	xmlns="http://www.w3.org/2000/svg" xmlns:xlink="http://www.w3.org/1999/xlink" xml:space="preserve"	x="0px" y="0px" width="400px" height="400px">	<g id="Master%20Page%20Layer54">		<g id="Layer%201108">		</g>	</g>	<g id="Layer%201109">		<path visibility="hidden" d="M 352.8779 152.2412 C 326.4746 67.9116 236.709 20.9551 152.3809 47.3594 C 68.0508 73.7617 21.0928 163.5264 47.4961 247.8569 C 48.4883 251.0264 49.5869 254.1328 50.7568 257.1943 C 50.7578 257.1968 50.7578 257.1987 50.7588 257.2012 C 50.8223 257.4019 50.9014 257.5928 50.9746 257.7871 C 51.0293 257.9287 51.084 258.0713 51.1387 258.2129 C 53.1523 262.8374 58.3662 265.2969 63.2891 263.7559 C 68.5625 262.106 71.4951 256.4956 69.8447 251.2241 C 69.7402 250.8882 69.6182 250.562 69.4814 250.2451 C 68.4316 247.5068 67.4619 244.7207 66.5723 241.8838 C 43.4678 168.0903 84.5596 89.5391 158.3516 66.4346 C 232.1455 43.3301 310.6963 84.4199 333.8018 158.2144 C 356.9072 232.0093 315.8145 310.5596 242.0215 333.6636 C 190.9414 349.6567 137.5859 334.8853 101.915 299.8037 C 101.6553 299.5479 101.3965 299.29 101.1387 299.0322 C 98.5996 296.7681 94.9756 295.8477 91.4932 296.938 C 86.2227 298.5884 83.2881 304.1987 84.9375 309.4688 C 85.4922 311.2417 86.5029 312.7417 87.79 313.9014 C 87.7891 313.8994 87.7881 313.8984 87.7861 313.8975 C 87.7793 313.9033 87.7744 313.9102 87.7686 313.917 C 128.5313 354.0977 189.5615 371.0361 247.9941 352.7397 C 332.3242 326.3369 379.2813 236.5718 352.8779 152.2412 Z" fill="#333333"/>		<path visibility="hidden" d="M 320 160 C 320 226.2758 266.4975 280 200.5 280 C 134.5025 280 81 226.2758 81 160 C 81 93.7247 134.5025 40 200.5 40 C 266.4975 40 320 93.7247 320 160 ZM 300 160 C 300 215.2298 255.4519 260 200.5 260 C 145.5481 260 101 215.2298 101 160 C 101 104.7706 145.5481 60 200.5 60 C 255.4519 60 300 104.7706 300 160 Z" fill="#000000"/>		<path d="M 211.7651 38.9322 C 156.5313 38.9322 111.7544 83.7075 111.7544 138.9429 C 111.7544 142.3157 111.9272 145.6478 112.2539 148.9345 C 112.2539 148.947 112.252 148.959 112.252 148.9714 C 112.252 149.728 112.3438 150.4622 112.5034 151.1707 C 113.5107 155.6342 117.5088 158.9714 122.2959 158.9714 C 127.8433 158.9714 132.3403 154.4943 132.3403 148.9714 C 132.3403 148.7284 132.3208 148.4902 132.3037 148.2515 C 132.2695 147.9596 132.2314 147.6691 132.2007 147.3763 C 131.9087 144.6047 131.7544 141.7922 131.7544 138.9429 C 131.7544 94.7534 167.5767 58.9322 211.7651 58.9322 C 255.9531 58.9322 291.7759 94.7534 291.7759 138.9429 C 291.7759 149.2925 289.7734 159.6162 285.854 169.1974 C 282.0562 178.4824 276.4907 187.0226 269.5508 194.2652 C 262.1523 201.9867 253.2666 207.3519 243.855 212.2383 C 231.2573 218.7784 220.228 227.9185 211.4771 238.95 C 197.9443 256.0093 189.8589 277.5854 189.8589 301.0524 C 189.8589 307.0574 190.4116 312.9302 191.4272 318.6431 C 191.8989 323.7272 196.1729 327.7084 201.3799 327.7084 C 206.4639 327.7084 210.6523 323.9113 211.2871 319 C 211.3418 318.5762 211.3799 318.1472 211.3799 317.7084 C 211.3799 317.0693 211.314 316.4464 211.1997 315.8427 C 211.2114 315.8419 211.2231 315.8394 211.2354 315.8389 C 210.3374 311.0465 209.8589 306.1062 209.8589 301.0524 C 209.8589 290.712 211.8579 280.3973 215.77 270.8233 C 219.5615 261.5453 225.1177 253.0099 232.0464 245.7691 C 235.4932 242.1668 239.2749 238.8856 243.3281 235.9823 C 248.3643 232.3751 253.9419 229.8558 259.3608 226.9182 C 264.5088 224.1272 269.4102 220.8823 273.9922 217.2358 C 279.9731 212.4763 285.4077 207.0334 290.1577 201.0454 C 303.6904 183.9861 311.7759 162.41 311.7759 138.9429 C 311.7759 83.7075 266.999 38.9322 211.7651 38.9322 Z" fill="#333333"/>		<path d="M 200.6479 339 C 195.125 339 190.6479 343.4772 190.6479 349 C 190.6479 354.5228 195.125 359 200.6479 359 C 206.1709 359 210.6479 354.5228 210.6479 349 C 210.6479 343.4772 206.1709 339 200.6479 339 Z" fill="#333333"/>	</g></svg>