<?xml version="1.0" standalone="no"?><!-- Generator: Adobe Fireworks CS6, Export SVG Extension by Aaron Beall (http://fireworks.abeall.com) . Version: 0.6.1  --><!DOCTYPE svg PUBLIC "-//W3C//DTD SVG 1.1//EN" "http://www.w3.org/Graphics/SVG/1.1/DTD/svg11.dtd"><svg id="Raichu-Icons.fw-icon-video" viewBox="0 0 400 400" style="background-color:#ffffff00" version="1.1"	xmlns="http://www.w3.org/2000/svg" xmlns:xlink="http://www.w3.org/1999/xlink" xml:space="preserve"	x="0px" y="0px" width="400px" height="400px">	<g id="Master%20Page%20Layer25">		<g id="Layer%20150">		</g>	</g>	<g id="Layer%20151">		<path d="M 356.6006 286.8452 L 300.0322 230.2764 C 299.7554 229.9995 299.4634 229.7476 299.1636 229.5098 C 295.2354 226.2539 289.4019 226.4624 285.7217 230.1426 L 246.1025 269.7622 L 60.3018 269.7622 L 60.3018 130.0474 L 246.1025 130.0474 L 285.7217 169.667 C 285.7725 169.7178 285.8281 169.7607 285.8799 169.8101 C 285.8833 169.8135 285.8857 169.8174 285.8892 169.8203 C 289.7944 173.7256 296.1265 173.7256 300.0317 169.8203 L 356.6001 113.252 C 360.5054 109.3467 360.5054 103.0151 356.6001 99.1099 C 352.6948 95.2051 346.3628 95.2051 342.4575 99.1099 L 292.9536 148.6143 L 258.082 113.7437 C 256.2485 111.4897 253.4551 110.0474 250.3228 110.0474 L 50.3228 110.0474 L 50.3213 110.0474 C 50.3149 110.0474 50.3081 110.0469 50.3018 110.0469 C 44.7788 110.0469 40.3018 114.5234 40.3018 120.0469 L 40.3018 279.0464 C 40.3018 279.2373 40.3198 279.4238 40.3306 279.6123 C 40.3296 279.6626 40.3228 279.7119 40.3228 279.7622 C 40.3228 285.2852 44.7998 289.7622 50.3228 289.7622 L 250.3228 289.7622 C 253.4551 289.7622 256.2485 288.3203 258.0825 286.0659 L 292.8101 251.3389 L 342.4585 300.9868 C 346.3638 304.8921 352.6953 304.8921 356.6006 300.9868 C 360.5059 297.0815 360.5059 290.7505 356.6006 286.8452 Z" fill="#333333"/>	</g></svg>