<?xml version="1.0" standalone="no"?><!-- Generator: Adobe Fireworks CS6, Export SVG Extension by Aaron Beall (http://fireworks.abeall.com) . Version: 0.6.1  --><!DOCTYPE svg PUBLIC "-//W3C//DTD SVG 1.1//EN" "http://www.w3.org/Graphics/SVG/1.1/DTD/svg11.dtd"><svg id="Raichu-Icons.fw-icon-presentation" viewBox="0 0 400 400" style="background-color:#ffffff00" version="1.1"	xmlns="http://www.w3.org/2000/svg" xmlns:xlink="http://www.w3.org/1999/xlink" xml:space="preserve"	x="0px" y="0px" width="400px" height="400px">	<g id="Master%20Page%20Layer40">		<g id="Layer%20180">		</g>	</g>	<g id="Layer%20181">		<path d="M 351.2783 59.124 L 341.2305 59.124 L 341.2305 240.0005 C 341.2305 251.0938 332.2168 260.0967 321.1338 260.0967 L 240.7388 260.0967 L 240.7388 340.4917 L 290.9795 340.4917 C 296.5264 340.4917 301.0278 344.9731 301.0278 350.52 C 301.0278 356.0864 296.5264 360.5679 290.9795 360.5679 L 110.1133 360.5679 C 104.5669 360.5679 100.0654 356.0864 100.0654 350.52 C 100.0654 344.9731 104.5669 340.4917 110.1133 340.4917 L 160.354 340.4917 L 160.354 260.0967 L 79.9688 260.0967 C 68.876 260.0967 59.8726 251.0938 59.8726 240.0005 L 59.8726 59.124 L 49.8247 59.124 C 44.2881 59.124 39.7964 54.6328 39.7964 49.0762 C 39.7866 43.5293 44.2778 39.0381 49.8145 39.0381 L 59.8628 39.0381 L 79.959 39.0381 L 321.124 39.0381 L 341.2202 39.0381 L 351.2686 39.0381 C 356.8149 39.0381 361.2964 43.5293 361.2964 49.0762 C 361.3066 54.6328 356.8252 59.124 351.2783 59.124 L 351.2783 59.124 ZM 180.4502 340.4917 L 220.6426 340.4917 L 220.6426 260.0967 L 180.4502 260.0967 L 180.4502 340.4917 L 180.4502 340.4917 ZM 321.1338 59.124 L 79.9688 59.124 L 79.9688 240.0005 L 321.1338 240.0005 L 321.1338 59.124 L 321.1338 59.124 ZM 150.3057 139.5195 C 155.8623 139.5195 160.354 144.021 160.354 149.5674 L 160.354 189.7598 C 160.354 195.2964 155.8623 199.8081 150.3057 199.8081 C 144.7695 199.8081 140.2578 195.2964 140.2578 189.7598 L 140.2578 149.5674 C 140.2578 144.021 144.7593 139.5195 150.3057 139.5195 L 150.3057 139.5195 ZM 190.4985 99.3267 C 196.0449 99.3267 200.5464 103.8281 200.5464 109.375 L 200.5464 189.7598 C 200.5464 195.2964 196.0449 199.8081 190.4985 199.8081 C 184.9517 199.8081 180.4502 195.2964 180.4502 189.7598 L 180.4502 109.375 C 180.4502 103.8281 184.9517 99.3267 190.4985 99.3267 L 190.4985 99.3267 ZM 230.6909 119.4229 C 236.2373 119.4229 240.7388 123.9248 240.7388 129.4712 L 240.7388 189.7598 C 240.7388 195.2964 236.2373 199.8081 230.6909 199.8081 C 225.1343 199.8081 220.6426 195.2964 220.6426 189.7598 L 220.6426 129.4712 C 220.6426 123.9248 225.1343 119.4229 230.6909 119.4229 L 230.6909 119.4229 ZM 270.8833 159.6152 C 276.4297 159.6152 280.9316 164.127 280.9316 169.6636 L 280.9316 189.7598 C 280.9316 195.2964 276.4297 199.8081 270.8833 199.8081 C 265.3267 199.8081 260.8354 195.2964 260.8354 189.7598 L 260.8354 169.6636 C 260.8354 164.1172 265.3267 159.6152 270.8833 159.6152 L 270.8833 159.6152 Z" fill="#000000"/>	</g></svg>