<?xml version="1.0" standalone="no"?><!-- Generator: Adobe Fireworks CS6, Export SVG Extension by Aaron Beall (http://fireworks.abeall.com) . Version: 0.6.1  --><!DOCTYPE svg PUBLIC "-//W3C//DTD SVG 1.1//EN" "http://www.w3.org/Graphics/SVG/1.1/DTD/svg11.dtd"><svg id="Raichu-Icons.fw-icon-book" viewBox="0 0 400 400" style="background-color:#ffffff00" version="1.1"	xmlns="http://www.w3.org/2000/svg" xmlns:xlink="http://www.w3.org/1999/xlink" xml:space="preserve"	x="0px" y="0px" width="400px" height="400px">	<g id="Master%20Page%20Layer8">		<g id="Layer%20116">		</g>	</g>	<g id="Layer%20117">		<path d="M 330.748 50.0352 C 330.748 45.4707 327.6875 41.6294 323.5098 40.4302 C 322.5674 40.1362 321.5664 39.9775 320.5273 39.9775 C 320.168 39.9775 319.8145 39.9985 319.4658 40.0352 L 61.7686 40.0352 C 61.4199 39.9985 61.0654 39.9775 60.707 39.9775 C 55.1836 39.9775 50.707 44.4551 50.707 49.9775 L 50.707 348.8716 C 50.6563 349.2813 50.6211 349.6958 50.6211 350.1191 C 50.6211 355.6426 55.0986 360.1191 60.6211 360.1191 L 250.5586 360.1191 C 256.082 360.1191 260.5586 355.6426 260.5586 350.1191 C 260.5586 344.5957 256.082 340.1191 250.5586 340.1191 L 70.707 340.1191 L 70.707 60.0352 L 260.543 60.0352 L 260.543 129.9727 C 260.543 135.4961 265.0195 139.9727 270.543 139.9727 C 276.0664 139.9727 280.543 135.4961 280.543 129.9727 L 280.543 60.0352 L 310.5273 60.0352 L 310.5273 349.9775 C 310.5273 355.5 315.0039 359.9775 320.5273 359.9775 C 326.0508 359.9775 330.5273 355.5 330.5273 349.9775 L 330.5273 52.1191 C 330.6699 51.4463 330.748 50.75 330.748 50.0352 Z" fill="#333333"/>	</g></svg>