<?xml version="1.0" standalone="no"?><!-- Generator: Adobe Fireworks CS6, Export SVG Extension by Aaron Beall (http://fireworks.abeall.com) . Version: 0.6.1  --><!DOCTYPE svg PUBLIC "-//W3C//DTD SVG 1.1//EN" "http://www.w3.org/Graphics/SVG/1.1/DTD/svg11.dtd"><svg id="Raichu-Icons.fw-icon-author" viewBox="0 0 400 400" style="background-color:#ffffff00" version="1.1"	xmlns="http://www.w3.org/2000/svg" xmlns:xlink="http://www.w3.org/1999/xlink" xml:space="preserve"	x="0px" y="0px" width="400px" height="400px">	<g id="Master%20Page%20Layer12">		<g id="Layer%20124">		</g>	</g>	<g id="Layer%20125">		<path d="M 201.8936 204.8721 C 245.3672 204.1597 280.3984 168.7183 280.3984 125.0718 C 280.3984 80.9805 244.6543 45.2383 200.5645 45.2383 C 156.4736 45.2383 120.7314 80.9805 120.7314 125.0718 C 120.7314 168.5918 155.5586 203.9517 198.8594 204.8623 C 122.0615 205.4766 59.9902 267.9121 59.9902 344.8589 L 60.0469 344.8589 C 60.0469 350.3823 64.5254 354.8589 70.0469 354.8589 C 75.5703 354.8589 80.0469 350.3823 80.0469 344.8589 C 80.0469 344.5503 80.0293 344.2476 80.002 343.9468 C 80.4932 278.0854 134.0264 224.8481 200 224.8481 C 266.2803 224.8481 320.0117 278.5776 320.0117 344.8589 C 320.0117 350.3823 324.4893 354.8589 330.0117 354.8589 C 335.5332 354.8589 340.0117 350.3823 340.0117 344.8589 C 340.0117 268.1636 278.3457 205.8867 201.8936 204.8721 ZM 140.6846 125.0718 C 140.6846 92.0005 167.4941 65.1914 200.5645 65.1914 C 233.6348 65.1914 260.4453 92.0005 260.4453 125.0718 C 260.4453 158.144 233.6348 184.9526 200.5645 184.9526 C 167.4941 184.9526 140.6846 158.144 140.6846 125.0718 Z" fill="#333333"/>	</g></svg>