<?xml version="1.0" standalone="no"?><!-- Generator: Adobe Fireworks CS6, Export SVG Extension by Aaron Beall (http://fireworks.abeall.com) . Version: 0.6.1  --><!DOCTYPE svg PUBLIC "-//W3C//DTD SVG 1.1//EN" "http://www.w3.org/Graphics/SVG/1.1/DTD/svg11.dtd"><svg id="Raichu-Icons.fw-icon-pinterest" viewBox="0 0 400 400" style="background-color:#ffffff00" version="1.1"	xmlns="http://www.w3.org/2000/svg" xmlns:xlink="http://www.w3.org/1999/xlink" xml:space="preserve"	x="0px" y="0px" width="400px" height="400px">	<g id="Master%20Page%20Layer33">		<g id="Layer%20166">		</g>	</g>	<g id="Layer%20167">		<path d="M 352.7627 152.2412 C 326.3594 67.9116 236.5938 20.9551 152.2656 47.3594 C 67.9355 73.7617 20.9775 163.5264 47.3809 247.8569 C 48.3735 251.0264 49.4712 254.1328 50.6416 257.1943 C 50.6421 257.1968 50.6426 257.1987 50.6436 257.2012 C 50.707 257.4019 50.7861 257.5928 50.8594 257.7871 C 50.9141 257.9287 50.9688 258.0713 51.0234 258.2129 C 53.0371 262.8374 58.251 265.2969 63.1738 263.7559 C 68.4468 262.106 71.3799 256.4956 69.7295 251.2241 C 69.625 250.8882 69.5029 250.562 69.3662 250.2451 C 68.3164 247.5068 67.3467 244.7207 66.457 241.8838 C 43.3525 168.0903 84.4438 89.5391 158.2363 66.4346 C 232.0298 43.3301 310.5811 84.4199 333.6865 158.2144 C 356.792 232.0093 315.6992 310.5596 241.9063 333.6636 C 190.8262 349.6567 137.4707 334.8853 101.7998 299.8037 C 101.54 299.5479 101.2813 299.29 101.0234 299.0322 C 98.4844 296.7681 94.8599 295.8477 91.3779 296.938 C 86.1074 298.5884 83.1729 304.1987 84.8218 309.4688 C 85.377 311.2417 86.3877 312.7417 87.6748 313.9014 C 87.6738 313.8994 87.6729 313.8984 87.6709 313.8975 C 87.6641 313.9033 87.6592 313.9102 87.6528 313.917 C 128.416 354.0977 189.4463 371.0361 247.8789 352.7397 C 332.209 326.3369 379.166 236.5718 352.7627 152.2412 Z" fill="#333333"/>		<path d="M 206.0527 99.7822 C 151.6909 99.7822 124.2778 138.7554 124.2778 171.2617 C 124.2778 190.9404 131.728 208.4463 147.7056 214.9644 C 150.3262 216.0449 152.6748 215.0044 153.4355 212.1035 C 153.9634 210.103 155.2158 205.0371 155.772 202.9204 C 156.5361 200.0518 156.2402 199.0513 154.1235 196.5425 C 149.5181 191.1128 146.5688 184.0781 146.5688 174.1069 C 146.5688 145.1934 168.2041 119.3086 202.9038 119.3086 C 233.6299 119.3086 250.5117 138.083 250.5117 163.1514 C 250.5117 196.1465 235.9106 223.9917 214.2397 223.9917 C 202.2676 223.9917 193.3125 214.0962 196.1777 201.9521 C 199.6147 187.4556 206.2769 171.8184 206.2769 161.3467 C 206.2769 151.9834 201.2471 144.1729 190.8477 144.1729 C 178.6118 144.1729 168.7803 156.833 168.7803 173.7871 C 168.7803 184.5864 172.4297 191.8931 172.4297 191.8931 C 172.4297 191.8931 159.9097 244.9507 157.7129 254.2417 C 153.3433 272.7476 157.0566 295.4272 157.3726 297.7158 C 157.5566 299.0767 159.3013 299.4048 160.0938 298.3804 C 161.2178 296.9038 175.7988 278.9141 180.7485 260.9316 C 182.1528 255.8462 188.7949 229.4854 188.7949 229.4854 C 192.7725 237.0718 204.3921 243.7383 216.7485 243.7383 C 253.5244 243.7383 278.481 210.2109 278.481 165.332 C 278.4849 131.3887 249.7393 99.7822 206.0527 99.7822 Z" fill="#333333"/>	</g></svg>