<?xml version="1.0" standalone="no"?><!-- Generator: Adobe Fireworks CS6, Export SVG Extension by Aaron Beall (http://fireworks.abeall.com) . Version: 0.6.1  --><!DOCTYPE svg PUBLIC "-//W3C//DTD SVG 1.1//EN" "http://www.w3.org/Graphics/SVG/1.1/DTD/svg11.dtd"><svg id="Raichu-Icons.fw-icon-communities" viewBox="0 0 400 400" style="background-color:#ffffff00" version="1.1"	xmlns="http://www.w3.org/2000/svg" xmlns:xlink="http://www.w3.org/1999/xlink" xml:space="preserve"	x="0px" y="0px" width="400px" height="400px">	<g id="Master%20Page%20Layer50">		<g id="Layer%201100">		</g>	</g>	<g id="Layer%201101">		<path d="M 109.0265 163.4525 C 109.0265 183.5989 92.9028 199.9312 73.0135 199.9312 C 53.1237 199.9312 37 183.5989 37 163.4525 C 37 143.3055 53.1237 126.9736 73.0135 126.9736 C 92.9028 126.9736 109.0265 143.3055 109.0265 163.4525 Z" fill="#000000"/>		<path d="M 359 120.5364 C 359 140.6828 342.8763 157.0148 322.987 157.0148 C 303.0972 157.0148 286.974 140.6828 286.974 120.5364 C 286.974 100.3894 303.0972 84.0575 322.987 84.0575 C 342.8763 84.0575 359 100.3894 359 120.5364 Z" fill="#000000"/>		<path d="M 267.9081 317.5211 C 267.9081 337.6678 251.7844 354 231.8946 354 C 212.0053 354 195.8816 337.6678 195.8816 317.5211 C 195.8816 297.3746 212.0053 281.0424 231.8946 281.0424 C 251.7844 281.0424 267.9081 297.3746 267.9081 317.5211 Z" fill="#000000"/>		<path d="M 75.2636 206.6825 C 74.5136 206.7223 73.773 206.7975 73.0135 206.7975 C 66.6909 206.7975 60.7094 205.3724 55.309 202.8803 C 61.2081 277.9805 122.0775 337.3531 197.17 339.7184 C 193.499 333.8388 191.2601 326.9733 190.9006 319.5931 C 130.7402 314.424 82.511 266.9758 75.2636 206.6825 Z" fill="#000000"/>		<path d="M 92.2672 124.7806 C 114.5282 87.0317 155.248 61.7412 201.8131 61.7412 C 235.0264 61.7412 265.2656 74.6105 287.9592 95.6835 C 291.7392 90.2281 296.7076 85.6803 302.5125 82.47 C 276.2007 57.3931 240.7917 42 201.8131 42 C 145.9112 42 97.3009 73.6062 72.4373 120.1367 C 72.631 120.134 72.8189 120.1069 73.0135 120.1069 C 79.9473 120.1069 86.4744 121.8153 92.2672 124.7806 Z" fill="#000000"/>		<path d="M 329.342 190.9184 C 329.342 237.1256 305.374 277.6421 269.3609 300.4728 C 271.6747 305.6806 272.9923 311.4398 272.9923 317.5211 C 272.9923 318.808 272.9148 320.0763 272.8022 321.3332 C 318.1259 295.9654 348.8317 247.0823 348.8317 190.9184 C 348.8317 179.4584 347.5109 168.3166 345.0914 157.5994 C 339.5743 160.983 333.2607 163.1464 326.4818 163.7026 C 328.3405 172.4795 329.342 181.5792 329.342 190.9184 Z" fill="#000000"/>		<path d="M 146.2969 251.2373 C 146.2969 251.2373 144.6661 208.2232 178.511 169.3092 C 185.6925 161.056 193.244 154.3929 200.6734 149.033 L 200.8131 204.0247 L 226.0572 204.0247 C 224.8454 205.5409 223.5954 207.0699 222.2755 208.5789 C 188.4657 247.6298 146.2969 251.2373 146.2969 251.2373 ZM 209.9322 142.9437 C 233.72 128.7128 254.1508 126.9736 254.1508 126.9736 C 254.1508 126.9736 255.5639 160.0269 232.9551 194.4783 L 210.0849 194.4783 L 209.9322 142.9437 Z" fill="#000000"/>	</g></svg>