<?xml version="1.0" standalone="no"?><!-- Generator: Adobe Fireworks CS6, Export SVG Extension by Aaron Beall (http://fireworks.abeall.com) . Version: 0.6.1  --><!DOCTYPE svg PUBLIC "-//W3C//DTD SVG 1.1//EN" "http://www.w3.org/Graphics/SVG/1.1/DTD/svg11.dtd"><svg id="Raichu-Icons.fw-icon-close" viewBox="0 0 400 400" style="background-color:#ffffff00" version="1.1"	xmlns="http://www.w3.org/2000/svg" xmlns:xlink="http://www.w3.org/1999/xlink" xml:space="preserve"	x="0px" y="0px" width="400px" height="400px">	<g id="Master%20Page%20Layer4">		<g id="Layer%2018">		</g>	</g>	<g id="Layer%2019">		<path d="M 351.7168 152.2412 C 325.3135 67.9116 235.5479 20.9551 151.2197 47.3594 C 66.8896 73.7617 19.9316 163.5264 46.335 247.8569 C 47.3271 251.0264 48.4258 254.1328 49.5957 257.1943 C 49.5967 257.1968 49.5967 257.1987 49.5977 257.2012 C 49.6611 257.4019 49.7402 257.5928 49.8135 257.7871 C 49.8682 257.9287 49.9229 258.0713 49.9775 258.2129 C 51.9912 262.8374 57.2051 265.2969 62.1279 263.7559 C 67.4014 262.106 70.334 256.4956 68.6836 251.2241 C 68.5791 250.8882 68.457 250.562 68.3203 250.2451 C 67.2705 247.5068 66.3008 244.7207 65.4111 241.8838 C 42.3066 168.0903 83.3984 89.5391 157.1904 66.4346 C 230.9844 43.3301 309.5352 84.4199 332.6406 158.2144 C 355.7461 232.0093 314.6533 310.5596 240.8604 333.6636 C 189.7803 349.6567 136.4248 334.8853 100.7539 299.8037 C 100.4941 299.5479 100.2354 299.29 99.9775 299.0322 C 97.4385 296.7681 93.8145 295.8477 90.332 296.938 C 85.0615 298.5884 82.127 304.1987 83.7764 309.4688 C 84.3311 311.2417 85.3418 312.7417 86.6289 313.9014 C 86.6279 313.8994 86.627 313.8984 86.625 313.8975 C 86.6182 313.9033 86.6133 313.9102 86.6074 313.917 C 127.3701 354.0977 188.4004 371.0361 246.833 352.7397 C 331.1631 326.3369 378.1201 236.5718 351.7168 152.2412 Z" fill="#333333"/>		<path d="M 256.6104 143.3818 C 252.7061 139.4751 246.374 139.4761 242.4688 143.3823 L 200.042 185.8086 L 157.6152 143.3823 C 153.71 139.4761 147.3779 139.4751 143.4736 143.3818 C 139.5684 147.2866 139.5684 153.6177 143.4736 157.5234 L 185.9004 199.9497 L 143.4736 242.376 C 139.5693 246.2817 139.5684 252.6133 143.4736 256.5186 C 147.3789 260.4243 153.7109 260.4238 157.6162 256.5176 L 200.042 214.0918 L 242.4678 256.5176 C 246.373 260.4238 252.7051 260.4243 256.6104 256.5186 C 260.5156 252.6133 260.5146 246.2817 256.6104 242.376 L 214.1836 199.9497 L 256.6104 157.5234 C 260.5156 153.6177 260.5156 147.2866 256.6104 143.3818 Z" fill="#333333"/>	</g></svg>