<?xml version="1.0" standalone="no"?><!-- Generator: Adobe Fireworks CS6, Export SVG Extension by Aaron Beall (http://fireworks.abeall.com) . Version: 0.6.1  --><!DOCTYPE svg PUBLIC "-//W3C//DTD SVG 1.1//EN" "http://www.w3.org/Graphics/SVG/1.1/DTD/svg11.dtd"><svg id="Raichu-Icons.fw-icon-communications" viewBox="0 0 400 400" style="background-color:#ffffff00" version="1.1"	xmlns="http://www.w3.org/2000/svg" xmlns:xlink="http://www.w3.org/1999/xlink" xml:space="preserve"	x="0px" y="0px" width="400px" height="400px">	<g id="Master%20Page%20Layer44">		<g id="Layer%20188">		</g>	</g>	<g id="Layer%20189">		<path d="M 279.3872 122.6484 L 104.7642 122.6484 L 104.7642 146.7949 L 279.3872 146.7949 L 279.3872 122.6484 Z" fill="#000000"/>		<path d="M 104.7642 231.2417 L 104.7642 255.3818 L 217.7432 255.3818 C 217.2129 251.4268 216.8403 247.4116 216.8403 243.3105 C 216.8403 239.2139 217.2148 235.2031 217.7432 231.2417 L 104.7642 231.2417 Z" fill="#000000"/>		<path d="M 246.312 176.9482 L 104.7642 176.9482 L 104.7642 201.0957 L 227.4072 201.0957 C 232.2686 191.9668 238.7178 183.8525 246.312 176.9482 Z" fill="#000000"/>		<path d="M 282.3008 191.5161 L 282.3008 249.9321 C 282.3008 266.4761 294.4224 279.8843 309.3516 279.8843 C 324.2925 279.8843 336.3999 266.478 336.3999 249.9321 L 336.3999 191.5161 C 336.4014 174.9814 324.2959 161.5693 309.3516 161.5693 C 294.4204 161.5693 282.3008 174.9814 282.3008 191.5161 Z" fill="#000000"/>		<path d="M 344.1313 231.1895 L 344.1313 231.1914 L 344.1313 249.9321 C 344.1313 270.7124 328.5317 287.6147 309.3516 287.6147 C 290.1758 287.6147 274.5747 270.7124 274.5747 249.9321 L 274.5747 231.1914 L 259.1206 231.1914 L 259.1206 249.9321 C 259.1206 276.5347 277.7178 298.5708 301.8662 302.4102 L 301.8662 312.6519 C 287.9736 314.2227 277.624 319.9849 277.624 326.917 C 277.624 335.0596 341.082 335.0596 341.082 326.917 C 341.082 319.9849 330.7344 314.2095 316.8398 312.6519 L 316.8398 302.4082 C 340.9897 298.5693 359.5854 276.5327 359.5854 249.9302 L 359.5854 231.1895 L 344.1313 231.1895 Z" fill="#000000"/>		<path d="M 248.5625 297.2188 L 225.1704 297.2188 L 64.3257 297.2188 L 64.3257 90.7295 L 319.8394 90.7295 L 319.8394 130.0127 L 319.8394 154.1909 L 319.8394 154.2427 C 328.4241 155.6787 336.5591 158.4189 343.9807 162.3677 L 343.9807 87.0044 C 343.9807 75.73 334.8335 66.582 323.5742 66.582 L 60.5635 66.582 C 59.1489 66.582 57.7773 66.7241 56.4473 66.9951 C 55.7222 67.1445 55.0293 67.4346 54.3418 67.6636 C 53.7622 67.8311 53.1807 67.9521 52.6182 68.1855 C 52.1016 68.4121 51.6211 68.748 51.1235 69.0137 C 50.4531 69.3496 49.7676 69.6597 49.145 70.0737 C 49.061 70.1377 48.9961 70.2217 48.8936 70.2876 C 43.6299 73.9658 40.1602 80.0557 40.1602 86.9873 L 40.1602 87.0059 L 40.1602 300.9429 C 40.1602 312.2095 49.3145 321.3574 60.5635 321.3574 L 219.6245 321.3574 L 230.5913 321.3574 L 259.6079 321.3574 C 259.6079 321.3574 250.0659 317.0967 248.5625 297.2188 Z" fill="#000000"/>	</g></svg>