<?xml version="1.0" standalone="no"?><!-- Generator: Adobe Fireworks CS6, Export SVG Extension by Aaron Beall (http://fireworks.abeall.com) . Version: 0.6.1  --><!DOCTYPE svg PUBLIC "-//W3C//DTD SVG 1.1//EN" "http://www.w3.org/Graphics/SVG/1.1/DTD/svg11.dtd"><svg id="Raichu-Icons.fw-icon-picture" viewBox="0 0 400 400" style="background-color:#ffffff00" version="1.1"	xmlns="http://www.w3.org/2000/svg" xmlns:xlink="http://www.w3.org/1999/xlink" xml:space="preserve"	x="0px" y="0px" width="400px" height="400px">	<g id="Master%20Page%20Layer24">		<g id="Layer%20148">		</g>	</g>	<g id="Layer%20149">		<path d="M 310.9536 98.9736 L 50.9536 98.9736 C 47.8325 98.9736 45.0474 100.4038 43.2139 102.6436 C 41.6284 104.4131 40.6558 106.7437 40.6558 109.3066 L 40.6558 330.3066 C 40.6558 330.3096 40.6563 330.3125 40.6563 330.3154 C 40.6563 330.3184 40.6558 330.3213 40.6558 330.3247 C 40.6558 335.8477 45.1328 340.3247 50.6558 340.3247 L 309.6558 340.3247 C 309.8228 340.3247 309.9849 340.3076 310.1494 340.2998 C 310.1958 340.3003 310.2402 340.3066 310.2866 340.3066 C 315.8096 340.3066 320.2866 335.8296 320.2866 330.3066 L 320.2866 112.5415 C 320.7114 111.4316 320.9536 110.2324 320.9536 108.9736 C 320.9536 103.4507 316.4766 98.9736 310.9536 98.9736 ZM 60.6558 118.9736 L 300.2866 118.9736 L 300.2866 205.748 L 248.73 154.1914 C 246.7671 152.2285 244.1919 151.2544 241.6196 151.2642 C 239.0474 151.2544 236.4722 152.2285 234.5093 154.1914 L 156.1196 232.5811 L 137.73 214.1914 C 135.7671 212.2285 133.1919 211.2544 130.6196 211.2642 C 128.0474 211.2544 125.4722 212.2285 123.5093 214.1914 L 60.6558 277.0449 L 60.6558 118.9736 ZM 60.6558 305.3286 L 130.6196 235.3657 L 141.9775 246.7236 L 148.481 253.2271 L 149.6743 254.4204 C 151.4155 255.8906 153.6626 256.7808 156.1201 256.7808 C 158.5698 256.7808 160.8115 255.897 162.5503 254.4346 L 163.7739 253.2104 L 170.2612 246.7231 L 241.6196 175.3657 L 300.2866 234.0317 L 300.2866 320.3247 L 60.6558 320.3247 L 60.6558 305.3286 Z" fill="#333333"/>		<path d="M 350.4536 59.7725 L 89.4536 59.7725 C 83.9302 59.7725 79.4536 64.2495 79.4536 69.7725 C 79.4536 75.2954 83.9302 79.7725 89.4536 79.7725 L 340.4536 79.7725 L 340.4536 309.7725 C 340.4536 315.2954 344.9302 319.7725 350.4536 319.7725 C 355.9766 319.7725 360.4536 315.2954 360.4536 309.7725 L 360.4536 69.7725 C 360.4536 64.2495 355.9766 59.7725 350.4536 59.7725 Z" fill="#333333"/>	</g></svg>