<?xml version="1.0" standalone="no"?><!-- Generator: Adobe Fireworks CS6, Export SVG Extension by Aaron Beall (http://fireworks.abeall.com) . Version: 0.6.1  --><!DOCTYPE svg PUBLIC "-//W3C//DTD SVG 1.1//EN" "http://www.w3.org/Graphics/SVG/1.1/DTD/svg11.dtd"><svg id="Raichu-Icons.fw-icon-repository" viewBox="0 0 400 400" style="background-color:#ffffff00" version="1.1"	xmlns="http://www.w3.org/2000/svg" xmlns:xlink="http://www.w3.org/1999/xlink" xml:space="preserve"	x="0px" y="0px" width="400px" height="400px">	<g id="Master%20Page%20Layer27">		<g id="Layer%20154">		</g>	</g>	<g id="Layer%20155">		<path d="M 60.6582 349.5483 C 60.6582 355.0708 56.1816 359.5483 50.6582 359.5483 L 50.6582 359.5483 C 45.1348 359.5483 40.6582 355.0708 40.6582 349.5483 L 40.6582 130.5483 C 40.6582 125.0254 45.1348 120.5483 50.6582 120.5483 L 50.6582 120.5483 C 56.1816 120.5483 60.6582 125.0254 60.6582 130.5483 L 60.6582 349.5483 Z" fill="#333333"/>		<path d="M 60.6582 89.5483 C 60.6582 95.0708 56.1816 99.5483 50.6582 99.5483 L 50.6582 99.5483 C 45.1348 99.5483 40.6582 95.0708 40.6582 89.5483 L 40.6582 50.5483 C 40.6582 45.0254 45.1348 40.5483 50.6582 40.5483 L 50.6582 40.5483 C 56.1816 40.5483 60.6582 45.0254 60.6582 50.5483 L 60.6582 89.5483 Z" fill="#333333"/>		<path d="M 360.6582 89.5483 C 360.6582 95.0708 356.1816 99.5483 350.6582 99.5483 L 350.6582 99.5483 C 345.1348 99.5483 340.6582 95.0708 340.6582 89.5483 L 340.6582 50.5483 C 340.6582 45.0254 345.1348 40.5483 350.6582 40.5483 L 350.6582 40.5483 C 356.1816 40.5483 360.6582 45.0254 360.6582 50.5483 L 360.6582 89.5483 Z" fill="#333333"/>		<path d="M 359.6582 349.5483 C 359.6582 355.0708 355.1816 359.5483 349.6582 359.5483 L 349.6582 359.5483 C 344.1348 359.5483 339.6582 355.0708 339.6582 349.5483 L 339.6582 130.5483 C 339.6582 125.0254 344.1348 120.5483 349.6582 120.5483 L 349.6582 120.5483 C 355.1816 120.5483 359.6582 125.0254 359.6582 130.5483 L 359.6582 349.5483 Z" fill="#333333"/>		<path d="M 51 360 C 45.4775 360 41 355.5234 41 350 L 41 350 C 41 344.4766 45.4775 340 51 340 L 350 340 C 355.5229 340 360 344.4766 360 350 L 360 350 C 360 355.5234 355.5229 360 350 360 L 51 360 Z" fill="#333333"/>		<path d="M 51 141 C 45.4775 141 41 136.5234 41 131 L 41 131 C 41 125.4766 45.4775 121 51 121 L 350 121 C 355.5229 121 360 125.4766 360 131 L 360 131 C 360 136.5234 355.5229 141 350 141 L 51 141 Z" fill="#333333"/>		<path d="M 110 200 C 104.4775 200 100 195.5234 100 190 L 100 190 C 100 184.4766 104.4775 180 110 180 L 290 180 C 295.5229 180 300 184.4766 300 190 L 300 190 C 300 195.5234 295.5229 200 290 200 L 110 200 Z" fill="#333333"/>		<path d="M 51 60 C 45.4775 60 41 55.5234 41 50 L 41 50 C 41 44.4766 45.4775 40 51 40 L 350 40 C 355.5229 40 360 44.4766 360 50 L 360 50 C 360 55.5234 355.5229 60 350 60 L 51 60 Z" fill="#333333"/>		<path d="M 51 100 C 45.4775 100 41 95.5234 41 90 L 41 90 C 41 84.4766 45.4775 80 51 80 L 350 80 C 355.5229 80 360 84.4766 360 90 L 360 90 C 360 95.5234 355.5229 100 350 100 L 51 100 Z" fill="#333333"/>	</g></svg>